<svg xmlns="http://www.w3.org/2000/svg" xmlns:svg="http://www.w3.org/2000/svg" id="svg7384" width="48" height="48" version="1.1"><title id="title9167">Gnome Symbolic Icon Theme</title><metadata id="metadata90"/><path style="text-indent:0;text-transform:none;block-progression:tb" id="path59049" fill="#bebebe" d="m 24.252629,1.8560905 c -12.400565,0 -22.4433479,9.8976545 -22.4433479,21.9890165 0,12.091361 10.0427829,21.989017 22.4433479,21.989017 12.400566,0 22.551329,-9.897656 22.551329,-21.989017 0,-12.091362 -10.150763,-21.9890165 -22.551329,-21.9890165 z m 0,6.7336111 c 8.668308,0 15.64552,6.8032394 15.64552,15.2554054 0,8.452167 -6.977212,15.255406 -15.64552,15.255406 -8.66831,0 -15.5378901,-6.803239 -15.5378901,-15.255406 0,-8.452166 6.8692331,-15.2554054 15.5378901,-15.2554054 z" color="#000"/><path style="text-indent:0;text-transform:none;block-progression:tb" id="path59570" fill="#bebebe" d="m 11.852412,35.31018 a 3.4835554,3.3966941 0 0 0 -1.632753,0.955225 L 6.3010506,39.98034 a 3.4835554,3.3966941 0 1 0 4.7894104,4.882257 l 3.918608,-3.714931 A 3.4835554,3.3966941 0 0 0 11.852412,35.31001 z" color="#000"/><path style="text-indent:0;text-transform:none;block-progression:tb" id="path59572" fill="#bebebe" d="m 36.339358,35.615852 a 3.4835554,3.3966941 0 0 0 -2.068155,5.625041 l 3.156657,3.396358 a 3.4835554,3.3966941 0 1 0 5.224809,-4.457716 l -3.156656,-3.396356 a 3.4835554,3.3966941 0 0 0 -3.169717,-1.188724 z" color="#000"/><g id="g3776"><rect id="rect3016" width="2.638" height="15.171" x="33.442" y="-4.575" fill="#bebebe" fill-opacity="1" stroke="none" rx="1.202" ry="7.586" transform="matrix(0.88030481,0.47440852,-0.62810368,0.77812966,0,0)"/><path id="path3018" fill="#bebebe" fill-opacity="1" stroke="none" d="m 28.65795,24.449192 a 4.2426685,4.2579479 0 1 1 -8.485336,0 4.2426685,4.2579479 0 1 1 8.485336,0 z"/></g><rect id="rect3799" width="1.859" height="3.449" x="-.98" y="18.07" fill="#bebebe" fill-opacity="1" stroke="none" rx="0" ry="1.283" transform="matrix(0.74869116,-0.66291896,0.68305332,0.73036851,0,0)"/><rect id="rect3799-9" width="1.859" height="3.449" x="-37.513" y="-14.091" fill="#bebebe" fill-opacity="1" stroke="none" rx="0" ry="1.283" transform="matrix(-0.74869116,-0.66291896,-0.68305332,0.73036851,0,0)"/><rect id="rect3799-7" width="1.859" height="3.449" x="-25.799" y="7.737" fill="#bebebe" fill-opacity="1" stroke="none" rx="0" ry="1.283" transform="matrix(-0.01308953,-0.99991433,0.9991875,-0.0403032,0,0)"/><rect id="rect3799-7-5" width="1.859" height="3.449" x="-26.76" y="36.944" fill="#bebebe" fill-opacity="1" stroke="none" rx="0" ry="1.283" transform="matrix(-0.01308953,-0.99991433,0.9991875,-0.0403032,0,0)"/><rect id="rect3799-7-59" width="1.859" height="3.449" x="23.416" y="6.836" fill="#bebebe" fill-opacity="1" stroke="none" rx="0" ry="1.283" transform="matrix(0.9989539,0.04572857,-0.01851924,0.9998285,0,0)"/></svg>