<svg xmlns="http://www.w3.org/2000/svg" xmlns:svg="http://www.w3.org/2000/svg" xmlns:xlink="http://www.w3.org/1999/xlink" id="svg2" width="48" height="48" version="1.1"><defs id="defs4"><linearGradient id="linearGradient4278"><stop id="stop4280" offset="0" stop-color="#888a85" stop-opacity="1"/><stop id="stop4282" offset="1" stop-color="#000" stop-opacity="1"/></linearGradient><linearGradient id="linearGradient3719"><stop id="stop3721" offset="0" stop-color="#2e3436" stop-opacity=".751"/><stop id="stop3723" offset="1" stop-color="#2e3436" stop-opacity="0"/></linearGradient><linearGradient id="linearGradient4030" x1="373.781" x2="335.563" y1="983.844" y2="706.156" gradientTransform="matrix(0.14074219,0,0,0.14906637,166.14728,373.05008)" gradientUnits="userSpaceOnUse" xlink:href="#linearGradient3719"/><linearGradient id="linearGradient4284" x1="279" x2="488" y1="293.561" y2="575.362" gradientTransform="matrix(0.14074219,0,0,0.14906637,163.04417,432.77028)" gradientUnits="userSpaceOnUse" xlink:href="#linearGradient4278"/><linearGradient id="XMLID_120_" x1="-243.323" x2="-241.839" y1="458.992" y2="458.992" gradientTransform="matrix(0,266.6671,266.6671,0,-122333.13,64794.656)" gradientUnits="userSpaceOnUse"><stop id="stop454" offset="0" stop-color="#acacac" stop-opacity="1"/><stop id="stop456" offset="1" stop-color="#525252" stop-opacity="1"/></linearGradient><filter id="filter4441-9" color-interpolation-filters="sRGB"><feGaussianBlur id="feGaussianBlur4443-2" stdDeviation="1.756"/></filter><filter id="filter3920" width="1.155" height="1.268" x="-.078" y="-.134" color-interpolation-filters="sRGB"><feGaussianBlur id="feGaussianBlur3922" stdDeviation="10.344"/></filter><radialGradient id="radialGradient4979" cx="615.181" cy="311.216" r="79.756" fx="615.181" fy="311.216" gradientTransform="matrix(1,0,0,0.93706294,0,19.587002)" gradientUnits="userSpaceOnUse" xlink:href="#linearGradient3992-9-2"/><linearGradient id="linearGradient3992-9-2"><stop id="stop3994-3-3" offset="0" stop-color="#e3e3e3" stop-opacity="1"/><stop id="stop3996-6-8" offset=".769" stop-color="#e3e3e3" stop-opacity="1"/><stop id="stop3998-8-4" offset="1" stop-color="#acacac" stop-opacity="1"/></linearGradient><linearGradient id="linearGradient4981" x1="648.666" x2="680.945" y1="215.5" y2="310.897" gradientUnits="userSpaceOnUse" xlink:href="#linearGradient3720-5-1"/><linearGradient id="linearGradient3720-5-1"><stop id="stop3722-0-9" offset="0" stop-color="#fff" stop-opacity="1"/><stop id="stop3724-1-1" offset="1" stop-color="#fff" stop-opacity="0"/></linearGradient><linearGradient id="linearGradient4983" x1="614.25" x2="626.25" y1="407.506" y2="309.506" gradientUnits="userSpaceOnUse" xlink:href="#linearGradient4027-4-3"/><linearGradient id="linearGradient4027-4-3"><stop id="stop4029-8-1" offset="0" stop-color="#fff" stop-opacity="1"/><stop id="stop4031-8-4" offset="1" stop-color="#fff" stop-opacity="0"/></linearGradient><linearGradient id="linearGradient4985" x1="538.7" x2="524.125" y1="372.843" y2="294.375" gradientUnits="userSpaceOnUse" xlink:href="#linearGradient3897-1-1"/><linearGradient id="linearGradient3897-1-1"><stop id="stop3899-0-4" offset="0" stop-color="#fff" stop-opacity="1"/><stop id="stop3901-1-9" offset="1" stop-color="#fff" stop-opacity="0"/></linearGradient><radialGradient id="radialGradient4973" cx="414.954" cy="302.85" r="84.776" fx="414.954" fy="302.85" gradientTransform="matrix(1,0,0,1.1250001,0,-37.856226)" gradientUnits="userSpaceOnUse" xlink:href="#linearGradient3920-3-1"/><linearGradient id="linearGradient3920-3-1"><stop id="stop3922-7-7" offset="0" stop-color="#fff" stop-opacity="1"/><stop id="stop3924-9-0" offset="1" stop-color="#acacac" stop-opacity="1"/></linearGradient><linearGradient id="linearGradient4975" x1="380.869" x2="363.5" y1="438.343" y2="274.843" gradientTransform="matrix(0.0774559,0,0,0.05391899,-18.183872,2.8636419)" gradientUnits="userSpaceOnUse" xlink:href="#linearGradient3781-7-3"/><linearGradient id="linearGradient3781-7-3"><stop id="stop3783-8-7" offset="0" stop-color="#fff" stop-opacity="1"/><stop id="stop3785-9-5" offset="1" stop-color="#fff" stop-opacity="0"/></linearGradient><linearGradient id="linearGradient4977" x1="445.512" x2="496.383" y1="364.893" y2="286.252" gradientTransform="matrix(1,0,0,1.0032051,0,-0.81514999)" gradientUnits="userSpaceOnUse" xlink:href="#linearGradient3781-7-3"/><linearGradient id="linearGradient3517"><stop id="stop3519" offset="0" stop-color="#fff" stop-opacity="1"/><stop id="stop3521" offset="1" stop-color="#fff" stop-opacity="0"/></linearGradient><linearGradient id="linearGradient4025-9" x1="345.068" x2="358.651" y1="114.739" y2="434.351" gradientUnits="userSpaceOnUse" xlink:href="#linearGradient4324-4"/><linearGradient id="linearGradient4324-4"><stop id="stop4326-0" offset="0" stop-color="#fff" stop-opacity=".904"/><stop id="stop4328-5" offset="1" stop-color="#fff" stop-opacity="0"/></linearGradient><filter id="filter4336-3" width="1.263" height="1.263" x="-.131" y="-.131" color-interpolation-filters="sRGB"><feGaussianBlur id="feGaussianBlur4338-1" stdDeviation="10.134"/></filter><linearGradient id="linearGradient4044" x1="345.068" x2="358.651" y1="114.739" y2="434.351" gradientUnits="userSpaceOnUse" xlink:href="#linearGradient4324-4"/><linearGradient id="linearGradient4156" x1="538.7" x2="524.125" y1="372.843" y2="294.375" gradientUnits="userSpaceOnUse" xlink:href="#linearGradient3897-1-1"/><radialGradient id="radialGradient4158" cx="615.181" cy="311.216" r="79.756" fx="615.181" fy="311.216" gradientTransform="matrix(1,0,0,0.93706294,0,19.587002)" gradientUnits="userSpaceOnUse" xlink:href="#linearGradient3992-9-2"/><linearGradient id="linearGradient4160" x1="648.666" x2="680.945" y1="215.5" y2="310.897" gradientUnits="userSpaceOnUse" xlink:href="#linearGradient3720-5-1"/><linearGradient id="linearGradient4162" x1="614.25" x2="626.25" y1="407.506" y2="309.506" gradientUnits="userSpaceOnUse" xlink:href="#linearGradient4027-4-3"/><radialGradient id="radialGradient4177" cx="414.954" cy="302.85" r="84.776" fx="414.954" fy="302.85" gradientTransform="matrix(1,0,0,1.1250001,0,-37.856226)" gradientUnits="userSpaceOnUse" xlink:href="#linearGradient3920-3-1"/><linearGradient id="linearGradient4179" x1="380.869" x2="363.5" y1="438.343" y2="274.843" gradientTransform="matrix(0.0774559,0,0,0.05391899,-18.183872,2.8636419)" gradientUnits="userSpaceOnUse" xlink:href="#linearGradient3781-7-3"/><linearGradient id="linearGradient4181" x1="445.512" x2="496.383" y1="364.893" y2="286.252" gradientTransform="matrix(1,0,0,1.0032051,0,-0.81514999)" gradientUnits="userSpaceOnUse" xlink:href="#linearGradient3781-7-3"/><linearGradient id="linearGradient4188" x1="380.869" x2="363.5" y1="438.343" y2="274.843" gradientTransform="matrix(0.03385742,0,0,0.03049279,148.99284,483.89032)" gradientUnits="userSpaceOnUse" xlink:href="#linearGradient3781-7-3"/><radialGradient id="radialGradient4192" cx="414.954" cy="302.85" r="84.776" fx="414.954" fy="302.85" gradientTransform="matrix(0.03942608,0,0,0.04453553,146.68406,479.14429)" gradientUnits="userSpaceOnUse" xlink:href="#linearGradient3920-3-1"/><linearGradient id="linearGradient4194" x1="445.512" x2="496.383" y1="364.893" y2="286.252" gradientTransform="matrix(1,0,0,1.0032051,0,-0.81514999)" gradientUnits="userSpaceOnUse" xlink:href="#linearGradient3781-7-3"/><radialGradient id="radialGradient4201" cx="414.954" cy="302.85" r="84.776" fx="414.954" fy="302.85" gradientTransform="matrix(0.03942608,0,0,0.04453553,146.68406,479.14429)" gradientUnits="userSpaceOnUse" xlink:href="#linearGradient3920-3-1"/><linearGradient id="linearGradient4203" x1="380.869" x2="363.5" y1="438.343" y2="274.843" gradientTransform="matrix(0.03385742,0,0,0.03049279,148.99284,483.89032)" gradientUnits="userSpaceOnUse" xlink:href="#linearGradient3781-7-3"/><radialGradient id="radialGradient4215" cx="615.181" cy="311.216" r="79.756" fx="615.181" fy="311.216" gradientTransform="matrix(1,0,0,0.93706294,0,19.587002)" gradientUnits="userSpaceOnUse" xlink:href="#linearGradient3992-9-2"/><linearGradient id="linearGradient4217" x1="648.666" x2="680.945" y1="215.5" y2="310.897" gradientUnits="userSpaceOnUse" xlink:href="#linearGradient3720-5-1"/><linearGradient id="linearGradient4219" x1="614.25" x2="626.25" y1="407.506" y2="309.506" gradientUnits="userSpaceOnUse" xlink:href="#linearGradient4027-4-3"/><linearGradient id="linearGradient4221" x1="538.7" x2="524.125" y1="372.843" y2="294.375" gradientUnits="userSpaceOnUse" xlink:href="#linearGradient3897-1-1"/><radialGradient id="radialGradient4233" cx="414.954" cy="302.85" r="84.776" fx="414.954" fy="302.85" gradientTransform="matrix(0.03942608,0,0,0.04453553,146.68406,479.14429)" gradientUnits="userSpaceOnUse" xlink:href="#linearGradient3920-3-1"/><linearGradient id="linearGradient4235" x1="380.869" x2="363.5" y1="438.343" y2="274.843" gradientTransform="matrix(0.03385742,0,0,0.03049279,148.99284,483.89032)" gradientUnits="userSpaceOnUse" xlink:href="#linearGradient3781-7-3"/><linearGradient id="linearGradient4237" x1="445.512" x2="496.383" y1="364.893" y2="286.252" gradientTransform="matrix(1,0,0,1.0032051,0,-0.81514999)" gradientUnits="userSpaceOnUse" xlink:href="#linearGradient3781-7-3"/><linearGradient id="linearGradient3213" x1="373.781" x2="335.563" y1="983.844" y2="706.156" gradientTransform="matrix(0.14074219,0,0,0.14906637,-23.60272,-91.64594)" gradientUnits="userSpaceOnUse" xlink:href="#linearGradient3719"/><linearGradient id="linearGradient3219" x1="279" x2="488" y1="293.561" y2="575.362" gradientTransform="matrix(0.14074219,0,0,0.14906637,-26.70583,-31.92574)" gradientUnits="userSpaceOnUse" xlink:href="#linearGradient4278"/><linearGradient id="linearGradient4910" x1="373.781" x2="335.563" y1="983.844" y2="706.156" gradientTransform="matrix(0.13660226,0,0,0.2182002,-69.442017,-158.95657)" gradientUnits="userSpaceOnUse" xlink:href="#linearGradient3719"/><linearGradient id="linearGradient4923" x1="279" x2="488" y1="293.561" y2="575.362" gradientTransform="matrix(0.12535775,0,0,0.14906637,-66.345745,-46.755235)" gradientUnits="userSpaceOnUse" xlink:href="#linearGradient4278"/><linearGradient id="linearGradient5027" x1="345.068" x2="358.651" y1="114.739" y2="434.351" gradientUnits="userSpaceOnUse" xlink:href="#linearGradient4324-4"/><linearGradient id="linearGradient3920-3-1-1"><stop id="stop3922-7-7-4" offset="0" stop-color="#fff" stop-opacity="1"/><stop id="stop3924-9-0-7" offset="1" stop-color="#acacac" stop-opacity="1"/></linearGradient><linearGradient id="linearGradient3781-7-3-0"><stop id="stop3783-8-7-8" offset="0" stop-color="#fff" stop-opacity="1"/><stop id="stop3785-9-5-4" offset="1" stop-color="#fff" stop-opacity="0"/></linearGradient><linearGradient id="linearGradient5086"><stop id="stop5088" offset="0" stop-color="#fff" stop-opacity="1"/><stop id="stop5090" offset="1" stop-color="#fff" stop-opacity="0"/></linearGradient><linearGradient id="linearGradient3992-9-2-1"><stop id="stop3994-3-3-8" offset="0" stop-color="#e3e3e3" stop-opacity="1"/><stop id="stop3996-6-8-6" offset=".769" stop-color="#e3e3e3" stop-opacity="1"/><stop id="stop3998-8-4-3" offset="1" stop-color="#acacac" stop-opacity="1"/></linearGradient><linearGradient id="linearGradient3720-5-1-5"><stop id="stop3722-0-9-9" offset="0" stop-color="#fff" stop-opacity="1"/><stop id="stop3724-1-1-4" offset="1" stop-color="#fff" stop-opacity="0"/></linearGradient><linearGradient id="linearGradient4027-4-3-8"><stop id="stop4029-8-1-3" offset="0" stop-color="#fff" stop-opacity="1"/><stop id="stop4031-8-4-2" offset="1" stop-color="#fff" stop-opacity="0"/></linearGradient><linearGradient id="linearGradient3897-1-1-6"><stop id="stop3899-0-4-2" offset="0" stop-color="#fff" stop-opacity="1"/><stop id="stop3901-1-9-5" offset="1" stop-color="#fff" stop-opacity="0"/></linearGradient><radialGradient id="radialGradient5796" cx="414.954" cy="302.85" r="84.776" fx="414.954" fy="302.85" gradientTransform="matrix(0.03942608,0,0,0.04453553,146.68406,479.14429)" gradientUnits="userSpaceOnUse" xlink:href="#linearGradient3920-3-1-1"/><linearGradient id="linearGradient5798" x1="380.869" x2="363.5" y1="438.343" y2="274.843" gradientTransform="matrix(0.03385742,0,0,0.03049279,148.99284,483.89032)" gradientUnits="userSpaceOnUse" xlink:href="#linearGradient3781-7-3-0"/><linearGradient id="linearGradient5800" x1="445.512" x2="496.383" y1="364.893" y2="286.252" gradientTransform="matrix(1,0,0,1.0032051,0,-0.81514999)" gradientUnits="userSpaceOnUse" xlink:href="#linearGradient3781-7-3-0"/><radialGradient id="radialGradient5802" cx="615.181" cy="311.216" r="79.756" fx="615.181" fy="311.216" gradientTransform="matrix(1,0,0,0.93706294,0,19.587002)" gradientUnits="userSpaceOnUse" xlink:href="#linearGradient3992-9-2-1"/><linearGradient id="linearGradient5804" x1="648.666" x2="680.945" y1="215.5" y2="310.897" gradientUnits="userSpaceOnUse" xlink:href="#linearGradient3720-5-1-5"/><linearGradient id="linearGradient5806" x1="614.25" x2="626.25" y1="407.506" y2="309.506" gradientUnits="userSpaceOnUse" xlink:href="#linearGradient4027-4-3-8"/><linearGradient id="linearGradient5808" x1="538.7" x2="524.125" y1="372.843" y2="294.375" gradientUnits="userSpaceOnUse" xlink:href="#linearGradient3897-1-1-6"/><linearGradient id="linearGradient6074" x1="279" x2="488" y1="293.561" y2="575.362" gradientTransform="matrix(0.12535775,0,0,0.14906637,-66.345745,-46.755235)" gradientUnits="userSpaceOnUse" xlink:href="#linearGradient4278"/><linearGradient id="linearGradient6076" x1="373.781" x2="335.563" y1="983.844" y2="706.156" gradientTransform="matrix(0.13660226,0,0,0.2182002,-69.442017,-158.95657)" gradientUnits="userSpaceOnUse" xlink:href="#linearGradient3719"/><linearGradient id="linearGradient6078" x1="345.068" x2="358.651" y1="114.739" y2="434.351" gradientUnits="userSpaceOnUse" xlink:href="#linearGradient4324-4"/><radialGradient id="radialGradient6080" cx="414.954" cy="302.85" r="84.776" fx="414.954" fy="302.85" gradientTransform="matrix(0.03942608,0,0,0.04453553,146.68406,479.14429)" gradientUnits="userSpaceOnUse" xlink:href="#linearGradient3920-3-1-1"/><linearGradient id="linearGradient6082" x1="380.869" x2="363.5" y1="438.343" y2="274.843" gradientTransform="matrix(0.03385742,0,0,0.03049279,148.99284,483.89032)" gradientUnits="userSpaceOnUse" xlink:href="#linearGradient3781-7-3-0"/><linearGradient id="linearGradient6084" x1="445.512" x2="496.383" y1="364.893" y2="286.252" gradientTransform="matrix(1,0,0,1.0032051,0,-0.81514999)" gradientUnits="userSpaceOnUse" xlink:href="#linearGradient3781-7-3-0"/><radialGradient id="radialGradient6086" cx="615.181" cy="311.216" r="79.756" fx="615.181" fy="311.216" gradientTransform="matrix(1,0,0,0.93706294,0,19.587002)" gradientUnits="userSpaceOnUse" xlink:href="#linearGradient3992-9-2-1"/><linearGradient id="linearGradient6088" x1="648.666" x2="680.945" y1="215.5" y2="310.897" gradientUnits="userSpaceOnUse" xlink:href="#linearGradient3720-5-1-5"/><linearGradient id="linearGradient6090" x1="614.25" x2="626.25" y1="407.506" y2="309.506" gradientUnits="userSpaceOnUse" xlink:href="#linearGradient4027-4-3-8"/><linearGradient id="linearGradient6092" x1="538.7" x2="524.125" y1="372.843" y2="294.375" gradientUnits="userSpaceOnUse" xlink:href="#linearGradient3897-1-1-6"/></defs><metadata id="metadata7"/><g id="g5970" transform="translate(4.3145499,5.8246423)"><g id="g5043" transform="translate(40.677966,0.71186443)"><g id="g5019"><g id="g4925"><path id="path3688" fill="url(#linearGradient6074)" fill-opacity="1" fill-rule="evenodd" stroke="none" stroke-width="1" d="m -21.216963,-2.994935 c -11.780809,0 -22.149319,11.5086596 -22.061241,25.589618 0.08517,13.615783 2.71234,12.502603 3.121276,13.640411 l 1.713683,0.09297 c -0.151711,-1.19579 -3.797752,-12.992776 -3.729922,-14.236746 0.768586,-14.0954618 9.646838,-24.052113 20.956204,-24.052113 11.3093654,0 20.68430494,11.3948341 20.68430494,24.843114 0,1.2463 -2.58668604,13.421565 -3.57487734,13.352775 l 2.0476974,0 c 0.1459308,-1.19738 2.68840595,0.04509 2.68840595,-13.78423 0,-14.0088998 -10.06471405,-25.445799 -21.84553095,-25.445799 z" color="#000" direction="ltr" display="inline" enable-background="accumulate" font-family="Bitstream Vera Sans" font-size="medium" font-stretch="normal" font-style="normal" font-variant="normal" font-weight="normal" letter-spacing="normal" overflow="visible" text-anchor="start" text-decoration="none" visibility="visible" word-spacing="normal" writing-mode="lr-tb" style="text-indent:0;text-align:start;line-height:normal;text-transform:none;block-progression:tb;marker:none;-inkscape-font-specification:Bitstream Vera Sans"/><g id="g4091" transform="matrix(0.89069061,0,0,1,-43.840089,-20.869865)"><path id="path2816" fill="#0045aa" fill-opacity="1" fill-rule="evenodd" stroke="#000" stroke-dasharray="none" stroke-dashoffset="0" stroke-linecap="butt" stroke-linejoin="miter" stroke-miterlimit="4" stroke-opacity="1" stroke-width=".132" d="m 25.280532,18.907798 c -12.970011,0 -23.3199204,11.134472 -23.4863534,24.870792 -0.1614683,13.32657 4.2921438,13.588188 5.427899,13.343069 L 43.542678,57.10932 c 1.503472,0.313416 5.46641,-0.579434 5.224207,-13.33073 C 48.505995,30.043436 38.250542,18.907798 25.280532,18.907798 z" color="#000" display="inline" enable-background="accumulate" overflow="visible" visibility="visible" style="marker:none"/><path id="path3694" fill="#0055d4" fill-opacity="1" fill-rule="evenodd" stroke="#000" stroke-dasharray="none" stroke-dashoffset="0" stroke-linecap="butt" stroke-linejoin="miter" stroke-miterlimit="4" stroke-opacity="1" stroke-width=".873" d="m 208.375,250.15625 c -88.19269,0 -159.6875,71.49481 -159.6875,159.6875 0,8.69548 0.72499,17.21295 2.0625,25.53125 l 315.3125,0 c 1.33697,-8.31669 2,-16.83754 2,-25.53125 0,-88.19269 -71.49481,-159.6875 -159.6875,-159.6875 z" color="#000" display="inline" enable-background="accumulate" filter="url(#filter3920)" overflow="visible" transform="matrix(0.12910952,0,0,0.1620173,-1.2661473,-17.928736)" visibility="visible" style="marker:none"/></g></g><path d="m -9.2848625,6.3165516 c -12.0321185,0 -22.3350655,12.7328814 -26.0819215,29.9115414 l 31.6125979,-0.07627 C -2.4208848,35.35471 -0.76223909,33.111737 -0.46624239,25.521577 -0.07102322,15.387083 0.28995437,14.248934 -5.7502711,6.6711226 c -1.1566755,-0.23662 -2.337635,-0.354571 -3.5345914,-0.354571 z" style="marker:none" id="path3710" fill="url(#linearGradient6076)" fill-opacity="1" fill-rule="evenodd" stroke="none" stroke-width=".873" color="#000" display="inline" enable-background="accumulate" overflow="visible" visibility="visible"/></g><path id="path4316" fill="url(#linearGradient6078)" fill-opacity="1" stroke="none" d="m 360.875,303.15625 c -16.78029,0 -32.9624,2.60717 -48.15625,7.40625 l -31.8125,177.8125 185.1875,0 L 414.625,312.4375 c -16.79737,-6.00369 -34.88931,-9.28125 -53.75,-9.28125 z" filter="url(#filter4336-3)" transform="matrix(0.18746624,0,0,0.08737914,-91.434195,-8.5652447)"/></g><g id="g5875" transform="translate(58.2414,-53.957877)"><g id="g4947" transform="translate(-63.942085,47.742784)"><g id="g4223" transform="matrix(0.89069061,0,0,1,-126.14099,-474.3255)"><g id="g4196" transform="matrix(1,0,0,1.3043413,0,-148.77917)"><path id="path4146" fill="url(#radialGradient6080)" fill-opacity="1" stroke="none" d="m 166.38645,492.63186 a 3.34237,3.7755262 0 1 1 -6.68474,0 3.34237,3.7755262 0 1 1 6.68474,0 z"/><path id="path4148" fill="#fff" stroke="none" d="m 161.01222,490.01938 c 1.90773,0.25286 2.91869,1.21243 3.35189,2.85107 0.46836,0.16771 0.93672,0.33542 1.40508,0.50313 0.13543,-0.36083 0.27086,-0.72166 0.40629,-1.08249 0.0977,-2.25144 -3.10787,-4.4648 -5.16326,-2.27171 z" opacity=".886"/><path id="path4150" fill="url(#linearGradient6082)" fill-opacity="1" stroke="none" d="m 163.50921,496.00359 c -0.44982,-0.20533 -0.86579,-0.40723 -1.17532,-0.63855 -1.6439,-1.22851 -1.65081,-2.29571 -1.96496,-3.3865 -0.20499,0.75717 -0.51086,1.47305 0,2.52328 0.29919,0.54581 1.06173,1.81621 2.93713,1.71522 l 0.3809,-0.10673 -0.17775,-0.10672 z" opacity=".97"/></g><g id="g4152" transform="matrix(0.05114588,0,0,0.05682132,138.00363,476.91787)"><path id="path4154" fill="#000" fill-opacity="1" stroke="none" d="m 507.53814,302.5708 a 20.915035,33.185187 0 1 1 -41.83007,0 20.915035,33.185187 0 1 1 41.83007,0 z" transform="matrix(1.4666667,0,0,1.315126,-229.60058,-99.949251)"/><path id="path4156" fill="url(#linearGradient6084)" fill-opacity="1" stroke="none" d="m 461.80392,276.4279 c -0.95798,12.17677 1.2428,23.42724 6.27858,34.53351 5.41095,13.25376 15.91688,18.85031 28.30097,23.65675 -13.68282,5.51925 -22.05827,1.19858 -29.76637,-5.86508 -4.76045,-4.36243 -8.90234,-12.72301 -10.0457,-20.14254 -1.63824,-10.63097 -0.81427,-21.64347 5.0345,-31.87411 l 0.19802,-0.30853 0,0 z" opacity=".886"/><path id="path4158" fill="#fff" fill-opacity="1" stroke="none" d="m 481.72331,259.28921 c 3.39317,8.19532 5.82077,18.32179 5.89434,33.15632 l 22.0305,-9.20261 c -4.27464,-14.0287 -15.04275,-25.12677 -27.92484,-23.95371 z" opacity=".527"/></g></g><g id="g4205" transform="matrix(0.89069061,0,0,1,-124.78262,-474.71201)"><g id="g4130" transform="matrix(0.03241217,0,0,0.0586011,153.24449,476.38288)"><path id="path4132" fill="url(#radialGradient6086)" fill-opacity="1" stroke="none" d="m 694.93684,311.2157 a 79.75599,74.736383 0 1 1 -159.51198,0 79.75599,74.736383 0 1 1 159.51198,0 z" transform="matrix(1.2622377,0,0,1.1967459,-165.50666,-74.413065)"/><path id="path4134" fill="url(#linearGradient6088)" fill-opacity="1" stroke="none" d="m 595.75,215.5 c 35.86817,29.08279 56.32994,37.44412 64.75,122.75 L 695.75,321 c 7.06843,-30.13997 10.47846,-36.49767 -6.25,-67 -17.13889,-18.54063 -31.51588,-28.13799 -44.4615,-33.10043 -18.00513,-6.9019 -33.24141,-4.838 -49.2885,-5.39957 z" opacity=".69"/><path id="path4136" fill="url(#linearGradient6090)" fill-opacity="1" stroke="none" d="m 520.75,338.75 c 52.43376,35.98598 124.91235,45.0253 187,-18.75 -13.9076,43.29998 -47.38001,68.66554 -109.25,68 -25.41384,-6.58962 -48.96355,-14.44011 -67.8268,-35.5866 L 520.75,338.75 z" opacity=".639"/></g><g id="g4138" transform="matrix(0.0582175,0,0,0.06841453,141.49354,473.57056)"><path id="path4140" fill="#000" fill-opacity="1" stroke="none" d="m 550.48366,301.17648 a 11.991285,27.328976 0 1 1 -23.98257,0 11.991285,27.328976 0 1 1 23.98257,0 z" transform="matrix(2.1395348,0,0,1.4081633,-610.28445,-124.60238)"/><path id="path4142" fill="#fff" fill-opacity="1" stroke="none" d="m 540.72331,266.03921 1.39434,32.90632 22.0305,-9.20261 C 559.87351,276.1335 553.6054,265.74429 540.72331,266.03921 z" opacity=".669"/><path id="path4144" fill="url(#linearGradient6092)" fill-opacity="1" stroke="none" d="m 519.625,294.375 c 7.64161,20.3981 18.1256,31.08477 29.75,37.875 -8.39793,3.75055 -14.06522,-0.008 -19.875,-3.375 -10.06853,-11.87649 -11.76102,-23.28765 -9.875,-34.5 z"/></g></g></g><g id="g4062" transform="matrix(0.89069061,0,0,1,-59.018117,46.494081)"><path id="path443" fill="#000" fill-opacity="1" d="m 28.803265,34.096144 c -2.41052,3.03847 -4.515073,3.167289 -7.551542,3.225485 -3.025827,3.8e-4 -7.527698,-2.246885 -7.924528,-2.839915 0.0592,2.54785 1.28871,5.70049 8.59773,5.715 7.15461,-0.0675 6.94165,-3.23331 7.09476,-6.17915" opacity=".359" overflow="visible"/><path id="path443-0" fill="#fff" fill-opacity="1" d="m 28.236655,35.516914 c -2.19746,2.33404 -3.820709,2.549045 -6.872159,2.549425 -2.34121,2.9e-4 -7.204819,-2.10278 -7.566569,-2.55833 1.44098,2.03257 3.229846,4.107991 7.530388,4.191036 6.163982,-0.01772 6.85047,-3.638341 7.10564,-4.242491" overflow="visible"/></g><g id="g5859"><path id="rect4235" fill="#fff" fill-opacity="1" stroke="none" d="m -27.324911,68.573852 0.0693,0.147871 -12.151616,8.277733 -1.092402,0.330793 -0.176547,-0.376564 0.827305,-0.895955 12.523671,-7.484182 z"/><path id="path4344" fill="#000" fill-opacity="1" stroke="none" d="m -27.199916,68.923883 -13.297169,8.493883 0.09384,0.200097 1.090644,-0.329808 12.152923,-8.278421 -0.04019,-0.0858 z"/><path id="path4263" fill="#babdb6" fill-opacity="1" stroke="none" d="m -27.224885,68.617568 -13.29718,8.493882 0.09384,0.200103 1.090644,-0.329808 12.152912,-8.27842 -0.04019,-0.08579 z"/><g id="g4240" transform="matrix(0.89069061,0,0,1,-61.102934,43.268208)"><path id="path3261" fill="#fff" fill-opacity="1" fill-rule="evenodd" stroke="none" d="m 23.90645,32.608128 0.705914,0.211324 0,1.000852 -0.705914,-0.324524 z" opacity=".78"/><g id="g4230"><path id="path3257" fill="#fff" fill-opacity="1" fill-rule="evenodd" stroke="none" d="m 22.950245,33.987273 0.72246,0.498195 1.011568,-0.737073 -0.705914,-0.324524 z" opacity=".78"/><g id="g4053" transform="translate(-0.39187348,0.08249318)"><path id="path3259" fill="#fff" fill-opacity="1" fill-rule="evenodd" stroke="none" d="m 23.306164,32.928467 0,1.084177 1.028114,-0.563402 0,-0.887652 z" opacity=".78"/><g id="g4047"><path id="path3263" fill="#fff" fill-opacity="1" fill-rule="evenodd" stroke="none" d="m 23.306164,32.928467 0.72246,0.324415 1.011568,-0.479968 -0.705914,-0.211324 z" opacity=".78"/><g id="g4043"><path id="path3265" fill="#fff" fill-opacity="1" fill-rule="evenodd" stroke="none" d="m 24.028624,33.252882 0,1.257957 1.011568,-0.737073 0,-1.000852 z" opacity=".78"/><path id="path3267" fill="#fff" fill-opacity="1" fill-rule="evenodd" stroke="none" d="m 23.306164,32.928467 0.72246,0.324415 0,1.257957 -0.72246,-0.498195 z" opacity=".78"/></g></g></g></g></g></g></g><g id="g5914" transform="translate(54.915254,5.3898305)"><g id="g4061" transform="matrix(0.12535775,0,0,0.14906637,-80.760112,-51.009729)"><rect id="rect4057" width="5" height="20.192" x="358.388" y="306.13" fill="#fff" fill-opacity="1" stroke="none" ry="1.171"/></g><g id="g4065" transform="matrix(0.10856298,0.07453319,-0.06267887,0.12909527,-45.727272,-68.676719)"><rect id="rect4067" width="5" height="20.192" x="358.388" y="306.13" fill="#fff" fill-opacity="1" stroke="none" ry="1.171"/></g><g id="g4071" transform="matrix(0.06267887,0.12909527,-0.10856298,0.07453319,-7.9593819,-63.147519)"><rect id="rect4073" width="5" height="20.192" x="358.388" y="306.13" fill="#fff" fill-opacity="1" stroke="none" ry="1.171"/></g><g id="g4077" transform="matrix(0.10856298,-0.07453319,0.06267887,0.12909527,-103.67089,-14.88041)"><rect id="rect4079" width="5" height="20.192" x="358.388" y="306.13" fill="#fff" fill-opacity="1" stroke="none" ry="1.171"/></g><g id="g4083" transform="matrix(0.06267887,-0.12909527,0.10856298,0.07453319,-108.32069,30.030431)"><rect id="rect4085" width="5" height="20.192" x="358.388" y="306.13" fill="#fff" fill-opacity="1" stroke="none" ry="1.171"/></g><g id="g4107" transform="matrix(0.06214265,-0.00972853,0.01636247,0.14779109,-65.66638,-46.909349)"><rect id="rect4109" width="5" height="20.192" x="358.388" y="306.13" fill="#fff" fill-opacity="1" stroke="none" ry="1.171"/></g><g id="g4113" transform="matrix(0.06054314,-0.01929061,0.03244497,0.14398706,-72.52289,-41.700189)"><rect id="rect4115" width="5" height="20.192" x="358.388" y="306.13" fill="#fff" fill-opacity="1" stroke="none" ry="1.171"/></g><g id="g4119" transform="matrix(0.05790772,-0.02852262,0.04797233,0.13771937,-78.748942,-35.471369)"><rect id="rect4121" width="5" height="20.192" x="358.388" y="306.13" fill="#fff" fill-opacity="1" stroke="none" ry="1.171"/></g><g id="g4125" transform="matrix(0.04972649,-0.04537293,0.07631296,0.11826231,-88.896224,-20.39672)"><rect id="rect4127" width="5" height="20.192" x="358.388" y="306.13" fill="#fff" fill-opacity="1" stroke="none" ry="1.171"/></g><g id="g4131" transform="matrix(0.04432066,-0.05270292,0.08864131,0.10540584,-92.643804,-11.80882)"><rect id="rect4133" width="5" height="20.192" x="358.388" y="306.13" fill="#fff" fill-opacity="1" stroke="none" ry="1.171"/></g><g id="g4137" transform="matrix(0.03815648,-0.05913115,0.09945298,0.09074586,-95.416658,-2.7127199)"><rect id="rect4139" width="5" height="20.192" x="358.388" y="306.13" fill="#fff" fill-opacity="1" stroke="none" ry="1.171"/></g><g id="g4143" transform="matrix(0.06214265,0.00972853,-0.01636247,0.14779109,-50.540057,-53.931169)"><rect id="rect4145" width="5" height="20.192" x="358.388" y="306.13" fill="#fff" fill-opacity="1" stroke="none" ry="1.171"/></g><g id="g4149" transform="matrix(0.06054314,0.01929061,-0.03244497,0.14398706,-42.529062,-55.623699)"><rect id="rect4151" width="5" height="20.192" x="358.388" y="306.13" fill="#fff" fill-opacity="1" stroke="none" ry="1.171"/></g><g id="g4189" transform="matrix(0.05790772,0.02852262,-0.04797233,0.13771937,-34.400815,-56.058329)"><rect id="rect4157" width="5" height="20.192" x="358.388" y="306.13" fill="#fff" fill-opacity="1" stroke="none" ry="1.171"/></g><g id="g4161" transform="matrix(0.04972649,0.04537293,-0.07631296,0.11826231,-18.348522,-53.145849)"><rect id="rect4163" width="5" height="20.192" x="358.388" y="306.13" fill="#fff" fill-opacity="1" stroke="none" ry="1.171"/></g><g id="g4167" transform="matrix(0.04432066,0.05270292,-0.08864131,0.10540584,-10.699146,-49.848569)"><rect id="rect4169" width="5" height="20.192" x="358.388" y="306.13" fill="#fff" fill-opacity="1" stroke="none" ry="1.171"/></g><g id="g4173" transform="matrix(0.03815648,0.05913115,-0.09945298,0.09074586,-3.4771241,-45.392209)"><rect id="rect4175" width="5" height="20.192" x="358.388" y="306.13" fill="#fff" fill-opacity="1" stroke="none" ry="1.171"/></g><g id="g4179" transform="matrix(0.02398616,0.06885968,-0.11581545,0.05704523,9.1999419,-33.325809)"><rect id="rect4181" width="5" height="20.192" x="358.388" y="306.13" fill="#fff" fill-opacity="1" stroke="none" ry="1.171"/></g><g id="g4185" transform="matrix(0.02398616,-0.06885968,0.11581545,0.05704523,-97.865923,16.375501)"><rect id="rect4187" width="5" height="20.192" x="358.388" y="306.13" fill="#fff" fill-opacity="1" stroke="none" ry="1.171"/></g><g id="g4191" transform="matrix(0.01622249,-0.07199353,0.12108628,0.03858122,-97.500411,26.041021)"><rect id="rect4193" width="5" height="20.192" x="358.388" y="306.13" fill="#fff" fill-opacity="1" stroke="none" ry="1.171"/></g><rect id="rect4199" width=".372" height="2.54" x="-23.405" y="-53.162" fill="#fff" fill-opacity="1" stroke="none" ry=".147" transform="matrix(0.11004114,-0.99392703,0.98796654,0.15466773,0,0)"/><rect id="rect4201" width=".372" height="2.534" x="-20.949" y="-18.574" fill="#fff" fill-opacity="1" stroke="none" ry=".147" transform="matrix(-0.01696537,-0.99985608,0.99998905,-0.00468014,0,0)"/><rect id="rect4205" width=".745" height="2.582" x="-20.926" y="-54.842" fill="#fff" fill-opacity="1" stroke="none" ry=".15" transform="matrix(0.04192861,-0.99912061,0.99860383,0.05282409,0,0)"/><rect id="rect4207" width=".744" height="2.585" x="-15.772" y="-20.021" fill="#fff" fill-opacity="1" stroke="none" ry=".15" transform="matrix(-0.101347,-0.99485114,0.99185601,-0.12736428,0,0)"/><g id="g4209" transform="matrix(0.01622249,0.07199353,-0.12108628,0.03858122,14.438076,-25.92222)"><rect id="rect4211" width="5" height="20.192" x="358.388" y="306.13" fill="#fff" fill-opacity="1" stroke="none" ry="1.171"/></g><rect id="rect4217" width=".372" height="2.54" x="11.986" y="17.83" fill="#fff" fill-opacity="1" stroke="none" ry=".147" transform="matrix(0.11004114,0.99392703,-0.98796654,0.15466773,0,0)"/><rect id="rect4219" width=".372" height="2.534" x="20.123" y="53.035" fill="#fff" fill-opacity="1" stroke="none" ry=".147" transform="matrix(-0.00334349,0.99999441,-0.99992199,0.01249035,0,0)"/><rect id="rect4219-2" width=".372" height="2.534" x="20.539" y="53.827" fill="#fff" fill-opacity="1" stroke="none" ry=".147" transform="matrix(0.04308846,0.99907126,-0.99826378,0.05890186,0,0)"/><rect id="rect4219-8" width=".372" height="2.534" x="15.257" y="56.3" fill="#fff" fill-opacity="1" stroke="none" ry=".147" transform="matrix(0.18260889,0.98318564,-0.98017104,0.19815328,0,0)"/><rect id="rect4219-5" width=".372" height="2.534" x="16.577" y="56.337" fill="#fff" fill-opacity="1" stroke="none" ry=".147" transform="matrix(0.21019483,0.97765952,-0.97420884,0.22564826,0,0)"/><rect id="rect4201-8" width=".373" height="2.537" x="-24.825" y="-18.72" fill="#fff" fill-opacity="1" stroke="none" ry=".147" transform="matrix(-0.01694906,-0.99985635,0.99864829,0.05197694,0,0)"/><rect id="rect4201-9" width=".372" height="2.534" x="-29.644" y="-13.58" fill="#fff" fill-opacity="1" stroke="none" ry=".147" transform="matrix(0.18645809,-0.98246292,0.98009799,0.19851429,0,0)"/><rect id="rect4201-2" width=".372" height="2.534" x="-32.595" y="-13.833" fill="#fff" fill-opacity="1" stroke="none" ry=".147" transform="matrix(0.19078609,-0.98163164,0.97921361,0.20283174,0,0)"/></g></g></svg>