<svg xmlns="http://www.w3.org/2000/svg" xmlns:svg="http://www.w3.org/2000/svg" xmlns:xlink="http://www.w3.org/1999/xlink" id="svg2816" width="48" height="48" version="1.1"><metadata id="metadata2822"/><defs id="defs2820"><linearGradient id="linearGradient4456"><stop id="stop4458" offset="0" stop-color="#000" stop-opacity="1"/><stop id="stop4460" offset="1" stop-color="#000" stop-opacity="0"/></linearGradient><linearGradient id="linearGradient4442"><stop id="stop4444" offset="0" stop-color="#fff" stop-opacity="1"/><stop id="stop4446" offset="1" stop-color="#fff" stop-opacity="0"/></linearGradient><linearGradient id="linearGradient3837"><stop id="stop3839" offset="0" stop-color="#fff" stop-opacity="1"/><stop id="stop3841" offset="1" stop-color="#fff" stop-opacity="0"/></linearGradient><linearGradient id="linearGradient3824"><stop id="stop3826" offset="0" stop-color="#b3b3b3" stop-opacity="1"/><stop id="stop3828" offset="1" stop-color="#000" stop-opacity="1"/></linearGradient><linearGradient id="linearGradient3950"><stop id="stop3952" offset="0" stop-color="#000" stop-opacity=".593"/><stop id="stop3958" offset=".5" stop-color="#000" stop-opacity=".541"/><stop id="stop3960" offset=".75" stop-color="#000" stop-opacity=".337"/><stop id="stop3954" offset="1" stop-color="#000" stop-opacity="0"/></linearGradient><linearGradient id="linearGradient3933"><stop id="stop3935" offset="0" stop-color="#ffd900" stop-opacity="1"/><stop id="stop3941" offset=".531" stop-color="#ebc802" stop-opacity="1"/><stop id="stop3937" offset="1" stop-color="#ba9e00" stop-opacity="1"/></linearGradient><linearGradient id="linearGradient3873"><stop id="stop3875" offset="0" stop-color="#fff" stop-opacity="1"/><stop id="stop3877" offset="1" stop-color="#fff" stop-opacity="0"/></linearGradient><linearGradient id="linearGradient3768"><stop id="stop3770" offset="0" stop-color="#4d4d4d" stop-opacity="1"/><stop id="stop3772" offset="1" stop-color="#4d4d4d" stop-opacity="0"/></linearGradient><linearGradient id="linearGradient3720"><stop id="stop3722" offset="0" stop-color="#fff" stop-opacity="1"/><stop id="stop3724" offset="1" stop-color="#fff" stop-opacity="0"/></linearGradient><linearGradient id="linearGradient3712"><stop id="stop3714" offset="0" stop-color="#fff" stop-opacity="1"/><stop id="stop3716" offset="1" stop-color="#fff" stop-opacity="0"/></linearGradient><linearGradient id="linearGradient3702"><stop id="stop3704" offset="0" stop-color="#fff" stop-opacity="1"/><stop id="stop3706" offset="1" stop-color="#fff" stop-opacity="0"/></linearGradient><linearGradient id="linearGradient3691"><stop id="stop3694" offset="0" stop-color="#fff" stop-opacity="1"/><stop id="stop3696" offset="1" stop-color="#fff" stop-opacity="0"/></linearGradient><linearGradient id="linearGradient4027"><stop id="stop4029" offset="0" stop-color="#fff" stop-opacity="1"/><stop id="stop4031" offset="1" stop-color="#fff" stop-opacity="0"/></linearGradient><linearGradient id="linearGradient3992"><stop id="stop3994" offset="0" stop-color="#e3e3e3" stop-opacity="1"/><stop id="stop3996" offset=".769" stop-color="#e3e3e3" stop-opacity="1"/><stop id="stop3998" offset="1" stop-color="#acacac" stop-opacity="1"/></linearGradient><linearGradient id="linearGradient3920"><stop id="stop3922" offset="0" stop-color="#fff" stop-opacity="1"/><stop id="stop3924" offset="1" stop-color="#acacac" stop-opacity="1"/></linearGradient><linearGradient id="linearGradient3897"><stop id="stop3899" offset="0" stop-color="#fff" stop-opacity="1"/><stop id="stop3901" offset="1" stop-color="#fff" stop-opacity="0"/></linearGradient><linearGradient id="linearGradient3846"><stop id="stop3848" offset="0" stop-color="#fff" stop-opacity=".302"/><stop id="stop3850" offset="1" stop-color="#fff" stop-opacity="0"/></linearGradient><linearGradient id="linearGradient3781"><stop id="stop3783" offset="0" stop-color="#fff" stop-opacity="1"/><stop id="stop3785" offset="1" stop-color="#fff" stop-opacity="0"/></linearGradient><linearGradient id="linearGradient3737"><stop id="stop3739" offset="0" stop-color="#ffbc00" stop-opacity="1"/><stop id="stop3741" offset=".871" stop-color="#dbab00" stop-opacity="1"/><stop id="stop3743" offset="1" stop-color="#c8ad16" stop-opacity="1"/></linearGradient><linearGradient id="linearGradient3719"><stop id="stop3721" offset="0" stop-color="#ffbc00" stop-opacity="1"/><stop id="stop3727" offset=".836" stop-color="#dbab00" stop-opacity="1"/><stop id="stop3723" offset="1" stop-color="#c8ad16" stop-opacity="1"/></linearGradient><linearGradient id="linearGradient3711"><stop id="stop3713" offset="0" stop-color="#d5a800" stop-opacity="1"/><stop id="stop3715" offset="1" stop-color="#d5a800" stop-opacity="1"/></linearGradient><linearGradient id="linearGradient3703"><stop id="stop3705" offset="0" stop-color="#ffd500" stop-opacity="1"/><stop id="stop3707" offset="1" stop-color="#ffb400" stop-opacity="1"/></linearGradient><linearGradient id="linearGradient3689"><stop id="stop3691" offset="0" stop-color="#fff" stop-opacity="1"/><stop id="stop3693" offset="1" stop-color="#fff" stop-opacity="0"/></linearGradient><linearGradient id="linearGradient3852" x1="380.869" x2="349" y1="475.343" y2="272.843" gradientUnits="userSpaceOnUse" xlink:href="#linearGradient3846"/><linearGradient id="linearGradient3883" x1="445.512" x2="496.383" y1="364.893" y2="286.252" gradientTransform="matrix(1,0,0,1.0032051,0,-0.81514999)" gradientUnits="userSpaceOnUse" xlink:href="#linearGradient3781"/><linearGradient id="linearGradient3903" x1="538.7" x2="524.125" y1="372.843" y2="294.375" gradientUnits="userSpaceOnUse" xlink:href="#linearGradient3897"/><radialGradient id="radialGradient3926" cx="414.954" cy="302.85" r="84.776" fx="414.954" fy="302.85" gradientTransform="matrix(1,0,0,1.1250001,0,-37.856226)" gradientUnits="userSpaceOnUse" xlink:href="#linearGradient3920"/><linearGradient id="linearGradient3930" x1="380.869" x2="349" y1="475.343" y2="272.843" gradientUnits="userSpaceOnUse" xlink:href="#linearGradient3846"/><linearGradient id="linearGradient3942" x1="380.869" x2="363.5" y1="438.343" y2="274.843" gradientUnits="userSpaceOnUse" xlink:href="#linearGradient3781"/><radialGradient id="radialGradient3973" cx="414.954" cy="302.85" r="84.776" fx="414.954" fy="302.85" gradientTransform="matrix(1,0,0,1.1250001,0,-37.856226)" gradientUnits="userSpaceOnUse" xlink:href="#linearGradient3920"/><linearGradient id="linearGradient3975" x1="380.869" x2="363.5" y1="438.343" y2="274.843" gradientUnits="userSpaceOnUse" xlink:href="#linearGradient3781"/><radialGradient id="radialGradient3990" cx="615.181" cy="311.216" r="79.756" fx="615.181" fy="311.216" gradientTransform="matrix(1,0,0,0.93706294,0,19.587002)" gradientUnits="userSpaceOnUse" xlink:href="#linearGradient3992"/><linearGradient id="linearGradient4033" x1="614.25" x2="626.25" y1="407.506" y2="309.506" gradientUnits="userSpaceOnUse" xlink:href="#linearGradient4027"/><radialGradient id="radialGradient4045" cx="615.181" cy="311.216" r="79.756" fx="615.181" fy="311.216" gradientTransform="matrix(1,0,0,0.93706294,0,19.587002)" gradientUnits="userSpaceOnUse" xlink:href="#linearGradient3992"/><linearGradient id="linearGradient4047" x1="538.7" x2="524.125" y1="372.843" y2="294.375" gradientUnits="userSpaceOnUse" xlink:href="#linearGradient3897"/><linearGradient id="linearGradient4049" x1="614.25" x2="626.25" y1="407.506" y2="309.506" gradientUnits="userSpaceOnUse" xlink:href="#linearGradient4027"/><radialGradient id="radialGradient3010" cx="505.307" cy="957.072" r="418.301" fx="505.307" fy="957.072" gradientTransform="matrix(1,0,0,0.17600001,0,788.62724)" gradientUnits="userSpaceOnUse" xlink:href="#linearGradient3950"/><linearGradient id="linearGradient3012" x1="543.189" x2="510.719" y1="520.078" y2="850.64" gradientUnits="userSpaceOnUse" xlink:href="#linearGradient3920"/><linearGradient id="linearGradient3014" x1="524.522" x2="505.859" y1="5.717" y2="268.372" gradientTransform="translate(0,-256)" gradientUnits="userSpaceOnUse" xlink:href="#linearGradient3691"/><linearGradient id="linearGradient3016" x1="413.111" x2="413.111" y1="88.454" y2="267.107" gradientTransform="translate(0,-256)" gradientUnits="userSpaceOnUse" xlink:href="#linearGradient3702"/><linearGradient id="linearGradient3018" x1="617.691" x2="617.691" y1="152.828" y2="240.392" gradientTransform="translate(0,-256)" gradientUnits="userSpaceOnUse" xlink:href="#linearGradient3712"/><linearGradient id="linearGradient3020" x1="1001.075" x2="789.136" y1="595.045" y2="416.349" gradientTransform="translate(2,-258)" gradientUnits="userSpaceOnUse" xlink:href="#linearGradient3873"/><linearGradient id="linearGradient3022" x1="1001.075" x2="789.136" y1="595.045" y2="416.349" gradientTransform="matrix(-1,0,0,1,1015.8039,-256)" gradientUnits="userSpaceOnUse" xlink:href="#linearGradient3873"/><radialGradient id="radialGradient3024" cx="711.484" cy="896.571" r="170.391" fx="711.484" fy="896.571" gradientTransform="matrix(0.82981587,2.5694695e-7,-1.4455765e-7,0.45887766,121.08348,467.6842)" gradientUnits="userSpaceOnUse" xlink:href="#linearGradient3737"/><linearGradient id="linearGradient3026" x1="744.978" x2="744.191" y1="820.14" y2="908.973" gradientUnits="userSpaceOnUse" xlink:href="#linearGradient3689"/><radialGradient id="radialGradient3028" cx="317.484" cy="887.563" r="170.391" fx="317.484" fy="887.563" gradientTransform="matrix(0.88238093,-1.968562e-8,0,0.47198542,37.342211,455.72249)" gradientUnits="userSpaceOnUse" xlink:href="#linearGradient3719"/><linearGradient id="linearGradient3030" x1="744.978" x2="744.191" y1="820.14" y2="908.973" gradientUnits="userSpaceOnUse" xlink:href="#linearGradient3689"/><linearGradient id="linearGradient3032" x1="511.902" x2="531.29" y1="349.212" y2="565.339" gradientUnits="userSpaceOnUse" xlink:href="#linearGradient3768"/><radialGradient id="radialGradient3034" cx="615.181" cy="311.216" r="79.756" fx="615.181" fy="311.216" gradientTransform="matrix(1,0,0,0.93706294,0,19.587002)" gradientUnits="userSpaceOnUse" xlink:href="#linearGradient3992"/><linearGradient id="linearGradient3036" x1="648.666" x2="680.945" y1="215.5" y2="310.897" gradientUnits="userSpaceOnUse" xlink:href="#linearGradient3720"/><linearGradient id="linearGradient3038" x1="614.25" x2="626.25" y1="407.506" y2="309.506" gradientUnits="userSpaceOnUse" xlink:href="#linearGradient4027"/><linearGradient id="linearGradient3040" x1="538.7" x2="524.125" y1="372.843" y2="294.375" gradientUnits="userSpaceOnUse" xlink:href="#linearGradient3897"/><radialGradient id="radialGradient3042" cx="414.954" cy="302.85" r="84.776" fx="414.954" fy="302.85" gradientTransform="matrix(1,0,0,1.1250001,0,-37.856226)" gradientUnits="userSpaceOnUse" xlink:href="#linearGradient3920"/><linearGradient id="linearGradient3044" x1="380.869" x2="363.5" y1="438.343" y2="274.843" gradientUnits="userSpaceOnUse" xlink:href="#linearGradient3781"/><linearGradient id="linearGradient3046" x1="445.512" x2="496.383" y1="364.893" y2="286.252" gradientTransform="matrix(1,0,0,1.0032051,0,-0.81514999)" gradientUnits="userSpaceOnUse" xlink:href="#linearGradient3781"/><radialGradient id="radialGradient3048" cx="510.055" cy="420.944" r="91.056" fx="510.055" fy="420.944" gradientTransform="matrix(0.99999999,-1.1951646e-8,1.0414601e-8,0.87139469,-3.1961382e-6,54.135656)" gradientUnits="userSpaceOnUse" xlink:href="#linearGradient3933"/><linearGradient id="linearGradient3830" x1="683" x2="683" y1="86.17" y2="1044.915" gradientUnits="userSpaceOnUse" xlink:href="#linearGradient3824"/><linearGradient id="linearGradient3843" x1="629.427" x2="683" y1="-680.155" y2="564.501" gradientUnits="userSpaceOnUse" xlink:href="#linearGradient3837"/><linearGradient id="linearGradient3899" x1="683" x2="683" y1="86.17" y2="1044.915" gradientUnits="userSpaceOnUse" xlink:href="#linearGradient3824"/><radialGradient id="radialGradient3901" cx="505.307" cy="957.072" r="418.301" fx="505.307" fy="957.072" gradientTransform="matrix(1,0,0,0.17600001,0,788.62724)" gradientUnits="userSpaceOnUse" xlink:href="#linearGradient3950"/><linearGradient id="linearGradient3904" x1="543.189" x2="510.719" y1="520.078" y2="850.64" gradientUnits="userSpaceOnUse" xlink:href="#linearGradient3920"/><linearGradient id="linearGradient3906" x1="524.522" x2="505.859" y1="5.717" y2="268.372" gradientTransform="translate(0,-256)" gradientUnits="userSpaceOnUse" xlink:href="#linearGradient3691"/><linearGradient id="linearGradient3908" x1="413.111" x2="413.111" y1="88.454" y2="267.107" gradientTransform="translate(0,-256)" gradientUnits="userSpaceOnUse" xlink:href="#linearGradient3702"/><linearGradient id="linearGradient3910" x1="617.691" x2="617.691" y1="152.828" y2="240.392" gradientTransform="translate(0,-256)" gradientUnits="userSpaceOnUse" xlink:href="#linearGradient3712"/><linearGradient id="linearGradient3912" x1="1001.075" x2="789.136" y1="595.045" y2="416.349" gradientTransform="translate(2,-258)" gradientUnits="userSpaceOnUse" xlink:href="#linearGradient3873"/><linearGradient id="linearGradient3914" x1="1001.075" x2="789.136" y1="595.045" y2="416.349" gradientTransform="matrix(-1,0,0,1,1015.8039,-256)" gradientUnits="userSpaceOnUse" xlink:href="#linearGradient3873"/><radialGradient id="radialGradient3916" cx="711.484" cy="896.571" r="170.391" fx="711.484" fy="896.571" gradientTransform="matrix(0.82981587,2.5694695e-7,-1.4455765e-7,0.45887766,121.08348,467.6842)" gradientUnits="userSpaceOnUse" xlink:href="#linearGradient3737"/><linearGradient id="linearGradient3918" x1="744.978" x2="744.191" y1="820.14" y2="908.973" gradientUnits="userSpaceOnUse" xlink:href="#linearGradient3689"/><radialGradient id="radialGradient3920" cx="317.484" cy="887.563" r="170.391" fx="317.484" fy="887.563" gradientTransform="matrix(0.88238093,-1.968562e-8,0,0.47198542,37.342211,455.72249)" gradientUnits="userSpaceOnUse" xlink:href="#linearGradient3719"/><linearGradient id="linearGradient3922" x1="744.978" x2="744.191" y1="820.14" y2="908.973" gradientUnits="userSpaceOnUse" xlink:href="#linearGradient3689"/><linearGradient id="linearGradient3924" x1="511.902" x2="531.29" y1="349.212" y2="565.339" gradientUnits="userSpaceOnUse" xlink:href="#linearGradient3768"/><radialGradient id="radialGradient3927" cx="615.181" cy="311.216" r="79.756" fx="615.181" fy="311.216" gradientTransform="matrix(1,0,0,0.93706294,0,19.587002)" gradientUnits="userSpaceOnUse" xlink:href="#linearGradient3992"/><linearGradient id="linearGradient3929" x1="648.666" x2="680.945" y1="215.5" y2="310.897" gradientUnits="userSpaceOnUse" xlink:href="#linearGradient3720"/><linearGradient id="linearGradient3931" x1="614.25" x2="626.25" y1="407.506" y2="309.506" gradientUnits="userSpaceOnUse" xlink:href="#linearGradient4027"/><linearGradient id="linearGradient3934" x1="538.7" x2="524.125" y1="372.843" y2="294.375" gradientUnits="userSpaceOnUse" xlink:href="#linearGradient3897"/><radialGradient id="radialGradient3936" cx="414.954" cy="302.85" r="84.776" fx="414.954" fy="302.85" gradientTransform="matrix(1,0,0,1.1250001,0,-37.856226)" gradientUnits="userSpaceOnUse" xlink:href="#linearGradient3920"/><linearGradient id="linearGradient3938" x1="380.869" x2="363.5" y1="438.343" y2="274.843" gradientUnits="userSpaceOnUse" xlink:href="#linearGradient3781"/><linearGradient id="linearGradient3940" x1="445.512" x2="496.383" y1="364.893" y2="286.252" gradientTransform="matrix(1,0,0,1.0032051,0,-0.81514999)" gradientUnits="userSpaceOnUse" xlink:href="#linearGradient3781"/><radialGradient id="radialGradient3942" cx="510.055" cy="420.944" r="91.056" fx="510.055" fy="420.944" gradientTransform="matrix(0.99999999,-1.1951646e-8,1.0414601e-8,0.87139469,-3.1961382e-6,54.135656)" gradientUnits="userSpaceOnUse" xlink:href="#linearGradient3933"/><linearGradient id="linearGradient3944" x1="629.427" x2="683" y1="-680.155" y2="564.501" gradientUnits="userSpaceOnUse" xlink:href="#linearGradient3837"/><linearGradient id="linearGradient3947" x1="629.427" x2="683" y1="-680.155" y2="564.501" gradientUnits="userSpaceOnUse" xlink:href="#linearGradient3837"/><linearGradient id="linearGradient4000" x1="683" x2="683" y1="86.17" y2="1044.915" gradientUnits="userSpaceOnUse" xlink:href="#linearGradient3824"/><linearGradient id="linearGradient2996" x1="629.427" x2="683" y1="-680.155" y2="564.501" gradientUnits="userSpaceOnUse" xlink:href="#linearGradient3837"/><linearGradient id="linearGradient3049" x1="683" x2="683" y1="86.17" y2="1044.915" gradientUnits="userSpaceOnUse" xlink:href="#linearGradient3824"/><radialGradient id="radialGradient3051" cx="505.307" cy="957.072" r="418.301" fx="505.307" fy="957.072" gradientTransform="matrix(1,0,0,0.17600001,0,788.62724)" gradientUnits="userSpaceOnUse" xlink:href="#linearGradient3950"/><linearGradient id="linearGradient3053" x1="543.189" x2="510.719" y1="520.078" y2="850.64" gradientUnits="userSpaceOnUse" xlink:href="#linearGradient3920"/><linearGradient id="linearGradient3055" x1="524.522" x2="505.859" y1="5.717" y2="268.372" gradientTransform="translate(0,-256)" gradientUnits="userSpaceOnUse" xlink:href="#linearGradient3691"/><linearGradient id="linearGradient3057" x1="413.111" x2="413.111" y1="88.454" y2="267.107" gradientTransform="translate(0,-256)" gradientUnits="userSpaceOnUse" xlink:href="#linearGradient3702"/><linearGradient id="linearGradient3059" x1="617.691" x2="617.691" y1="152.828" y2="240.392" gradientTransform="translate(0,-256)" gradientUnits="userSpaceOnUse" xlink:href="#linearGradient3712"/><linearGradient id="linearGradient3061" x1="1001.075" x2="789.136" y1="595.045" y2="416.349" gradientTransform="translate(2,-258)" gradientUnits="userSpaceOnUse" xlink:href="#linearGradient3873"/><linearGradient id="linearGradient3063" x1="1001.075" x2="789.136" y1="595.045" y2="416.349" gradientTransform="matrix(-1,0,0,1,1015.8039,-256)" gradientUnits="userSpaceOnUse" xlink:href="#linearGradient3873"/><radialGradient id="radialGradient3065" cx="711.484" cy="896.571" r="170.391" fx="711.484" fy="896.571" gradientTransform="matrix(0.82981587,2.5694695e-7,-1.4455765e-7,0.45887766,121.08348,467.6842)" gradientUnits="userSpaceOnUse" xlink:href="#linearGradient3737"/><linearGradient id="linearGradient3067" x1="744.978" x2="744.191" y1="820.14" y2="908.973" gradientUnits="userSpaceOnUse" xlink:href="#linearGradient3689"/><radialGradient id="radialGradient3069" cx="317.484" cy="887.563" r="170.391" fx="317.484" fy="887.563" gradientTransform="matrix(0.88238093,-1.968562e-8,0,0.47198542,37.342211,455.72249)" gradientUnits="userSpaceOnUse" xlink:href="#linearGradient3719"/><linearGradient id="linearGradient3071" x1="744.978" x2="744.191" y1="820.14" y2="908.973" gradientUnits="userSpaceOnUse" xlink:href="#linearGradient3689"/><linearGradient id="linearGradient3073" x1="511.902" x2="531.29" y1="349.212" y2="565.339" gradientUnits="userSpaceOnUse" xlink:href="#linearGradient3768"/><radialGradient id="radialGradient3075" cx="615.181" cy="311.216" r="79.756" fx="615.181" fy="311.216" gradientTransform="matrix(1,0,0,0.93706294,0,19.587002)" gradientUnits="userSpaceOnUse" xlink:href="#linearGradient3992"/><linearGradient id="linearGradient3077" x1="648.666" x2="680.945" y1="215.5" y2="310.897" gradientUnits="userSpaceOnUse" xlink:href="#linearGradient3720"/><linearGradient id="linearGradient3079" x1="614.25" x2="626.25" y1="407.506" y2="309.506" gradientUnits="userSpaceOnUse" xlink:href="#linearGradient4027"/><linearGradient id="linearGradient3081" x1="538.7" x2="524.125" y1="372.843" y2="294.375" gradientUnits="userSpaceOnUse" xlink:href="#linearGradient3897"/><radialGradient id="radialGradient3083" cx="414.954" cy="302.85" r="84.776" fx="414.954" fy="302.85" gradientTransform="matrix(1,0,0,1.1250001,0,-37.856226)" gradientUnits="userSpaceOnUse" xlink:href="#linearGradient3920"/><linearGradient id="linearGradient3085" x1="380.869" x2="363.5" y1="438.343" y2="274.843" gradientUnits="userSpaceOnUse" xlink:href="#linearGradient3781"/><linearGradient id="linearGradient3087" x1="445.512" x2="496.383" y1="364.893" y2="286.252" gradientTransform="matrix(1,0,0,1.0032051,0,-0.81514999)" gradientUnits="userSpaceOnUse" xlink:href="#linearGradient3781"/><radialGradient id="radialGradient3089" cx="510.055" cy="420.944" r="91.056" fx="510.055" fy="420.944" gradientTransform="matrix(0.99999999,-1.1951646e-8,1.0414601e-8,0.87139469,-3.1961382e-6,54.135656)" gradientUnits="userSpaceOnUse" xlink:href="#linearGradient3933"/><linearGradient id="linearGradient3123" x1="1001.075" x2="789.136" y1="595.045" y2="416.349" gradientTransform="matrix(-0.70940195,0,0,0.70940195,1040.3995,30.090451)" gradientUnits="userSpaceOnUse" xlink:href="#linearGradient3873"/><linearGradient id="linearGradient3126" x1="1001.075" x2="789.136" y1="595.045" y2="416.349" gradientTransform="matrix(0.70940195,0,0,0.70940195,321.205,28.671647)" gradientUnits="userSpaceOnUse" xlink:href="#linearGradient3873"/><linearGradient id="linearGradient3129" x1="617.691" x2="617.691" y1="152.828" y2="240.392" gradientTransform="matrix(0.70940195,0,0,0.70940195,319.7862,30.090451)" gradientUnits="userSpaceOnUse" xlink:href="#linearGradient3712"/><linearGradient id="linearGradient3132" x1="413.111" x2="413.111" y1="88.454" y2="267.107" gradientTransform="matrix(0.70940195,0,0,0.70940195,319.7862,30.090451)" gradientUnits="userSpaceOnUse" xlink:href="#linearGradient3702"/><linearGradient id="linearGradient3135" x1="524.522" x2="505.859" y1="5.717" y2="268.372" gradientTransform="matrix(0.70940195,0,0,0.70940195,319.7862,30.090451)" gradientUnits="userSpaceOnUse" xlink:href="#linearGradient3691"/><linearGradient id="linearGradient3205" x1="524.522" x2="505.859" y1="5.717" y2="268.372" gradientTransform="matrix(0.70940195,0,0,0.70940195,319.7862,30.090451)" gradientUnits="userSpaceOnUse" xlink:href="#linearGradient3691"/><linearGradient id="linearGradient3207" x1="413.111" x2="413.111" y1="88.454" y2="267.107" gradientTransform="matrix(0.70940195,0,0,0.70940195,319.7862,30.090451)" gradientUnits="userSpaceOnUse" xlink:href="#linearGradient3702"/><linearGradient id="linearGradient3209" x1="617.691" x2="617.691" y1="152.828" y2="240.392" gradientTransform="matrix(0.70940195,0,0,0.70940195,319.7862,30.090451)" gradientUnits="userSpaceOnUse" xlink:href="#linearGradient3712"/><linearGradient id="linearGradient3211" x1="1001.075" x2="789.136" y1="595.045" y2="416.349" gradientTransform="matrix(0.70940195,0,0,0.70940195,321.205,28.671647)" gradientUnits="userSpaceOnUse" xlink:href="#linearGradient3873"/><linearGradient id="linearGradient3213" x1="1001.075" x2="789.136" y1="595.045" y2="416.349" gradientTransform="matrix(-0.70940195,0,0,0.70940195,1040.3995,30.090451)" gradientUnits="userSpaceOnUse" xlink:href="#linearGradient3873"/><filter id="filter4362" width="1.242" height="1.159" x="-.121" y="-.079" color-interpolation-filters="sRGB"><feGaussianBlur id="feGaussianBlur4364" stdDeviation="21.142"/></filter><filter id="filter4412" color-interpolation-filters="sRGB"><feGaussianBlur id="feGaussianBlur4414" stdDeviation="9.571"/></filter><radialGradient id="radialGradient4085" cx="294.331" cy="971.035" r="341.19" fx="294.331" fy="971.035" gradientTransform="matrix(1,0,0,0.22317597,0,754.3233)" gradientUnits="userSpaceOnUse" xlink:href="#linearGradient4456"/><radialGradient id="radialGradient4091" cx="615.181" cy="311.216" r="79.756" fx="615.181" fy="311.216" gradientTransform="matrix(1,0,0,0.93706294,0,19.587002)" gradientUnits="userSpaceOnUse" xlink:href="#linearGradient3992"/><linearGradient id="linearGradient4093" x1="648.666" x2="680.945" y1="215.5" y2="310.897" gradientUnits="userSpaceOnUse" xlink:href="#linearGradient3720"/><linearGradient id="linearGradient4095" x1="614.25" x2="626.25" y1="407.506" y2="309.506" gradientUnits="userSpaceOnUse" xlink:href="#linearGradient4027"/><linearGradient id="linearGradient4097" x1="538.7" x2="524.125" y1="372.843" y2="294.375" gradientUnits="userSpaceOnUse" xlink:href="#linearGradient3897"/><radialGradient id="radialGradient4099" cx="414.954" cy="302.85" r="84.776" fx="414.954" fy="302.85" gradientTransform="matrix(1,0,0,1.1250001,0,-37.856226)" gradientUnits="userSpaceOnUse" xlink:href="#linearGradient3920"/><linearGradient id="linearGradient4101" x1="380.869" x2="363.5" y1="438.343" y2="274.843" gradientTransform="matrix(1.40164,0,0,1.40164,-467.92461,-72.902685)" gradientUnits="userSpaceOnUse" xlink:href="#linearGradient3781"/><linearGradient id="linearGradient4103" x1="445.512" x2="496.383" y1="364.893" y2="286.252" gradientTransform="matrix(1,0,0,1.0032051,0,-0.81514999)" gradientUnits="userSpaceOnUse" xlink:href="#linearGradient3781"/><linearGradient id="linearGradient4203" x1="-62.966" x2="285.545" y1="1026.68" y2="692.812" gradientUnits="userSpaceOnUse" xlink:href="#linearGradient4442"/><linearGradient id="linearGradient4205" x1="-62.966" x2="285.545" y1="1026.68" y2="692.812" gradientUnits="userSpaceOnUse" xlink:href="#linearGradient4442"/><radialGradient id="radialGradient4309" cx="294.331" cy="971.035" r="341.19" fx="294.331" fy="971.035" gradientTransform="matrix(1,0,0,0.22317597,0,754.3233)" gradientUnits="userSpaceOnUse" xlink:href="#linearGradient4456"/><linearGradient id="linearGradient4311" x1="-62.966" x2="285.545" y1="1026.68" y2="692.812" gradientUnits="userSpaceOnUse" xlink:href="#linearGradient4442"/><linearGradient id="linearGradient4313" x1="-62.966" x2="285.545" y1="1026.68" y2="692.812" gradientUnits="userSpaceOnUse" xlink:href="#linearGradient4442"/><radialGradient id="radialGradient4315" cx="615.181" cy="311.216" r="79.756" fx="615.181" fy="311.216" gradientTransform="matrix(1,0,0,0.93706294,0,19.587002)" gradientUnits="userSpaceOnUse" xlink:href="#linearGradient3992"/><linearGradient id="linearGradient4317" x1="648.666" x2="680.945" y1="215.5" y2="310.897" gradientUnits="userSpaceOnUse" xlink:href="#linearGradient3720"/><linearGradient id="linearGradient4319" x1="614.25" x2="626.25" y1="407.506" y2="309.506" gradientUnits="userSpaceOnUse" xlink:href="#linearGradient4027"/><linearGradient id="linearGradient4321" x1="538.7" x2="524.125" y1="372.843" y2="294.375" gradientUnits="userSpaceOnUse" xlink:href="#linearGradient3897"/><radialGradient id="radialGradient4323" cx="414.954" cy="302.85" r="84.776" fx="414.954" fy="302.85" gradientTransform="matrix(1,0,0,1.1250001,0,-37.856226)" gradientUnits="userSpaceOnUse" xlink:href="#linearGradient3920"/><linearGradient id="linearGradient4325" x1="380.869" x2="363.5" y1="438.343" y2="274.843" gradientTransform="matrix(1.40164,0,0,1.40164,-467.92461,-72.902685)" gradientUnits="userSpaceOnUse" xlink:href="#linearGradient3781"/><linearGradient id="linearGradient4327" x1="445.512" x2="496.383" y1="364.893" y2="286.252" gradientTransform="matrix(1,0,0,1.0032051,0,-0.81514999)" gradientUnits="userSpaceOnUse" xlink:href="#linearGradient3781"/><linearGradient id="linearGradient3093" x1="-62.966" x2="285.545" y1="1026.68" y2="692.812" gradientUnits="userSpaceOnUse" xlink:href="#linearGradient4442"/><linearGradient id="linearGradient3095" x1="-62.966" x2="285.545" y1="1026.68" y2="692.812" gradientUnits="userSpaceOnUse" xlink:href="#linearGradient4442"/><radialGradient id="radialGradient3183" cx="294.331" cy="971.035" r="341.19" fx="294.331" fy="971.035" gradientTransform="matrix(1,0,0,0.22317597,0,754.3233)" gradientUnits="userSpaceOnUse" xlink:href="#linearGradient4456"/><radialGradient id="radialGradient3185" cx="615.181" cy="311.216" r="79.756" fx="615.181" fy="311.216" gradientTransform="matrix(1,0,0,0.93706294,0,19.587002)" gradientUnits="userSpaceOnUse" xlink:href="#linearGradient3992"/><linearGradient id="linearGradient3187" x1="648.666" x2="680.945" y1="215.5" y2="310.897" gradientUnits="userSpaceOnUse" xlink:href="#linearGradient3720"/><linearGradient id="linearGradient3189" x1="614.25" x2="626.25" y1="407.506" y2="309.506" gradientUnits="userSpaceOnUse" xlink:href="#linearGradient4027"/><linearGradient id="linearGradient3191" x1="538.7" x2="524.125" y1="372.843" y2="294.375" gradientUnits="userSpaceOnUse" xlink:href="#linearGradient3897"/><radialGradient id="radialGradient3193" cx="414.954" cy="302.85" r="84.776" fx="414.954" fy="302.85" gradientTransform="matrix(1,0,0,1.1250001,0,-37.856226)" gradientUnits="userSpaceOnUse" xlink:href="#linearGradient3920"/><linearGradient id="linearGradient3195" x1="380.869" x2="363.5" y1="438.343" y2="274.843" gradientTransform="matrix(0.37457876,0,0,0.37457876,-581.92563,85.601243)" gradientUnits="userSpaceOnUse" xlink:href="#linearGradient3781"/><linearGradient id="linearGradient3197" x1="445.512" x2="496.383" y1="364.893" y2="286.252" gradientTransform="matrix(1,0,0,1.0032051,0,-0.81514999)" gradientUnits="userSpaceOnUse" xlink:href="#linearGradient3781"/><linearGradient id="linearGradient3276" x1="-62.966" x2="285.545" y1="1026.68" y2="692.812" gradientUnits="userSpaceOnUse" xlink:href="#linearGradient4442"/><linearGradient id="linearGradient3992-9"><stop id="stop3994-3" offset="0" stop-color="#e3e3e3" stop-opacity="1"/><stop id="stop3996-6" offset=".769" stop-color="#e3e3e3" stop-opacity="1"/><stop id="stop3998-8" offset="1" stop-color="#acacac" stop-opacity="1"/></linearGradient><linearGradient id="linearGradient3720-5"><stop id="stop3722-0" offset="0" stop-color="#fff" stop-opacity="1"/><stop id="stop3724-1" offset="1" stop-color="#fff" stop-opacity="0"/></linearGradient><linearGradient id="linearGradient4027-4"><stop id="stop4029-8" offset="0" stop-color="#fff" stop-opacity="1"/><stop id="stop4031-8" offset="1" stop-color="#fff" stop-opacity="0"/></linearGradient><linearGradient id="linearGradient3897-1"><stop id="stop3899-0" offset="0" stop-color="#fff" stop-opacity="1"/><stop id="stop3901-1" offset="1" stop-color="#fff" stop-opacity="0"/></linearGradient><linearGradient id="linearGradient3920-3"><stop id="stop3922-7" offset="0" stop-color="#fff" stop-opacity="1"/><stop id="stop3924-9" offset="1" stop-color="#acacac" stop-opacity="1"/></linearGradient><linearGradient id="linearGradient3781-7"><stop id="stop3783-8" offset="0" stop-color="#fff" stop-opacity="1"/><stop id="stop3785-9" offset="1" stop-color="#fff" stop-opacity="0"/></linearGradient><radialGradient id="radialGradient4554" cx="294.331" cy="971.035" r="341.19" fx="294.331" fy="971.035" gradientTransform="matrix(0.0657946,0,0,0.00337502,5.4397639,42.907403)" gradientUnits="userSpaceOnUse" xlink:href="#linearGradient4456"/><radialGradient id="radialGradient4556" cx="615.181" cy="311.216" r="79.756" fx="615.181" fy="311.216" gradientTransform="matrix(1,0,0,0.93706294,0,19.587002)" gradientUnits="userSpaceOnUse" xlink:href="#linearGradient3992-9"/><linearGradient id="linearGradient4558" x1="648.666" x2="680.945" y1="215.5" y2="310.897" gradientUnits="userSpaceOnUse" xlink:href="#linearGradient3720-5"/><linearGradient id="linearGradient4560" x1="614.25" x2="626.25" y1="407.506" y2="309.506" gradientUnits="userSpaceOnUse" xlink:href="#linearGradient4027-4"/><linearGradient id="linearGradient4562" x1="538.7" x2="524.125" y1="372.843" y2="294.375" gradientUnits="userSpaceOnUse" xlink:href="#linearGradient3897-1"/><radialGradient id="radialGradient4564" cx="414.954" cy="302.85" r="84.776" fx="414.954" fy="302.85" gradientTransform="matrix(1,0,0,1.1250001,0,-37.856226)" gradientUnits="userSpaceOnUse" xlink:href="#linearGradient3920-3"/><linearGradient id="linearGradient4566" x1="380.869" x2="363.5" y1="438.343" y2="274.843" gradientTransform="matrix(0.0774559,0,0,0.05391899,-18.183872,2.8636419)" gradientUnits="userSpaceOnUse" xlink:href="#linearGradient3781-7"/><linearGradient id="linearGradient4568" x1="445.512" x2="496.383" y1="364.893" y2="286.252" gradientTransform="matrix(1,0,0,1.0032051,0,-0.81514999)" gradientUnits="userSpaceOnUse" xlink:href="#linearGradient3781-7"/></defs><path id="path4454" fill="url(#radialGradient4554)" fill-opacity="1" stroke="none" d="m 47.253607,46.184666 a 22.448446,1.1515225 0 1 1 -44.8968907,0 22.448446,1.1515225 0 1 1 44.8968907,0 z"/><path id="path4440" fill="url(#linearGradient3276)" fill-opacity="1" stroke="none" d="m 31,658.5625 0,202.34375 c 0,42.27901 33.627239,75.90625 75.90625,75.90625 l 253.8125,0 C 275.04052,925.31617 202.10868,905.14728 144.25,857.6875 92.869413,815.54152 55.077911,752.66886 31,658.5625 z" opacity=".71" transform="matrix(0.17466047,0,0,0.17466047,51.346364,52.35794)"/><g id="g4516" transform="matrix(0.83911768,0,0,0.8197607,-127.77233,34.461486)"><rect id="rect3241" width="33.788" height="35.874" x="164.479" y="-23.175" fill="#bebebe" fill-opacity="1" stroke="none" ry="4.341"/><rect id="rect4242" width="418.614" height="638.474" x="33.464" y="51.04" fill="#0055d4" fill-opacity="1" stroke="none" filter="url(#filter4362)" ry="77.268" transform="matrix(0.06958827,0,0,0.04844213,163.29593,-22.583388)"/><g id="g4465" transform="translate(159.32856,-40.226519)"><rect id="rect4368" width="24.611" height="14.701" x="9.739" y=".912" fill="#999" fill-opacity="1" stroke="none" ry=".539"/><rect id="rect4374" width="294.34" height="252.562" x="95.601" y="-185.464" fill="#ccc" fill-opacity="1" stroke="none" filter="url(#filter4412)" ry="16.918" transform="matrix(0.07403936,0,0,0.05154065,4.069899,11.312438)"/><path id="path4420" fill="none" stroke="#000" stroke-linecap="butt" stroke-linejoin="miter" stroke-opacity="1" stroke-width=".058" d="m 22.011251,11.429034 0,-1.354291 C 21.251929,10.442365 20.774494,10.245431 20.894406,9.2591486 20.886942,8.7198461 20.55427,7.8934109 21.867143,8.5198163 L 21.831115,3.7045576 C 20.812769,4.5087485 20.730199,4.1765667 20.62862,3.2558299 20.537121,2.2595588 20.796386,1.9835448 21.939196,2.5759813 l 0,-1.64281348"/><rect id="rect4416" width="5.478" height="3.316" x="13.984" y="4.559" fill="#4d4d4d" fill-opacity="1" stroke="none" ry=".872"/><rect id="rect4418" width="5.478" height="3.316" x="24.919" y="4.559" fill="#4d4d4d" fill-opacity="1" stroke="none" ry=".872"/></g><path id="rect3241-9" fill="#04a" fill-opacity="1" stroke="none" d="m 168.26957,-24.952684 25.49953,0 c 2.29592,0 4.14426,1.848337 4.14426,4.144253 l 0,28.9658211 c 0,2.2959159 -1.84852,4.1153079 -4.14426,4.1442519 l -15.64009,0.197189 C 167.54769,12.632239 164.12532,1.9741871 164.12532,-3.4767499 l 0,-17.3316811 c 0,-2.295916 1.84833,-4.144253 4.14425,-4.144253 z"/><path id="path4366" fill="#000" fill-opacity="1" stroke="none" d="m 267.82559,396.09146 a 25.007811,39.528477 0 1 1 -50.01562,0 25.007811,39.528477 0 1 1 50.01562,0 z" transform="matrix(0.20614055,0,0,0.03284572,136.92971,-15.588841)"/><path id="path3404-3" fill="#bebebe" fill-opacity="1" stroke="none" d="m 120.28519,-41.129347 16.98321,3.90808 17.2092,-2.747062 -11.87611,12.753857 -6.22557,16.277131 -5.10711,-16.661937 z" transform="matrix(0.081295,0,0,0.11631549,173.81463,2.0486761)"/><path id="path3404-3-4" fill="#bebebe" fill-opacity="1" stroke="none" d="m 120.28519,-41.129347 16.98321,3.90808 17.2092,-2.747062 -11.87611,12.753857 -6.22557,16.277131 -5.10711,-16.661937 z" transform="matrix(0.081295,0,0,0.11631549,178.13707,1.9092431)"/><g id="g4267" transform="translate(160.55413,-35.231376)"><g id="g4130" transform="matrix(0.0774559,0,0,0.05391899,-18.183872,2.8636419)"><path id="path4132" fill="url(#radialGradient4556)" fill-opacity="1" stroke="none" d="m 694.93684,311.2157 a 79.75599,74.736383 0 1 1 -159.51198,0 79.75599,74.736383 0 1 1 159.51198,0 z" transform="matrix(1.2622377,0,0,1.1967459,-165.50666,-74.413065)"/><path id="path4134" fill="url(#linearGradient4558)" fill-opacity="1" stroke="none" d="m 595.75,215.5 c 35.86817,29.08279 56.32994,37.44412 64.75,122.75 L 695.75,321 c 7.06843,-30.13997 10.47846,-36.49767 -6.25,-67 -17.13889,-18.54063 -31.51588,-28.13799 -44.4615,-33.10043 -18.00513,-6.9019 -33.24141,-4.838 -49.2885,-5.39957 z" opacity=".69"/><path id="path4136" fill="url(#linearGradient4560)" fill-opacity="1" stroke="none" d="m 520.75,338.75 c 52.43376,35.98598 124.91235,45.0253 187,-18.75 -13.9076,43.29998 -47.38001,68.66554 -109.25,68 -25.41384,-6.58962 -48.96355,-14.44011 -67.8268,-35.5866 L 520.75,338.75 z" opacity=".639"/></g><g id="g4138" transform="matrix(0.0774559,0,0,0.05391899,-17.319393,2.1354431)"><path id="path4140" fill="#000" fill-opacity="1" stroke="none" d="m 550.48366,301.17648 a 11.991285,27.328976 0 1 1 -23.98257,0 11.991285,27.328976 0 1 1 23.98257,0 z" transform="matrix(2.1395348,0,0,1.4081633,-610.28445,-124.60238)"/><path id="path4142" fill="#fff" fill-opacity="1" stroke="none" d="m 540.72331,266.03921 1.39434,32.90632 22.0305,-9.20261 C 559.87351,276.1335 553.6054,265.74429 540.72331,266.03921 z" opacity=".669"/><path id="path4144" fill="url(#linearGradient4562)" fill-opacity="1" stroke="none" d="m 519.625,294.375 c 7.64161,20.3981 18.1256,31.08477 29.75,37.875 -8.39793,3.75055 -14.06522,-0.008 -19.875,-3.375 -10.06853,-11.87649 -11.76102,-23.28765 -9.875,-34.5 z"/></g></g><g id="g4378" transform="translate(157.98739,-34.604443)"><path id="path4146" fill="url(#radialGradient4564)" fill-opacity="1" stroke="none" d="m 499.72985,302.84967 a 84.775597,95.372551 0 1 1 -169.55119,0 84.775597,95.372551 0 1 1 169.55119,0 z" transform="matrix(0.09019537,0,0,0.07000009,-23.465691,-2.8786157)"/><path id="path4148" fill="#fff" stroke="none" d="m 9.3129723,13.701358 c 4.3643167,0.447122 6.6770957,2.1439 7.6681347,5.041426 1.071472,0.296554 2.142945,0.593108 3.214418,0.889663 0.309824,-0.638042 0.619647,-1.276084 0.929472,-1.914124 0.223478,-3.981118 -7.109912,-7.8949045 -11.8120247,-4.016965 z" opacity=".886"/><path id="path4150" fill="url(#linearGradient4566)" fill-opacity="1" stroke="none" d="M 15.025344,24.282959 C 13.996286,23.919896 13.044683,23.562885 12.336548,23.153846 8.5757988,20.981529 8.5599759,19.094442 7.8413095,17.165653 c -0.4689553,1.338879 -1.1686972,2.604732 0,4.461796 0.6844586,0.965146 2.4289155,3.211534 6.7192995,3.032944 l 0.871379,-0.188717 -0.406644,-0.188717 z" opacity=".97"/><g id="g4152" transform="matrix(0.0774559,0,0,0.05391899,-19.323882,2.0623218)"><path id="path4154" fill="#000" fill-opacity="1" stroke="none" d="m 507.53814,302.5708 a 20.915035,33.185187 0 1 1 -41.83007,0 20.915035,33.185187 0 1 1 41.83007,0 z" transform="matrix(1.4666667,0,0,1.315126,-229.60058,-99.949251)"/><path id="path4156" fill="url(#linearGradient4568)" fill-opacity="1" stroke="none" d="m 461.80392,276.4279 c -0.95798,12.17677 1.2428,23.42724 6.27858,34.53351 5.41095,13.25376 15.91688,18.85031 28.30097,23.65675 -13.68282,5.51925 -22.05827,1.19858 -29.76637,-5.86508 -4.76045,-4.36243 -8.90234,-12.72301 -10.0457,-20.14254 -1.63824,-10.63097 -0.81427,-21.64347 5.0345,-31.87411 l 0.19802,-0.30853 0,0 z" opacity=".886"/><path id="path4158" fill="#fff" fill-opacity="1" stroke="none" d="m 481.72331,259.28921 c 3.39317,8.19532 5.82077,18.32179 5.89434,33.15632 l 22.0305,-9.20261 c -4.27464,-14.0287 -15.04275,-25.12677 -27.92484,-23.95371 z" opacity=".527"/></g></g><path id="path4472" fill="none" stroke="none" d="m 203.49886,3.4353268 -19.26308,-12.1389099 -22.40974,-4.0277959 20.14415,-10.612863 14.69304,-17.393504 -0.88107,22.751773 z"/><path id="path4476" fill="none" stroke="#fff" stroke-linecap="butt" stroke-linejoin="miter" stroke-opacity="1" stroke-width="1" d="m -89.918098,-6.4241138 c 0.177961,-0.2372817 0.40765,0.1228216 0.394377,0.2957831 -0.03597,0.4687149 -0.607443,0.6248772 -0.985944,0.4929725 -0.677048,-0.2359465 -0.87185,-1.0719846 -0.591567,-1.6761046 0.411327,-0.8865704 1.542422,-1.1250186 2.366266,-0.6901621 1.098054,0.5795952 1.380759,2.0148976 0.788757,3.0564263 -0.744975,1.3106575 -2.488333,1.6378163 -3.746588,0.8873516 -1.523914,-0.9089133 -1.895633,-2.9623058 -0.985946,-4.436748 1.072035,-1.737579 3.436613,-2.153928 5.126909,-1.0845411 1.951513,1.234649 2.41254,3.9111445 1.183136,5.8170696 -1.396927,2.1656333 -4.385833,2.6713745 -6.507231,1.2817307 -2.379888,-1.5589703 -2.930371,-4.8606353 -1.380325,-7.1973913 1.720844,-2.5942419 5.335524,-3.1894879 7.887552,-1.4789199" transform="matrix(0.52334983,0,0,0.26542327,238.68972,9.7099917)"/><path id="path4478" fill="none" stroke="#fff" stroke-linecap="butt" stroke-linejoin="miter" stroke-opacity="1" stroke-width="1" d="m 168.79363,-2.0859599 c 2.36626,5.9156646 8.28193,11.0425739 8.28193,11.0425739 l 0.39438,0"/><path id="path4482" fill="none" stroke="#fff" stroke-linecap="butt" stroke-linejoin="miter" stroke-opacity="1" stroke-width="1" d="m 167.6105,1.8578165 3.94377,-3.5493987 0.39438,0.3943776"/><path id="path4482-4" fill="none" stroke="#fff" stroke-linecap="butt" stroke-linejoin="miter" stroke-opacity="1" stroke-width="1" d="m 169.96165,4.5982289 3.94377,-3.5493987 0.39438,0.3943776"/><path id="path4482-9" fill="none" stroke="#fff" stroke-linecap="butt" stroke-linejoin="miter" stroke-opacity="1" stroke-width="1" d="m 172.33201,7.5263334 3.94377,-3.5493987 0.39438,0.3943776"/><path id="path4482-6" fill="none" stroke="#fff" stroke-linecap="butt" stroke-linejoin="miter" stroke-opacity="1" stroke-width="1" d="m 174.3538,9.5481199 3.94377,-3.5493987 0.39438,0.3943776"/></g></svg>