<svg xmlns="http://www.w3.org/2000/svg" xmlns:svg="http://www.w3.org/2000/svg" id="svg2" width="48" height="48" version="1.0"><defs id="defs4"><filter id="filter3290" width="1.327" height="1.28" x="-.163" y="-.14" color-interpolation-filters="sRGB"><feGaussianBlur id="feGaussianBlur3292" stdDeviation=".229"/></filter><filter id="filter3503" color-interpolation-filters="sRGB"><feGaussianBlur id="feGaussianBlur3505" stdDeviation=".631"/></filter><filter id="filter3513" color-interpolation-filters="sRGB"><feGaussianBlur id="feGaussianBlur3515" stdDeviation="1.248"/></filter><filter id="filter3871" width="1.146" height="1.303" x="-.073" y="-.152" color-interpolation-filters="sRGB"><feGaussianBlur id="feGaussianBlur3873" stdDeviation="8.936"/></filter><filter id="filter3429-6" width="1.367" height="1.566" x="-.183" y="-.283" color-interpolation-filters="sRGB"><feGaussianBlur id="feGaussianBlur3431-1" stdDeviation="1.259"/></filter><filter id="filter3425-9" width="1.327" height="1.418" x="-.163" y="-.209" color-interpolation-filters="sRGB"><feGaussianBlur id="feGaussianBlur3427-5" stdDeviation="1.259"/></filter><filter id="filter3459-4" color-interpolation-filters="sRGB"><feGaussianBlur id="feGaussianBlur3461-1" stdDeviation=".446"/></filter></defs><metadata id="metadata7"/><g id="g3090" transform="matrix(0.16579234,0,0,0.23242399,-0.78218367,-1.8954133)"><g id="g3958" transform="matrix(0.93240539,0,0,0.71885095,-196.23108,-204.97294)"><path id="path2402" fill="#0055d4" fill-opacity="1" fill-rule="evenodd" stroke="none" d="m 365.653,512.65804 -138.57143,-112.5 4.28572,43.21429 135.35714,121.42856 -1.07143,-52.14285 z"/><path id="path2404" fill="#0055d4" fill-opacity="1" fill-rule="evenodd" stroke="none" d="m 364.64285,563.79075 0,-52.5 2.14286,-0.35715 0,-2.14285 0,-1.42857 14.28571,-3.57143 c 0.98961,0.83673 2.64361,1.11415 3.80231,0.56635 1.51228,-0.851 1.69734,-1.92368 1.91198,-3.4235 l 117.85714,-38.57142 c 1.4801,0.74981 2.78519,0.97458 3.92858,0.71428 1.37194,-0.59331 2.13726,-1.59103 2.5,-2.85714 l 9.64285,-2.85714 -6.42857,48.57142 -149.64286,57.85715 z"/><path id="path2406" fill="#8a0b04" fill-opacity="1" fill-rule="nonzero" stroke="#929292" stroke-dasharray="none" stroke-linecap="butt" stroke-linejoin="round" stroke-miterlimit="4" stroke-opacity="1" stroke-width=".618" d="m 395.22218,406.24335 a 1.38896,1.6414981 0 1 1 -2.77792,0 1.38896,1.6414981 0 1 1 2.77792,0 z" filter="url(#filter3290)" transform="matrix(5.3187032,0,0,3.8688166,-1704.9176,-1036.1631)"/><path id="path3465" fill="none" stroke="#3e3e3e" stroke-dasharray="none" stroke-linecap="butt" stroke-linejoin="miter" stroke-miterlimit="4" stroke-opacity="1" stroke-width="1.7" d="M 227.14285,399.50504 364.28571,511.29075" filter="url(#filter3503)"/><path id="path3507" fill="none" stroke="#3e3e3e" stroke-dasharray="none" stroke-linecap="butt" stroke-linejoin="miter" stroke-miterlimit="4" stroke-opacity="1" stroke-width="2" d="M 230,442.36218 365.35714,563.43361 514.28571,505.21932" filter="url(#filter3513)"/><g id="g3947" transform="translate(162.12948,200.0102)"><g id="g3937"><g id="g3879" transform="translate(10.714286,64.285714)"><g id="g3875"><path id="path3314" fill="#04a" fill-opacity="1" fill-rule="evenodd" stroke="none" d="M 192.14285,247.00504 53.392857,134.41575 l 0.90517,-0.12007 0.34483,-0.86207 12.5,-2.85714 c 0.38606,0.4392 0.82256,0.86578 2.14285,1.07142 2.05903,-0.53131 1.45953,-1.39494 1.78572,-2.14285 l 96.428563,-20.35715 c 1.90476,0.86494 3.80952,1.15517 5.71428,0.35715 l 0.71429,-2.14286 9.64286,-1.42857 164.28571,86.78571 -4.28571,7.5 -135.35715,47.14286 -16.07142,-0.35714 z"/><path id="path3314-5" fill="#0055d4" fill-opacity="1" fill-rule="evenodd" stroke="none" d="m 288.66071,347.71934 -138.75,-112.58929 0.90517,-0.12007 0.34483,-0.86207 12.5,-2.85714 c 0.38606,0.4392 0.82256,0.86578 2.14285,1.07142 2.05903,-0.53131 1.45953,-1.39494 1.78572,-2.14285 l 96.42857,-20.35715 c 1.90476,0.86494 3.80952,1.15517 5.71428,0.35715 l 0.71429,-2.14286 9.64286,-1.42857 164.28571,86.78571 -4.28571,7.5 -135.35715,47.14286 -16.07142,-0.35714 z" filter="url(#filter3871)" transform="matrix(0.8644925,0,0,0.84499042,-56.163487,-59.149057)"/></g></g><path id="path3316" fill="none" stroke="#4c4c4c" stroke-dasharray="none" stroke-linecap="butt" stroke-linejoin="miter" stroke-miterlimit="4" stroke-opacity="1" stroke-width="2.6" d="m 77.9422,196.1236 15.89286,11.875" filter="url(#filter3425-9)"/><path id="path3375" fill="none" stroke="#4c4c4c" stroke-dasharray="none" stroke-linecap="butt" stroke-linejoin="miter" stroke-miterlimit="4" stroke-opacity="1" stroke-width="2.6" d="m 180.21187,174.47477 13.87256,8.08693" filter="url(#filter3429-6)"/><path id="path3433" fill="#b3b3b3" fill-opacity="1" fill-rule="evenodd" stroke="#5b5b5b" stroke-dasharray="none" stroke-linecap="butt" stroke-linejoin="miter" stroke-miterlimit="4" stroke-opacity="1" stroke-width="1.6" d="m 192.32518,286.35202 23.35978,17.67767 c 0,0 2.39911,0.50508 2.90419,-0.75761 0.50507,-1.26269 0.12627,-2.02031 0.12627,-2.02031 L 196.7446,285.08933" filter="url(#filter3459-4)"/><path id="path3463" fill="#b3b3b3" fill-opacity="1" fill-rule="evenodd" stroke="#5b5b5b" stroke-dasharray="none" stroke-linecap="butt" stroke-linejoin="miter" stroke-miterlimit="4" stroke-opacity="1" stroke-width="1.6" d="m 315.20455,247.54978 26.1377,15.40483 c 0,0 2.39911,0.50508 2.90419,-0.75761 0.50507,-1.26269 0.12627,-2.02031 0.12627,-2.02031 l -24.74874,-13.8896" filter="url(#filter3459-4)"/></g></g></g><g id="g3078"><path id="path3975-4" fill="#bebebe" fill-opacity="1" stroke="none" d="m 111.12805,48.735202 a 35.947074,28.782186 0 0 1 -71.894147,0 35.947074,28.782186 0 1 1 71.894147,0 z"/><path id="path3975" fill="#0055d4" fill-opacity="1" stroke="#bebebe" stroke-dasharray="none" stroke-miterlimit="4" stroke-opacity="1" stroke-width="5.867" d="m 108.45337,48.61473 a 29.868471,25.904556 0 0 1 -59.736941,0 29.868471,25.904556 0 1 1 59.736941,0 z"/><g id="g4089" transform="matrix(2.1434825,0,0,1.8816297,-752.32677,-865.46692)"><rect id="rect1933" width="2.619" height="4.323" x="-485.523" y="391.191" fill="#fff" fill-opacity="1" fill-rule="nonzero" stroke="none" transform="matrix(0,-1,1,0,0,0)"/><path id="path4602" fill="#fff" fill-opacity="1" fill-rule="nonzero" stroke="none" d="m 381.7079,485.34336 a 2.1008677,1.2759408 0 0 1 0,2.55188 2.1008677,1.2759408 0 1 1 0,-2.55188 z"/><path id="path2766" fill="none" stroke="#fff" stroke-dasharray="none" stroke-linecap="round" stroke-linejoin="round" stroke-miterlimit="4" stroke-opacity="1" stroke-width=".735" d="m 387.18176,491.96309 c -0.36359,-1.29443 -5.61691,-1.94748 -5.61691,-2.69846 0,-0.50777 0.0702,-0.7299 0.0702,-1.376"/><path id="path3653" fill="none" stroke="#fff" stroke-dasharray="none" stroke-linecap="butt" stroke-linejoin="round" stroke-miterlimit="4" stroke-opacity="1" stroke-width=".78" d="m 387.53115,489.87716 c 0,-1.52177 3.73471,-1.88017 5.58601,-3.00583 0.28274,-0.19073 0.0989,-1.91096 0.0989,-2.02092"/><path id="path5436" fill="none" stroke="#fff" stroke-dasharray="none" stroke-linecap="butt" stroke-linejoin="miter" stroke-miterlimit="4" stroke-opacity="1" stroke-width=".946" d="m 387.42209,493.09625 0,-16.5865" display="inline"/><path id="path4608" fill="#fff" fill-opacity="1" fill-rule="evenodd" stroke="none" d="m 384.9838,479.35775 c 0,0 2.40717,-3.50757 2.46636,-3.45482 0.0592,0.0527 2.38745,3.45482 2.38745,3.45482 l -4.85381,0 z"/><path id="path2830" fill="#fff" fill-opacity="1" fill-rule="nonzero" stroke="none" d="m 387.50455,492.23043 a 3.1571812,1.917482 0 0 1 0,3.83496 3.1571812,1.917482 0 1 1 0,-3.83496 z"/></g></g></g></svg>