<svg xmlns="http://www.w3.org/2000/svg" xmlns:svg="http://www.w3.org/2000/svg" id="svg2" width="18" height="30" version="1.1"><metadata id="metadata7"/><g id="layer1" transform="translate(0,-1022.3622)"><rect id="rect4266" width="17.108" height="3.219" x="-19.015" y="-1042.531" fill="#000" fill-opacity="1" stroke="#bebebe" stroke-dasharray="none" stroke-miterlimit="4" stroke-opacity="1" stroke-width=".675" ry="1.509" transform="matrix(-0.99999912,-0.00132476,0.00132476,-0.99999912,0,0)"/><rect id="rect4266-1" width="17.108" height="3.219" x="-18.984" y="-1037.323" fill="#000" fill-opacity="1" stroke="#bebebe" stroke-dasharray="none" stroke-miterlimit="4" stroke-opacity="1" stroke-width=".675" ry="1.509" transform="matrix(-0.99999912,-0.00132476,0.00132476,-0.99999912,0,0)"/><rect id="rect4266-7" width="17.108" height="3.219" x="-19.036" y="-1032.225" fill="#000" fill-opacity="1" stroke="#bebebe" stroke-dasharray="none" stroke-miterlimit="4" stroke-opacity="1" stroke-width=".675" ry="1.509" transform="matrix(-0.99999912,-0.00132476,0.00132476,-0.99999912,0,0)"/><rect id="rect4266-4" width="17.108" height="3.219" x="-18.905" y="-1026.629" fill="#000" fill-opacity="1" stroke="#bebebe" stroke-dasharray="none" stroke-miterlimit="4" stroke-opacity="1" stroke-width=".675" ry="1.509" transform="matrix(-0.99999912,-0.00132476,0.00132476,-0.99999912,0,0)"/><path id="path4318" fill="#000" fill-opacity="1" stroke="#bebebe" stroke-dasharray="none" stroke-dashoffset="0" stroke-miterlimit="4" stroke-opacity="1" stroke-width=".675" d="M 14.464286,4.1071428 8.1916501,4.0679364 1.9190143,4.0287301 5.0892858,-1.3839286 8.2595574,-6.7965874 11.361922,-1.3447224 z" transform="matrix(-1.1276732,-0.00149389,9.0103004e-4,-0.68014757,18.357139,1047.4388)"/></g></svg>