<svg xmlns="http://www.w3.org/2000/svg" xmlns:svg="http://www.w3.org/2000/svg" xmlns:xlink="http://www.w3.org/1999/xlink" id="svg2" width="48" height="48" version="1.0"><defs id="defs4"><linearGradient id="linearGradient5416"><stop id="stop5418" offset="0" stop-color="#000" stop-opacity="1"/><stop id="stop5420" offset="1" stop-color="#000" stop-opacity="0"/></linearGradient><linearGradient id="linearGradient3915"><stop id="stop3917" offset="0" stop-color="#000" stop-opacity="1"/><stop id="stop3919" offset="1" stop-color="#000" stop-opacity="0"/></linearGradient><filter id="filter3296" width="1.256" height="1.316" x="-.128" y="-.158" color-interpolation-filters="sRGB"><feGaussianBlur id="feGaussianBlur3298" stdDeviation=".606"/></filter><filter id="filter3219" color-interpolation-filters="sRGB"><feGaussianBlur id="feGaussianBlur3221" stdDeviation=".424"/></filter><filter id="filter3256" color-interpolation-filters="sRGB"><feGaussianBlur id="feGaussianBlur3258" stdDeviation=".334"/></filter><filter id="filter3357" width="1.977" height="1.152" x="-.489" y="-.076" color-interpolation-filters="sRGB"><feGaussianBlur id="feGaussianBlur3359" stdDeviation=".332"/></filter><filter id="filter3382" color-interpolation-filters="sRGB"><feGaussianBlur id="feGaussianBlur3384" stdDeviation=".523"/></filter><filter id="filter3423" color-interpolation-filters="sRGB"><feGaussianBlur id="feGaussianBlur3425" stdDeviation=".319"/></filter><filter id="filter3497" color-interpolation-filters="sRGB"><feGaussianBlur id="feGaussianBlur3499" stdDeviation=".22"/></filter><filter id="filter3501" color-interpolation-filters="sRGB"><feGaussianBlur id="feGaussianBlur3503" stdDeviation=".22"/></filter><filter id="filter3505" color-interpolation-filters="sRGB"><feGaussianBlur id="feGaussianBlur3507" stdDeviation=".22"/></filter><filter id="filter3280" color-interpolation-filters="sRGB"><feGaussianBlur id="feGaussianBlur3282" stdDeviation="5.579"/></filter><filter id="filter3311" color-interpolation-filters="sRGB"><feGaussianBlur id="feGaussianBlur3313" stdDeviation=".158"/></filter><filter id="filter3327" color-interpolation-filters="sRGB"><feGaussianBlur id="feGaussianBlur3329" stdDeviation=".35"/></filter><filter id="filter3339" color-interpolation-filters="sRGB"><feGaussianBlur id="feGaussianBlur3341" stdDeviation=".032"/></filter><filter id="filter3351" color-interpolation-filters="sRGB"><feGaussianBlur id="feGaussianBlur3353" stdDeviation=".314"/></filter><filter id="filter3355" color-interpolation-filters="sRGB"><feGaussianBlur id="feGaussianBlur3357" stdDeviation=".098"/></filter><filter id="filter3311-7-0" color-interpolation-filters="sRGB"><feGaussianBlur id="feGaussianBlur3313-3-3" stdDeviation=".158"/></filter><radialGradient id="radialGradient4126" cx="364.643" cy="298.434" r="21.094" fx="364.643" fy="298.434" gradientTransform="matrix(1,0,0,0.88148331,0,35.369365)" gradientUnits="userSpaceOnUse" xlink:href="#linearGradient3915"/><filter id="filter3280-0" color-interpolation-filters="sRGB"><feGaussianBlur id="feGaussianBlur3282-0" stdDeviation="5.579"/></filter><filter id="filter3296-5" width="1.256" height="1.316" x="-.128" y="-.158" color-interpolation-filters="sRGB"><feGaussianBlur id="feGaussianBlur3298-6" stdDeviation=".606"/></filter><filter id="filter3219-7" color-interpolation-filters="sRGB"><feGaussianBlur id="feGaussianBlur3221-3" stdDeviation=".424"/></filter><filter id="filter3743" color-interpolation-filters="sRGB"><feGaussianBlur id="feGaussianBlur3745" stdDeviation=".424"/></filter><filter id="filter3256-0" color-interpolation-filters="sRGB"><feGaussianBlur id="feGaussianBlur3258-1" stdDeviation=".334"/></filter><filter id="filter3357-3" width="1.977" height="1.152" x="-.489" y="-.076" color-interpolation-filters="sRGB"><feGaussianBlur id="feGaussianBlur3359-0" stdDeviation=".332"/></filter><filter id="filter3382-2" color-interpolation-filters="sRGB"><feGaussianBlur id="feGaussianBlur3384-0" stdDeviation=".523"/></filter><filter id="filter3423-7" color-interpolation-filters="sRGB"><feGaussianBlur id="feGaussianBlur3425-3" stdDeviation=".319"/></filter><filter id="filter3505-2" color-interpolation-filters="sRGB"><feGaussianBlur id="feGaussianBlur3507-3" stdDeviation=".22"/></filter><filter id="filter3501-7" color-interpolation-filters="sRGB"><feGaussianBlur id="feGaussianBlur3503-1" stdDeviation=".22"/></filter><filter id="filter3497-6" color-interpolation-filters="sRGB"><feGaussianBlur id="feGaussianBlur3499-0" stdDeviation=".22"/></filter><filter id="filter3280-1" color-interpolation-filters="sRGB"><feGaussianBlur id="feGaussianBlur3282-7" stdDeviation="5.579"/></filter><filter id="filter3280-8" color-interpolation-filters="sRGB"><feGaussianBlur id="feGaussianBlur3282-8" stdDeviation="5.579"/></filter><filter id="filter3382-5" color-interpolation-filters="sRGB"><feGaussianBlur id="feGaussianBlur3384-8" stdDeviation=".523"/></filter><filter id="filter3311-0" color-interpolation-filters="sRGB"><feGaussianBlur id="feGaussianBlur3313-3" stdDeviation=".158"/></filter><radialGradient id="radialGradient3413-2" cx="364.643" cy="298.434" r="21.094" fx="364.643" fy="298.434" gradientTransform="matrix(1,0,0,0.88148331,0,35.369365)" gradientUnits="userSpaceOnUse" xlink:href="#linearGradient3915-9"/><linearGradient id="linearGradient3915-9"><stop id="stop3917-7" offset="0" stop-color="#000" stop-opacity="1"/><stop id="stop3919-5" offset="1" stop-color="#000" stop-opacity="0"/></linearGradient><filter id="filter3311-7-0-8" color-interpolation-filters="sRGB"><feGaussianBlur id="feGaussianBlur3313-3-3-9" stdDeviation=".158"/></filter><radialGradient id="radialGradient5136" cx="364.643" cy="298.434" r="21.094" fx="364.643" fy="298.434" gradientTransform="matrix(1,0,0,0.88148331,0,35.369365)" gradientUnits="userSpaceOnUse" xlink:href="#linearGradient3915-9"/><radialGradient id="radialGradient5422" cx="64.932" cy=".763" r="6.255" fx="64.932" fy=".763" gradientTransform="matrix(1,0,0,1.0162521,0,-0.01239481)" gradientUnits="userSpaceOnUse" xlink:href="#linearGradient5416"/><filter id="filter3505-7" color-interpolation-filters="sRGB"><feGaussianBlur id="feGaussianBlur3507-8" stdDeviation=".22"/></filter><filter id="filter3501-3" color-interpolation-filters="sRGB"><feGaussianBlur id="feGaussianBlur3503-0" stdDeviation=".22"/></filter><filter id="filter3497-2" color-interpolation-filters="sRGB"><feGaussianBlur id="feGaussianBlur3499-2" stdDeviation=".22"/></filter><radialGradient id="radialGradient4281" cx="64.932" cy=".763" r="6.255" fx="64.932" fy=".763" gradientTransform="matrix(0.78864495,0,0,0.78050995,-14.801676,8.6589723)" gradientUnits="userSpaceOnUse" xlink:href="#linearGradient5416"/></defs><metadata id="metadata7"/><g id="g4251" transform="matrix(1.0101779,0.32061912,0.08192644,1.1789477,-1.9674719,-12.402313)"><g id="g3705" transform="translate(-18.675909,-4.8392323)"><path id="path2476" fill="#040404" fill-opacity="1" fill-rule="evenodd" stroke="none" d="m 239.36103,328.90513 -0.75761,7.58512 4.53934,-4.73323 -3.78173,-2.85189 z" filter="url(#filter3339)" transform="matrix(0.23775897,0,0,0.27298623,-29.834866,-57.391634)"/><path id="path2464" fill="#000" fill-opacity="1" fill-rule="evenodd" stroke="none" d="m 275.23677,366.08054 -37.83739,-29.65157 4.99845,-5.38624 38.46874,30.28292 c 1.63406,-2.14603 -4.1741,3.29619 -5.6298,4.75489 z" filter="url(#filter3351)" transform="matrix(0.23775897,0,0,0.27298623,-29.834866,-57.391634)"/><path id="path2466" fill="#000" fill-opacity="1" fill-rule="evenodd" stroke="none" d="m 35.62273,42.417261 -0.06004,3.82614 -1.771273,-1.378788 0.06004,-2.792049 -6.484666,-5.963259 -0.78056,0.723862 0.03002,-2.447349 9.006481,8.031443 z"/><path id="path2474" fill="#000" fill-opacity="1" fill-rule="evenodd" stroke="none" d="m 275.02756,379.68696 c 0,-0.63135 4.07124,-3.08276 4.07124,-3.08276 l 2.52539,1.01015 0.88388,-14.89975 -2.39911,-1.76777 -4.85053,4.47173 -0.23087,14.2684 z" filter="url(#filter3355)" transform="matrix(0.23775897,0,0,0.27298623,-29.868764,-57.349261)"/></g><path id="path2456" fill="#000" fill-opacity="1" fill-rule="evenodd" stroke="none" d="m 18.369018,37.112196 0.02179,3.61871 24.521122,-23.341359 c 0,0 0.470655,-0.351874 0.75086,-2.286231 0.213258,-1.472198 0,-4.410967 0,-4.410967 L 18.369018,37.112196 z"/><path id="path2486" fill="none" stroke="#fff" stroke-linecap="butt" stroke-linejoin="miter" stroke-opacity="1" stroke-width=".255" d="M 18.038342,40.782522 43.937089,15.531296 44.436711,14.556345"/><g id="g3695" transform="translate(32.644069,-5.6949153)"><path id="path2458" fill="#d0d0d0" fill-opacity="1" fill-rule="evenodd" stroke="none" d="m -30.816481,42.946932 6.29393,6.308624 7.007534,-6.607023 -6.338524,-5.941286 -6.96294,6.239685 z"/><path id="path2460" fill="#000" fill-opacity="1" fill-rule="evenodd" stroke="none" d="m -26.910441,40.997029 1.103882,-1.072445 1.273708,1.267437 -1.103882,0.974951 -1.273708,-1.169943 z"/><path id="path2462" fill="#000" fill-opacity="1" fill-rule="evenodd" stroke="none" d="m -23.499318,44.179899 1.024118,-1.066533 1.338904,1.215226 -1.024118,1.193596 -1.338904,-1.342289 z"/><path id="path2468" fill="#e3e3e3" fill-opacity="1" fill-rule="evenodd" stroke="none" d="m -24.547923,49.369858 0.150109,2.481819 6.93499,-6.342425 -0.06004,-2.792049 -7.025055,6.652655 z"/><path id="path2470" fill="#6c6c6c" fill-opacity="1" fill-rule="evenodd" stroke="none" d="m -24.397814,51.920617 -6.54471,-6.618185 0.03002,-2.309472 6.334558,6.273488 0.180131,2.654169 z"/><path id="path2472" fill="#000" fill-opacity="1" fill-rule="evenodd" stroke="none" d="m -24.487879,51.058876 -5.884235,-6.032201 -0.03002,-0.861744 5.79417,5.756444 0.120087,1.137501 z"/><path id="path2488" fill="none" stroke="#e2e2e2" stroke-linecap="butt" stroke-linejoin="miter" stroke-opacity="1" stroke-width="1" d="m 211.41859,365.36626 26.39023,23.10724 29.67323,-23.99113" filter="url(#filter3256)" transform="matrix(0.23775897,0,0,0.27298623,-81.089103,-56.781465)"/><path id="path2490" fill="none" stroke="#bdbdbd" stroke-linecap="butt" stroke-linejoin="miter" stroke-opacity="1" stroke-width="1" d="m 237.55628,388.34723 0.63135,9.47018" filter="url(#filter3357)" transform="matrix(0.23775897,0,0,0.27298623,-81.089103,-56.781465)"/></g><path id="path2402-9" fill="#000" fill-opacity="1" fill-rule="evenodd" stroke="none" d="M 8.3660436,27.710881 18.551151,36.920266 43.626809,12.270874 c 0,0 2.24803,-4.9061712 -2.081509,-7.9845523 -4.32954,-3.0783837 -8.742338,0.096198 -8.742338,0.096198 L 8.3660436,27.710881 z"/><path id="path5272" fill="#fff" fill-opacity="1" stroke="none" d="m 32.490479,10.049017 a 4.9323726,4.8815331 0 1 1 0.03679,0.218461" opacity=".78"/><path id="path5272-0" fill="url(#radialGradient4281)" fill-opacity="1" stroke="none" d="m 31.524376,9.9473727 a 4.9323726,4.8815331 0 1 1 0.03679,0.2184613"/><text id="text5548" x="-11.31" y="34.33" fill="#fff" fill-opacity="1" stroke="none" font-family="Sans" font-size="4.254" font-style="normal" font-weight="normal" letter-spacing="0" transform="matrix(0.7078255,-0.70356312,0.77417013,0.64326935,0,0)" word-spacing="0" xml:space="preserve" style="line-height:125%"><tspan id="tspan5550" x="-11.31" y="34.33" fill="#fff" fill-opacity="1" font-family="Verdana" font-size="8.508" font-stretch="normal" font-style="normal" font-variant="normal" font-weight="bold" style="-inkscape-font-specification:Verdana Bold">USB</tspan></text><path id="path2498" fill="none" stroke="#bebebe" stroke-dasharray="none" stroke-linecap="butt" stroke-linejoin="miter" stroke-miterlimit="4" stroke-opacity="1" stroke-width="1.33" d="M 34.585054,17.11865 18.98155,32.502593"/><path id="path2484" fill="none" stroke="#fff" stroke-linecap="butt" stroke-linejoin="miter" stroke-opacity="1" stroke-width=".255" d="M 17.952445,36.585913 43.714482,12.190067 44.035033,11.422373"/><path id="path2484-5" fill="none" stroke="#fff" stroke-linecap="butt" stroke-linejoin="miter" stroke-opacity="1" stroke-width=".248" d="M 8.4479406,27.625534 33.138194,4.1787388"/><path id="path2484-1" fill="none" stroke="#fff" stroke-linecap="butt" stroke-linejoin="miter" stroke-opacity="1" stroke-width=".255" d="m 43.753144,12.021493 c 0,0 2.581031,-4.3476465 -1.895387,-7.7416469 -4.476418,-3.39400045 -8.740004,-0.048602 -8.740004,-0.048602"/><path id="path2484-1-4" fill="none" stroke="#fff" stroke-linecap="butt" stroke-linejoin="miter" stroke-opacity="1" stroke-width=".255" d="M 18.027399,36.509911 C 10.920182,29.65358 15.473449,33.769122 8.5775738,27.57859"/><path id="path2484-1-4-8" fill="none" stroke="#fff" stroke-linecap="butt" stroke-linejoin="miter" stroke-opacity="1" stroke-width=".255" d="m 18.011989,40.66905 c 0.05592,-4.212263 -0.01158,0.05582 0.065,-4.062677"/><path id="path2484-1-4-3" fill="none" stroke="#fff" stroke-linecap="butt" stroke-linejoin="miter" stroke-opacity="1" stroke-width=".255" d="m 8.3851349,29.452088 c 0.059867,-1.237779 0.024026,-0.378221 0.1354738,-1.899276"/></g></svg>