<?xml version="1.0" encoding="UTF-8" standalone="no"?>
<!-- Created with Inkscape (http://www.inkscape.org/) -->

<svg
   xmlns:dc="http://purl.org/dc/elements/1.1/"
   xmlns:cc="http://creativecommons.org/ns#"
   xmlns:rdf="http://www.w3.org/1999/02/22-rdf-syntax-ns#"
   xmlns:svg="http://www.w3.org/2000/svg"
   xmlns="http://www.w3.org/2000/svg"
   xmlns:xlink="http://www.w3.org/1999/xlink"
   version="1.1"
   width="48"
   height="48"
   id="svg2913">
  <defs
     id="defs3">
    <radialGradient
       cx="605.71429"
       cy="486.64789"
       r="117.14286"
       fx="605.71429"
       fy="486.64789"
       id="radialGradient6719"
       xlink:href="#linearGradient5060"
       gradientUnits="userSpaceOnUse"
       gradientTransform="matrix(-2.774389,0,0,1.969706,112.7623,-872.8854)" />
    <linearGradient
       id="linearGradient5060">
      <stop
         id="stop5062"
         style="stop-color:#000000;stop-opacity:1"
         offset="0" />
      <stop
         id="stop5064"
         style="stop-color:#000000;stop-opacity:0"
         offset="1" />
    </linearGradient>
    <radialGradient
       cx="605.71429"
       cy="486.64789"
       r="117.14286"
       fx="605.71429"
       fy="486.64789"
       id="radialGradient6717"
       xlink:href="#linearGradient5060"
       gradientUnits="userSpaceOnUse"
       gradientTransform="matrix(2.774389,0,0,1.969706,-1891.633,-872.8854)" />
    <linearGradient
       id="linearGradient5048">
      <stop
         id="stop5050"
         style="stop-color:#000000;stop-opacity:0"
         offset="0" />
      <stop
         id="stop5056"
         style="stop-color:#000000;stop-opacity:1"
         offset="0.5" />
      <stop
         id="stop5052"
         style="stop-color:#000000;stop-opacity:0"
         offset="1" />
    </linearGradient>
    <linearGradient
       x1="302.85715"
       y1="366.64789"
       x2="302.85715"
       y2="609.50507"
       id="linearGradient6715"
       xlink:href="#linearGradient5048"
       gradientUnits="userSpaceOnUse"
       gradientTransform="matrix(2.774389,0,0,1.969706,-1892.179,-872.8854)" />
    <linearGradient
       id="linearGradient5699">
      <stop
         id="stop5701"
         style="stop-color:#7a7a7a;stop-opacity:1"
         offset="0" />
      <stop
         id="stop5703"
         style="stop-color:#a5a5a5;stop-opacity:1"
         offset="1" />
    </linearGradient>
    <linearGradient
       id="linearGradient2681">
      <stop
         id="stop2683"
         style="stop-color:#000000;stop-opacity:0.47524753"
         offset="0" />
      <stop
         id="stop2685"
         style="stop-color:#000000;stop-opacity:0"
         offset="1" />
    </linearGradient>
    <linearGradient
       id="linearGradient2673">
      <stop
         id="stop2675"
         style="stop-color:#ffffff;stop-opacity:1"
         offset="0" />
      <stop
         id="stop2677"
         style="stop-color:#6f6f6f;stop-opacity:1"
         offset="1" />
    </linearGradient>
    <linearGradient
       id="linearGradient4264">
      <stop
         id="stop4266"
         style="stop-color:#000000;stop-opacity:1"
         offset="0" />
      <stop
         id="stop4268"
         style="stop-color:#000000;stop-opacity:0"
         offset="1" />
    </linearGradient>
    <linearGradient
       id="linearGradient4244">
      <stop
         id="stop4246"
         style="stop-color:#e4e4e4;stop-opacity:1"
         offset="0" />
      <stop
         id="stop4248"
         style="stop-color:#d3d3d3;stop-opacity:1"
         offset="1" />
    </linearGradient>
    <linearGradient
       id="linearGradient4228">
      <stop
         id="stop4230"
         style="stop-color:#bbbbbb;stop-opacity:1"
         offset="0" />
      <stop
         id="stop4232"
         style="stop-color:#9f9f9f;stop-opacity:1"
         offset="1" />
    </linearGradient>
    <radialGradient
       cx="23.201941"
       cy="27.096155"
       r="23.555494"
       fx="23.201941"
       fy="27.096155"
       id="radialGradient4270"
       xlink:href="#linearGradient4264"
       gradientUnits="userSpaceOnUse"
       gradientTransform="matrix(1,0,0,0.651032,0,9.455693)" />
    <radialGradient
       cx="40.796875"
       cy="33.734375"
       r="0.984375"
       fx="40.796875"
       fy="33.734375"
       id="radialGradient2679"
       xlink:href="#linearGradient2673"
       gradientUnits="userSpaceOnUse"
       gradientTransform="matrix(1.253968,0,0,1.253968,-10.36111,-8.56746)" />
    <linearGradient
       x1="25.785229"
       y1="32.363384"
       x2="25.785229"
       y2="35.670216"
       id="linearGradient2687"
       xlink:href="#linearGradient2681"
       gradientUnits="userSpaceOnUse" />
    <linearGradient
       x1="25.785229"
       y1="32.363384"
       x2="25.785229"
       y2="35.670216"
       id="linearGradient2687-7"
       xlink:href="#linearGradient2681-7"
       gradientUnits="userSpaceOnUse" />
    <linearGradient
       id="linearGradient2681-7">
      <stop
         id="stop2683-0"
         style="stop-color:#000000;stop-opacity:0.47524753"
         offset="0" />
      <stop
         id="stop2685-9"
         style="stop-color:#000000;stop-opacity:0"
         offset="1" />
    </linearGradient>
    <linearGradient
       x1="25.785229"
       y1="32.363384"
       x2="25.785229"
       y2="35.670216"
       id="linearGradient2689-7"
       xlink:href="#linearGradient2681-7"
       gradientUnits="userSpaceOnUse" />
    <linearGradient
       id="linearGradient3820">
      <stop
         id="stop3822"
         style="stop-color:#000000;stop-opacity:0.47524753"
         offset="0" />
      <stop
         id="stop3824"
         style="stop-color:#000000;stop-opacity:0"
         offset="1" />
    </linearGradient>
    <linearGradient
       id="linearGradient2681-7-3">
      <stop
         id="stop2683-0-9"
         style="stop-color:#000000;stop-opacity:0.47524753"
         offset="0" />
      <stop
         id="stop2685-9-3"
         style="stop-color:#000000;stop-opacity:0"
         offset="1" />
    </linearGradient>
    <linearGradient
       x1="25.785229"
       y1="32.363384"
       x2="25.785229"
       y2="35.670216"
       id="linearGradient3828-9"
       xlink:href="#linearGradient2681-7-3"
       gradientUnits="userSpaceOnUse" />
    <linearGradient
       id="linearGradient3872">
      <stop
         id="stop3874"
         style="stop-color:#000000;stop-opacity:0.47524753"
         offset="0" />
      <stop
         id="stop3876"
         style="stop-color:#000000;stop-opacity:0"
         offset="1" />
    </linearGradient>
    <linearGradient
       x1="5.3414402"
       y1="34.295902"
       x2="43.272156"
       y2="34.295902"
       id="linearGradient3923"
       xlink:href="#linearGradient4228"
       gradientUnits="userSpaceOnUse" />
    <linearGradient
       x1="12.378357"
       y1="4.433136"
       x2="44.0961"
       y2="47.620636"
       id="linearGradient4260-4"
       xlink:href="#linearGradient4254-5"
       gradientUnits="userSpaceOnUse"
       gradientTransform="translate(1.566757,-1.310285)" />
    <linearGradient
       id="linearGradient4254-5">
      <stop
         id="stop4256-1"
         style="stop-color:#ffffff;stop-opacity:1"
         offset="0" />
      <stop
         id="stop4258-9"
         style="stop-color:#ffffff;stop-opacity:0"
         offset="1" />
    </linearGradient>
    <linearGradient
       x1="12.378357"
       y1="4.433136"
       x2="44.0961"
       y2="47.620636"
       id="linearGradient4000"
       xlink:href="#linearGradient4254-5"
       gradientUnits="userSpaceOnUse"
       gradientTransform="translate(-0.36533099,-0.21309461)" />
    <linearGradient
       x1="302.85715"
       y1="366.64789"
       x2="302.85715"
       y2="609.50507"
       id="linearGradient4084"
       xlink:href="#linearGradient5048"
       gradientUnits="userSpaceOnUse"
       gradientTransform="matrix(2.774389,0,0,1.969706,-1892.179,-872.8854)" />
    <radialGradient
       cx="605.71429"
       cy="486.64789"
       r="117.14286"
       fx="605.71429"
       fy="486.64789"
       id="radialGradient4086"
       xlink:href="#linearGradient5060"
       gradientUnits="userSpaceOnUse"
       gradientTransform="matrix(2.774389,0,0,1.969706,-1891.633,-872.8854)" />
    <radialGradient
       cx="605.71429"
       cy="486.64789"
       r="117.14286"
       fx="605.71429"
       fy="486.64789"
       id="radialGradient4088"
       xlink:href="#linearGradient5060"
       gradientUnits="userSpaceOnUse"
       gradientTransform="matrix(-2.774389,0,0,1.969706,112.7623,-872.8854)" />
    <radialGradient
       cx="40.796875"
       cy="33.734375"
       r="0.984375"
       fx="40.796875"
       fy="33.734375"
       id="radialGradient4090"
       xlink:href="#linearGradient2673"
       gradientUnits="userSpaceOnUse"
       gradientTransform="matrix(1.253968,0,0,1.253968,-10.36111,-8.56746)" />
    <linearGradient
       x1="5.3414402"
       y1="34.295902"
       x2="43.272156"
       y2="34.295902"
       id="linearGradient4092"
       xlink:href="#linearGradient4228"
       gradientUnits="userSpaceOnUse" />
    <linearGradient
       x1="5.3414402"
       y1="34.295902"
       x2="43.272156"
       y2="34.295902"
       id="linearGradient4094"
       xlink:href="#linearGradient4228"
       gradientUnits="userSpaceOnUse" />
    <linearGradient
       x1="12.378357"
       y1="4.433136"
       x2="44.0961"
       y2="47.620636"
       id="linearGradient4096"
       xlink:href="#linearGradient4254-5"
       gradientUnits="userSpaceOnUse"
       gradientTransform="translate(-0.36533099,-0.21309461)" />
  </defs>
  <metadata
     id="metadata4">
    <rdf:RDF>
      <cc:Work
         rdf:about="">
        <dc:format>image/svg+xml</dc:format>
        <dc:type
           rdf:resource="http://purl.org/dc/dcmitype/StillImage" />
        <dc:title></dc:title>
        <dc:creator>
          <cc:Agent>
            <dc:title>Jakub Steiner</dc:title>
          </cc:Agent>
        </dc:creator>
        <dc:subject>
          <rdf:Bag>
            <rdf:li>media</rdf:li>
            <rdf:li>removable</rdf:li>
          </rdf:Bag>
        </dc:subject>
        <cc:license
           rdf:resource="http://creativecommons.org/licenses/publicdomain/" />
        <dc:identifier />
        <dc:source>http://jimmac.musichall.cz</dc:source>
      </cc:Work>
      <cc:License
         rdf:about="http://creativecommons.org/licenses/publicdomain/">
        <cc:permits
           rdf:resource="http://creativecommons.org/ns#Reproduction" />
        <cc:permits
           rdf:resource="http://creativecommons.org/ns#Distribution" />
        <cc:permits
           rdf:resource="http://creativecommons.org/ns#DerivativeWorks" />
      </cc:License>
    </rdf:RDF>
  </metadata>
  <g
     id="g3120">
    <g
       transform="matrix(0.93976056,0,0,1.2006001,2.9382164,-4.4065023)"
       id="g4068">
      <g
         transform="matrix(0.0245274,0,0,0.02086758,45.69054,36.1536)"
         id="g6707">
        <rect
           width="1339.6335"
           height="478.35718"
           x="-1559.2523"
           y="-150.69685"
           id="rect6709"
           style="opacity:0.40206185;color:#000000;fill:url(#linearGradient4084);fill-opacity:1;fill-rule:nonzero;stroke:none;stroke-width:1;marker:none;visibility:visible;display:inline;overflow:visible" />
        <path
           d="m -219.61876,-150.68038 c 0,0 0,478.33079 0,478.33079 142.874166,0.90045 345.40022,-107.16966 345.40014,-239.196175 0,-132.026537 -159.436816,-239.134595 -345.40014,-239.134615 z"
           id="path6711"
           style="opacity:0.40206185;color:#000000;fill:url(#radialGradient4086);fill-opacity:1;fill-rule:nonzero;stroke:none;stroke-width:1;marker:none;visibility:visible;display:inline;overflow:visible" />
        <path
           d="m -1559.2523,-150.68038 c 0,0 0,478.33079 0,478.33079 -142.8742,0.90045 -345.4002,-107.16966 -345.4002,-239.196175 0,-132.026537 159.4368,-239.134595 345.4002,-239.134615 z"
           id="path6713"
           style="opacity:0.40206185;color:#000000;fill:url(#radialGradient4088);fill-opacity:1;fill-rule:nonzero;stroke:none;stroke-width:1;marker:none;visibility:visible;display:inline;overflow:visible" />
      </g>
      <path
         d="m 11.28569,8.018085 c -0.625,0 -1.031249,0.29018 -1.281248,0.843753 -10e-7,0 -6.4687505,17.103564 -6.4687505,17.103564 0,0 -0.25,0.671559 -0.25,1.78125 0,0 0,9.649968 0,9.649968 0,1.082613 0.6577855,1.625002 1.65625,1.625 l 38.5624985,0 c 0.984853,0 1.59375,-0.71818 1.59375,-1.84375 l 0,-9.649968 c 0,0 0.105963,-0.770423 -0.09375,-1.3125 L 38.28569,9.018089 C 38.101165,8.506182 37.648785,8.029991 37.16069,8.018085 l -25.875,0 z"
         id="path4196"
         style="fill:none;stroke:#535353;stroke-width:2;stroke-linecap:round;stroke-linejoin:round;stroke-miterlimit:4;stroke-opacity:1;stroke-dasharray:none" />
      <path
         d="m 2.9200381,27.405829 0.7646021,-0.692215 37.6096898,0.0625 3.462407,0.317298 0,10.438532 c 0,1.125569 -0.607018,1.843331 -1.591871,1.843331 l -38.582988,0 c -0.9984647,0 -1.6618399,-0.542051 -1.6618399,-1.624664 l 0,-10.344782 z"
         id="path4170"
         style="fill:#000000;fill-opacity:1;fill-rule:evenodd;stroke:none" />
      <path
         d="m 3.5490842,25.969868 c -0.7142857,1.464286 -6.156e-4,2.392857 1.0357143,2.392857 0,0 38.9999985,0 38.9999985,0 1.119047,-0.02381 1.845238,-1.011905 1.428571,-2.142858 L 38.299082,9.009162 C 38.114558,8.497255 37.64432,8.021063 37.156225,8.009158 l -25.857142,0 c -0.625,0 -1.035714,0.303573 -1.285713,0.857146 0,0 -6.4642858,17.103564 -6.4642858,17.103564 z"
         id="path3093"
         style="fill:#bebebe;fill-opacity:1;fill-rule:evenodd;stroke:none" />
      <path
         d="m 44.354219,28.897542 c -0.33422,-0.233508 -0.63497,-0.19452 -1.18953,-0.22243 0,0 -38.7816309,-0.265165 -38.7816309,-0.265165 -0.574524,0.04419 -1.240899,0.809679 -1.240899,0.809679 0,0 0.571062,-1.400031 0.571062,-1.400031 0,0 0.339681,-1.16317 1.597915,-1.16317 0,1e-6 37.1906329,0 37.1906329,0 0.72246,0.03307 1.16724,0.429655 1.35217,0.895568 l 0.50028,1.345549 z"
         id="path5697"
         style="fill:#686868;fill-opacity:1;fill-rule:evenodd;stroke:none" />
      <path
         d="m 42,33.984375 a 0.984375,0.984375 0 1 1 -1.96875,0 0.984375,0.984375 0 1 1 1.96875,0 z"
         transform="matrix(1.380952,0,0,1.380952,-15.625,-10.94643)"
         id="path2671"
         style="color:#000000;fill:url(#radialGradient4090);fill-opacity:1;fill-rule:evenodd;stroke:none;stroke-width:1.02044296px;marker:none;visibility:visible;display:inline;overflow:visible;font-family:Bitstream Vera Sans" />
      <g
         transform="matrix(0.828197,0,0,0.61024,3.9108143,11.868472)"
         id="g2142"
         style="fill:url(#linearGradient4094);fill-opacity:1">
        <rect
           width="37.930714"
           height="3.8650389"
           x="5.3414402"
           y="32.363384"
           id="rect2151"
           style="color:#000000;fill:url(#linearGradient4092);fill-opacity:1;fill-rule:evenodd;stroke:none;stroke-width:1;marker:none;visibility:visible;display:inline;overflow:visible" />
      </g>
      <path
         d="m 3.5000277,26.08467 c -0.7142857,1.464286 -6.156e-4,2.392857 1.0357143,2.392857 0,0 38.999998,0 38.999998,0 1.119047,-0.02381 1.845238,-1.011905 1.428571,-2.142858 L 38.250025,9.1239641 c -0.184524,-0.511907 -0.654762,-0.988099 -1.142857,-1.000004 l -25.857141,0 c -0.625,0 -1.035714,0.303573 -1.2857128,0.857146 0,0 -6.4642865,17.1035639 -6.4642865,17.1035639 z"
         id="path3093-4"
         style="opacity:0.71875;fill:#000000;fill-opacity:1;fill-rule:evenodd;stroke:none" />
      <path
         d="m 38.570661,9.6694716 c 0,0 6.15533,15.5379114 6.15533,15.5379114 -0.618718,-0.397748 -0.881282,-0.713388 -1.5,-0.625 l -37.7500009,0 c -0.707107,0 -1.411612,0.75 -1.411612,0.75 L 10.35099,9.3323836 c 0.133883,-0.499653 0.6237,-0.801776 1.286613,-0.801776 l 25.419194,-0.08839 c 1.325825,0.176777 1.292893,0.608534 1.513864,1.227253 z"
         id="path5637"
         style="color:#000000;fill:#000000;fill-opacity:1;fill-rule:nonzero;stroke:none;stroke-width:1;marker:none;visibility:visible;display:inline;overflow:visible" />
      <path
         d="m 11.277184,8.2026224 c -0.601692,0 -0.992791,0.279359 -1.233466,0.812287 -1e-6,0 -6.415015,16.5907296 -6.415015,16.5907296 0,0 -0.240677,0.646515 -0.240677,1.714823 0,0 0,9.290095 0,9.290095 0,1.35474 0.444056,1.626899 1.594484,1.626899 l 37.686905,0 c 1.323126,0 1.534316,-0.316397 1.534316,-1.837492 l 0,-9.290095 c 0,0 0.10201,-0.741691 -0.09025,-1.263553 L 37.520285,9.0403334 c -0.177643,-0.492816 -0.550652,-0.82625 -1.020545,-0.837711 l -25.222556,0 z"
         id="path4252"
         style="fill:none;stroke:url(#linearGradient4096);stroke-width:1.00000024;stroke-linecap:round;stroke-linejoin:round;stroke-miterlimit:4;stroke-opacity:1;stroke-dasharray:none" />
    </g>
    <g
       transform="matrix(0.52415831,0,0,0.55736898,20.933716,14.057694)"
       id="g3990">
      <g
         transform="translate(4.478881,0)"
         id="g3873">
        <path
           d="M 21.325067,42.818508 C 4.9325439,40.62308 6.3961609,22.620578 6.3961609,22.620578"
           id="path768-8"
           style="font-size:12px;fill:none;stroke:#333333;stroke-width:5.125;stroke-miterlimit:4;stroke-dasharray:none" />
        <path
           d="M 21.321556,42.978688 C 4.9290323,40.78326 6.3926503,22.780758 6.3926503,22.780758"
           id="path768"
           style="font-size:12px;fill:none;stroke:#000000;stroke-width:3.125;stroke-miterlimit:4;stroke-opacity:1;stroke-dasharray:none" />
      </g>
      <g
         id="g3869">
        <path
           d="M 29.116617,34.999726 C 44.923693,32.072489 43.313713,13.338177 43.313713,13.338177"
           id="path769-0"
           style="font-size:12px;fill:none;stroke:#333333;stroke-width:5.125;stroke-miterlimit:4;stroke-dasharray:none" />
        <path
           d="M 29.091918,35.024425 C 44.898993,32.097189 43.289014,13.362877 43.289014,13.362877"
           id="path769"
           style="font-size:12px;fill:none;stroke:#000000;stroke-width:3.12500405;stroke-opacity:1;stroke-dasharray:none" />
      </g>
      <g
         transform="translate(77.769662,-5.7003941)"
         id="g3877">
        <path
           d="m -50.489204,12.819834 0,47.128496"
           id="path767-6"
           style="font-size:12px;fill:none;stroke:#333333;stroke-width:5.125;stroke-miterlimit:4;stroke-dasharray:none" />
        <path
           d="m -50.489204,12.939092 0,47.128495"
           id="path767"
           style="font-size:12px;fill:none;stroke:#000000;stroke-width:3.125;stroke-miterlimit:4;stroke-opacity:1;stroke-dasharray:none" />
      </g>
      <g
         transform="translate(16.694011,-89.17045)"
         id="g3917">
        <path
           d="m 7.1150288,95.860214 7.7571762,0 -3.805407,-4.537212 -3.9517692,4.537212 z"
           id="path770-9"
           style="font-size:12px;fill:#4c4c4c;fill-opacity:1;fill-rule:evenodd;stroke:#333333;stroke-width:5.125;stroke-linecap:round;stroke-linejoin:round;stroke-miterlimit:4;stroke-dasharray:none" />
        <path
           d="m 7.1150288,95.860213 7.7571762,0 -3.805407,-4.537212 -3.9517692,4.537212 z"
           id="path770"
           style="font-size:12px;fill:#4c4c4c;fill-opacity:1;fill-rule:evenodd;stroke:#000000;stroke-width:3.12500405;stroke-linecap:round;stroke-linejoin:round;stroke-opacity:1;stroke-dasharray:none" />
      </g>
      <g
         transform="translate(-21.172892,-72.88361)"
         id="g3986">
        <path
           d="m 14.759949,7.3222513 a 2.290337,2.290337 0 1 1 -4.580674,0 2.290337,2.290337 0 1 1 4.580674,0 z"
           transform="matrix(1.150273,0,0,1.150273,17.248547,82.742012)"
           id="path771"
           style="font-size:12px;fill:#4c4c4c;fill-opacity:1;fill-rule:evenodd;stroke:#333333;stroke-width:4.45546389;stroke-miterlimit:4;stroke-dasharray:none" />
        <path
           d="m 14.759949,7.3222513 a 2.290337,2.290337 0 1 1 -4.580674,0 2.290337,2.290337 0 1 1 4.580674,0 z"
           transform="matrix(1.150273,0,0,1.150273,17.255035,82.744031)"
           id="path771-1"
           style="font-size:12px;fill:#4c4c4c;fill-opacity:1;fill-rule:evenodd;stroke:#000000;stroke-width:2.71674991;stroke-opacity:1;stroke-dasharray:none" />
      </g>
      <g
         transform="translate(-21.987234,-94.463673)"
         id="g3978">
        <rect
           width="4.9763017"
           height="4.9763017"
           rx="1.150273"
           x="62.577709"
           y="101.05042"
           id="rect773"
           style="font-size:12px;fill:#4c4c4c;fill-opacity:1;fill-rule:evenodd;stroke:#333333;stroke-width:5.125;stroke-miterlimit:4;stroke-dasharray:none" />
        <rect
           width="4.9763017"
           height="4.9763017"
           rx="1.150273"
           x="62.634514"
           y="101.15112"
           id="rect773-8"
           style="font-size:12px;fill:#4c4c4c;fill-opacity:1;fill-rule:evenodd;stroke:#000000;stroke-width:3.12500405;stroke-opacity:1;stroke-dasharray:none" />
      </g>
      <g
         transform="translate(82.248543,-19.137037)"
         id="g3982">
        <path
           d="m 14.759949,7.3222513 a 2.290337,2.290337 0 1 1 -4.580674,0 2.290337,2.290337 0 1 1 4.580674,0 z"
           transform="matrix(1.150273,0,0,1.150273,-69.311544,65.014055)"
           id="path771-8"
           style="font-size:12px;fill:#4c4c4c;fill-opacity:1;fill-rule:evenodd;stroke:#333333;stroke-width:4.45546389;stroke-miterlimit:4;stroke-dasharray:none" />
        <path
           d="m 14.759949,7.3222513 a 2.290337,2.290337 0 1 1 -4.580674,0 2.290337,2.290337 0 1 1 4.580674,0 z"
           transform="matrix(1.150273,0,0,1.150273,-69.305056,65.016074)"
           id="path771-1-3"
           style="font-size:12px;fill:#4c4c4c;fill-opacity:1;fill-rule:evenodd;stroke:#000000;stroke-width:2.71674991;stroke-opacity:1;stroke-dasharray:none" />
      </g>
    </g>
  </g>
</svg>
