<svg xmlns="http://www.w3.org/2000/svg" xmlns:svg="http://www.w3.org/2000/svg" xmlns:xlink="http://www.w3.org/1999/xlink" id="svg2913" width="48" height="48" version="1.1"><defs id="defs3"><linearGradient id="linearGradient4039"><stop id="stop4041" offset="0" stop-color="#d40000" stop-opacity="1"/><stop id="stop4043" offset="1" stop-color="#d40000" stop-opacity="0"/></linearGradient><linearGradient id="linearGradient3975"><stop id="stop3977" offset="0" stop-color="#58ff58" stop-opacity="1"/><stop id="stop3979" offset="1" stop-color="#bebebe" stop-opacity="0"/></linearGradient><linearGradient id="linearGradient3969"><stop id="stop3971" offset="0" stop-color="#58ff58" stop-opacity="1"/><stop id="stop3973" offset="1" stop-color="#bebebe" stop-opacity="0"/></linearGradient><linearGradient id="linearGradient3961"><stop id="stop3963" offset="0" stop-color="#58ff58" stop-opacity="1"/><stop id="stop3965" offset="1" stop-color="#bebebe" stop-opacity="0"/></linearGradient><radialGradient id="radialGradient6719" cx="605.714" cy="486.648" r="117.143" fx="605.714" fy="486.648" gradientTransform="matrix(-2.774389,0,0,1.969706,112.7623,-872.8854)" gradientUnits="userSpaceOnUse" xlink:href="#linearGradient5060"/><linearGradient id="linearGradient5060"><stop id="stop5062" offset="0" stop-color="#000" stop-opacity="1"/><stop id="stop5064" offset="1" stop-color="#000" stop-opacity="0"/></linearGradient><radialGradient id="radialGradient6717" cx="605.714" cy="486.648" r="117.143" fx="605.714" fy="486.648" gradientTransform="matrix(2.774389,0,0,1.969706,-1891.633,-872.8854)" gradientUnits="userSpaceOnUse" xlink:href="#linearGradient5060"/><linearGradient id="linearGradient5048"><stop id="stop5050" offset="0" stop-color="#000" stop-opacity="0"/><stop id="stop5056" offset=".5" stop-color="#000" stop-opacity="1"/><stop id="stop5052" offset="1" stop-color="#000" stop-opacity="0"/></linearGradient><linearGradient id="linearGradient6715" x1="302.857" x2="302.857" y1="366.648" y2="609.505" gradientTransform="matrix(2.774389,0,0,1.969706,-1892.179,-872.8854)" gradientUnits="userSpaceOnUse" xlink:href="#linearGradient5048"/><linearGradient id="linearGradient5699"><stop id="stop5701" offset="0" stop-color="#7a7a7a" stop-opacity="1"/><stop id="stop5703" offset="1" stop-color="#a5a5a5" stop-opacity="1"/></linearGradient><linearGradient id="linearGradient2681"><stop id="stop2683" offset="0" stop-color="#000" stop-opacity=".475"/><stop id="stop2685" offset="1" stop-color="#000" stop-opacity="0"/></linearGradient><linearGradient id="linearGradient2673"><stop id="stop2675" offset="0" stop-color="#fff" stop-opacity="1"/><stop id="stop2677" offset="1" stop-color="#6f6f6f" stop-opacity="1"/></linearGradient><linearGradient id="linearGradient4264"><stop id="stop4266" offset="0" stop-color="#000" stop-opacity="1"/><stop id="stop4268" offset="1" stop-color="#000" stop-opacity="0"/></linearGradient><linearGradient id="linearGradient4244"><stop id="stop4246" offset="0" stop-color="#e4e4e4" stop-opacity="1"/><stop id="stop4248" offset="1" stop-color="#d3d3d3" stop-opacity="1"/></linearGradient><linearGradient id="linearGradient4228"><stop id="stop4230" offset="0" stop-color="#bbb" stop-opacity="1"/><stop id="stop4232" offset="1" stop-color="#9f9f9f" stop-opacity="1"/></linearGradient><radialGradient id="radialGradient4270" cx="23.202" cy="27.096" r="23.555" fx="23.202" fy="27.096" gradientTransform="matrix(1,0,0,0.651032,0,9.455693)" gradientUnits="userSpaceOnUse" xlink:href="#linearGradient4264"/><radialGradient id="radialGradient2679" cx="40.797" cy="33.734" r=".984" fx="40.797" fy="33.734" gradientTransform="matrix(1.253968,0,0,1.253968,-10.36111,-8.56746)" gradientUnits="userSpaceOnUse" xlink:href="#linearGradient2673"/><linearGradient id="linearGradient2687" x1="25.785" x2="25.785" y1="32.363" y2="35.67" gradientUnits="userSpaceOnUse" xlink:href="#linearGradient2681"/><linearGradient id="linearGradient2687-7" x1="25.785" x2="25.785" y1="32.363" y2="35.67" gradientUnits="userSpaceOnUse" xlink:href="#linearGradient2681-7"/><linearGradient id="linearGradient2681-7"><stop id="stop2683-0" offset="0" stop-color="#000" stop-opacity=".475"/><stop id="stop2685-9" offset="1" stop-color="#000" stop-opacity="0"/></linearGradient><linearGradient id="linearGradient2689-7" x1="25.785" x2="25.785" y1="32.363" y2="35.67" gradientUnits="userSpaceOnUse" xlink:href="#linearGradient2681-7"/><linearGradient id="linearGradient3820"><stop id="stop3822" offset="0" stop-color="#000" stop-opacity=".475"/><stop id="stop3824" offset="1" stop-color="#000" stop-opacity="0"/></linearGradient><linearGradient id="linearGradient2681-7-3"><stop id="stop2683-0-9" offset="0" stop-color="#000" stop-opacity=".475"/><stop id="stop2685-9-3" offset="1" stop-color="#000" stop-opacity="0"/></linearGradient><linearGradient id="linearGradient3828-9" x1="25.785" x2="25.785" y1="32.363" y2="35.67" gradientUnits="userSpaceOnUse" xlink:href="#linearGradient2681-7-3"/><linearGradient id="linearGradient3872"><stop id="stop3874" offset="0" stop-color="#000" stop-opacity=".475"/><stop id="stop3876" offset="1" stop-color="#000" stop-opacity="0"/></linearGradient><linearGradient id="linearGradient3923" x1="5.341" x2="43.272" y1="34.296" y2="34.296" gradientUnits="userSpaceOnUse" xlink:href="#linearGradient4228"/><linearGradient id="linearGradient4260-4" x1="12.378" x2="44.096" y1="4.433" y2="47.621" gradientTransform="translate(1.566757,-1.310285)" gradientUnits="userSpaceOnUse" xlink:href="#linearGradient4254-5"/><linearGradient id="linearGradient4254-5"><stop id="stop4256-1" offset="0" stop-color="#fff" stop-opacity="1"/><stop id="stop4258-9" offset="1" stop-color="#fff" stop-opacity="0"/></linearGradient><linearGradient id="linearGradient4000" x1="12.378" x2="44.096" y1="4.433" y2="47.621" gradientTransform="translate(-0.36533099,-0.21309461)" gradientUnits="userSpaceOnUse" xlink:href="#linearGradient4254-5"/><linearGradient id="linearGradient4084" x1="302.857" x2="302.857" y1="366.648" y2="609.505" gradientTransform="matrix(2.774389,0,0,1.969706,-1892.179,-872.8854)" gradientUnits="userSpaceOnUse" xlink:href="#linearGradient5048"/><radialGradient id="radialGradient4086" cx="605.714" cy="486.648" r="117.143" fx="605.714" fy="486.648" gradientTransform="matrix(2.774389,0,0,1.969706,-1891.633,-872.8854)" gradientUnits="userSpaceOnUse" xlink:href="#linearGradient5060"/><radialGradient id="radialGradient4088" cx="605.714" cy="486.648" r="117.143" fx="605.714" fy="486.648" gradientTransform="matrix(-2.774389,0,0,1.969706,112.7623,-872.8854)" gradientUnits="userSpaceOnUse" xlink:href="#linearGradient5060"/><radialGradient id="radialGradient4090" cx="40.797" cy="33.734" r=".984" fx="40.797" fy="33.734" gradientTransform="matrix(1.253968,0,0,1.253968,-10.36111,-8.56746)" gradientUnits="userSpaceOnUse" xlink:href="#linearGradient2673"/><linearGradient id="linearGradient4092" x1="5.341" x2="43.272" y1="34.296" y2="34.296" gradientUnits="userSpaceOnUse" xlink:href="#linearGradient4228"/><linearGradient id="linearGradient4094" x1="5.341" x2="43.272" y1="34.296" y2="34.296" gradientUnits="userSpaceOnUse" xlink:href="#linearGradient4228"/><linearGradient id="linearGradient4096" x1="12.378" x2="44.096" y1="4.433" y2="47.621" gradientTransform="translate(-0.36533099,-0.21309461)" gradientUnits="userSpaceOnUse" xlink:href="#linearGradient4254-5"/><filter id="filter3587-3-5" width="2.966" height="3.027" x="-.983" y="-1.013" color-interpolation-filters="sRGB"><feGaussianBlur id="feGaussianBlur3589-6-6" stdDeviation=".811"/></filter><filter id="filter3671-2-2" width="2.389" height="2.307" x="-.694" y="-.654" color-interpolation-filters="sRGB"><feGaussianBlur id="feGaussianBlur3673-1-6" stdDeviation=".244"/></filter><radialGradient id="radialGradient5775" cx="117.007" cy="244.672" r="2.753" fx="117.007" fy="244.672" gradientTransform="matrix(0.0066783,1.7828418,-4.7399229,-0.01863663,1183.7332,-160.50647)" gradientUnits="userSpaceOnUse" xlink:href="#linearGradient3335-4-0"/><linearGradient id="linearGradient3335-4-0"><stop id="stop3337-0-2" offset="0" stop-color="#58ff58" stop-opacity="1"/><stop id="stop3339-5-4" offset="1" stop-color="#000" stop-opacity="1"/></linearGradient><radialGradient id="radialGradient5869-7" cx="117.007" cy="244.672" r="2.753" fx="117.007" fy="244.672" gradientTransform="matrix(0.00552059,4.0539174,-3.9182356,-0.04237692,983.63733,-423.38955)" gradientUnits="userSpaceOnUse" xlink:href="#linearGradient3335-4-0-3"/><linearGradient id="linearGradient3335-4-0-3"><stop id="stop3337-0-2-4" offset="0" stop-color="#58ff58" stop-opacity="1"/><stop id="stop3339-5-4-7" offset="1" stop-color="#000" stop-opacity="1"/></linearGradient><linearGradient id="linearGradient3967-9" x1="28.872" x2="39.815" y1="35.38" y2="35.2" gradientUnits="userSpaceOnUse" spreadMethod="pad" xlink:href="#linearGradient3975-2"/><linearGradient id="linearGradient3975-2"><stop id="stop3977-9" offset="0" stop-color="#58ff58" stop-opacity="1"/><stop id="stop3979-3" offset="1" stop-color="#bebebe" stop-opacity="0"/></linearGradient><linearGradient id="linearGradient4019" x1="5.341" x2="43.272" y1="34.296" y2="34.296" gradientUnits="userSpaceOnUse" xlink:href="#linearGradient4228"/><linearGradient id="linearGradient4171" x1="302.857" x2="302.857" y1="366.648" y2="609.505" gradientTransform="matrix(2.774389,0,0,1.969706,-1892.179,-872.8854)" gradientUnits="userSpaceOnUse" xlink:href="#linearGradient5048"/><radialGradient id="radialGradient4173" cx="605.714" cy="486.648" r="117.143" fx="605.714" fy="486.648" gradientTransform="matrix(2.774389,0,0,1.969706,-1891.633,-872.8854)" gradientUnits="userSpaceOnUse" xlink:href="#linearGradient5060"/><radialGradient id="radialGradient4175" cx="605.714" cy="486.648" r="117.143" fx="605.714" fy="486.648" gradientTransform="matrix(-2.774389,0,0,1.969706,112.7623,-872.8854)" gradientUnits="userSpaceOnUse" xlink:href="#linearGradient5060"/><linearGradient id="linearGradient4179" x1="5.341" x2="43.272" y1="34.296" y2="34.296" gradientUnits="userSpaceOnUse" xlink:href="#linearGradient4228"/><linearGradient id="linearGradient4181" x1="5.341" x2="43.272" y1="34.296" y2="34.296" gradientUnits="userSpaceOnUse" xlink:href="#linearGradient4228"/><linearGradient id="linearGradient4233" x1="21.105" x2="9.505" y1="35.524" y2="36.243" gradientTransform="matrix(0.57094219,0,0,1,1.8924496,-0.99474297)" gradientUnits="userSpaceOnUse" spreadMethod="pad" xlink:href="#linearGradient3975-2"/><linearGradient id="linearGradient4237" x1="28.872" x2="39.815" y1="35.38" y2="35.2" gradientTransform="matrix(0.50237924,0,0,1,18.429943,-0.70710678)" gradientUnits="userSpaceOnUse" spreadMethod="pad" xlink:href="#linearGradient3975"/><radialGradient id="radialGradient4240" cx="116.981" cy="244.736" r="2.753" fx="116.981" fy="244.736" gradientTransform="matrix(-0.45349687,2.1485569,-3.8199564,-1.0787809,1012.2145,47.149891)" gradientUnits="userSpaceOnUse" xlink:href="#linearGradient3335-4-0"/><linearGradient id="linearGradient4245" x1="12.378" x2="44.096" y1="4.433" y2="47.621" gradientTransform="matrix(0.9663666,0,0,1.2356889,1.0663691,-6.0084502)" gradientUnits="userSpaceOnUse" xlink:href="#linearGradient4254-5"/><linearGradient id="linearGradient4251" x1="40.206" x2="42.761" y1="38.796" y2="38.796" gradientTransform="matrix(1.2089643,0,0,1,-9.2185508,-6.8017329)" gradientUnits="userSpaceOnUse" xlink:href="#linearGradient4039"/></defs><metadata id="metadata4"/><g id="g6707" transform="matrix(0.02304988,0,0,0.02505362,44.815724,38.292406)"><rect id="rect6709" width="1339.633" height="478.357" x="-1559.252" y="-150.697" fill="url(#linearGradient4171)" fill-opacity="1" fill-rule="nonzero" stroke="none" stroke-width="1" color="#000" display="inline" opacity=".402" overflow="visible" visibility="visible" style="marker:none"/><path d="m -219.61876,-150.68038 c 0,0 0,478.33079 0,478.33079 142.874166,0.90045 345.40022,-107.16966 345.40014,-239.196175 0,-132.026537 -159.436816,-239.134595 -345.40014,-239.134615 z" style="marker:none" id="path6711" fill="url(#radialGradient4173)" fill-opacity="1" fill-rule="nonzero" stroke="none" stroke-width="1" color="#000" display="inline" opacity=".402" overflow="visible" visibility="visible"/><path d="m -1559.2523,-150.68038 c 0,0 0,478.33079 0,478.33079 -142.8742,0.90045 -345.4002,-107.16966 -345.4002,-239.196175 0,-132.026537 159.4368,-239.134595 345.4002,-239.134615 z" style="marker:none" id="path6713" fill="url(#radialGradient4175)" fill-opacity="1" fill-rule="nonzero" stroke="none" stroke-width="1" color="#000" display="inline" opacity=".402" overflow="visible" visibility="visible"/></g><path id="path4196" fill="none" stroke="#535353" stroke-dasharray="none" stroke-linecap="round" stroke-linejoin="round" stroke-miterlimit="4" stroke-opacity="1" stroke-width="2.124" d="m 12.483403,4.5129046 c -0.587351,0 -0.969127,0.3483901 -1.204067,1.0130099 -1e-6,0 -6.0790764,20.5345405 -6.0790764,20.5345405 0,0 -0.2349401,0.806274 -0.2349401,2.138569 0,0 0,11.585752 0,11.585752 0,1.299786 0.6181609,1.950978 1.5564784,1.950976 l 36.2395151,0 c 0.925526,0 1.497744,-0.862247 1.497744,-2.213607 l 0,-11.585752 c 0,0 0.09958,-0.92497 -0.0881,-1.575788 L 37.856938,5.7135095 C 37.683529,5.0989139 37.2584,4.5271989 36.799707,4.5129046 l -24.316304,0 z"/><path id="path4170" fill="#000" fill-opacity="1" fill-rule="evenodd" stroke="none" d="m 4.6216928,26.608171 0.7185429,-0.899413 35.3441033,0.0812 3.253834,0.412274 0,13.563027 c 0,1.462479 -0.570452,2.395084 -1.495978,2.395084 l -36.2587706,0 c -0.9383177,0 -1.5617316,-0.704301 -1.5617316,-2.110964 l 0,-13.441217 z"/><path id="path3093" fill="#bebebe" fill-opacity="1" fill-rule="evenodd" stroke="none" d="m 5.2096261,23.824064 c -0.6632841,1.575258 -5.717e-4,2.574201 0.9617618,2.574201 0,0 36.2153071,0 36.2153071,0 1.039144,-0.02562 1.713484,-1.088593 1.326567,-2.305256 L 37.478392,5.5779769 C 37.307044,5.0272746 36.870382,4.514994 36.417138,4.5021868 l -24.010881,0 c -0.580373,0 -0.961761,0.3265795 -1.19391,0.9221055 0,0 -6.0027209,18.3997717 -6.0027209,18.3997717 z"/><path id="path5697" fill="#686868" fill-opacity="1" fill-rule="evenodd" stroke="none" d="m 43.986236,26.543427 c -0.339063,0.02055 -0.520129,0.03425 -1.052894,0.01832 L 5.6758738,26.410452 c -0.5519445,0.02521 -1.0046302,0.461992 -1.0046302,0.461992 l 0.3611186,-1.173839 c 0,0 0.3263311,-0.28869 1.5351151,-0.28869 l 35.7289987,0 c 0.694066,0.01887 1.391025,-0.09659 1.568687,0.16925 z"/><path d="m 42.477434,31.994592 a 1.5444358,1.6320653 0 0 1 -3.088871,0 1.5444358,1.6320653 0 1 1 3.088871,0 z" style="marker:none" id="path2671" fill="url(#linearGradient4251)" fill-opacity="1" fill-rule="evenodd" stroke="none" stroke-width="1.02" color="#000" display="inline" font-family="Bitstream Vera Sans" overflow="visible" visibility="visible"/><g id="g2142" fill="url(#linearGradient4181)" fill-opacity="1" transform="matrix(0.77830688,0,0,0.73265421,5.5527852,9.1356796)"><rect id="rect2151" width="37.931" height="3.865" x="5.341" y="32.363" fill="url(#linearGradient4179)" fill-opacity="1" fill-rule="evenodd" stroke="none" stroke-width="1" color="#000" display="inline" overflow="visible" visibility="visible" style="marker:none"/></g><path d="m 37.704439,6.0577102 c 0,0 6.136028,19.1950108 6.243742,19.7165388 -0.243849,-0.25191 -1.395263,-0.329237 -1.97671,-0.213806 l -35.4759619,0 c -1.5553775,0 -1.6976793,0.730396 -1.6279551,0.78403 L 10.977967,5.6264729 c 0.260648,-0.5716319 0.774889,-1.056081 1.388881,-1.1639448 l 23.807058,0.019395 c 0.868435,0.015137 1.291413,0.7992195 1.530533,1.5757871 z" style="marker:none" id="path5637" fill="#000" fill-opacity="1" fill-rule="nonzero" stroke="none" stroke-width="1" color="#000" display="inline" overflow="visible" visibility="visible"/><path id="path4252" fill="none" stroke="url(#linearGradient4245)" stroke-dasharray="none" stroke-linecap="round" stroke-linejoin="round" stroke-miterlimit="4" stroke-opacity="1" stroke-width=".268" d="m 12.317305,4.3907578 c -0.581452,0 -0.9594,0.3452005 -1.191981,1.0037338 L 4.9260695,25.895471 c 0,0 -0.2240733,0.79892 -0.2325822,2.118988 l -0.074235,11.516717 c -0.010789,1.674002 0.020835,2.562743 1.1325643,2.566072 l 37.1245924,0.111145 c 1.278621,0.0039 1.257188,-1.094894 1.260008,-2.974495 l 0.01724,-11.490518 c 0,0 0.120365,-0.982569 0.101606,-1.627429 L 37.67776,5.4259079 C 37.50609,4.8169406 37.145627,4.4049199 36.69154,4.3907578 z"/><path id="path3591" fill="red" fill-rule="evenodd" stroke="none" d="m 383.3223,757.32057 c -0.49077,0.42483 -0.49073,0.98909 0.10554,1.5109 0.32348,0.28309 1.57014,0.22105 1.51737,-1.03087 -0.0259,-0.61497 -1.07747,-1.06405 -1.62291,-0.48003 z" filter="url(#filter3587-3-5)" opacity=".562" transform="matrix(0.00219361,0.39061851,-0.88205923,-0.00231456,708.71609,-112.891)"/><path id="path3593" fill="#f2f2f2" fill-opacity="1" fill-rule="nonzero" stroke="none" d="m 384.11497,757.82477 a 0.42216235,0.44854748 0 1 1 -0.84432,0 0.42216235,0.44854748 0 1 1 0.84432,0 z" filter="url(#filter3671-2-2)" transform="matrix(0.00165208,1.0235113,-0.62340559,-0.00569123,513.35419,-356.85234)"/><path id="path3249" fill="url(#radialGradient4240)" fill-opacity="1" fill-rule="evenodd" stroke="none" d="m 9.5791398,32.093382 -0.08925,4.656945 29.8986732,-0.175432 -0.05539,-4.58132 -29.7540712,0.15821 z"/><path id="path3249-3" fill="url(#linearGradient4237)" fill-opacity="1" fill-rule="evenodd" stroke="none" d="m 23.950567,32.840459 0.07867,2.840737 14.53937,-0.02731 -0.07505,-2.722468 -14.543045,-0.0909 z"/><path id="path3981" fill="none" stroke="#000" stroke-linecap="butt" stroke-linejoin="miter" stroke-opacity="1" stroke-width="1" d="m 31.25956,34.260828 0,0"/><path id="path3249-3-4" fill="url(#linearGradient4233)" fill-opacity="1" fill-rule="evenodd" stroke="none" d="m 9.7173578,32.959603 0.04073,2.688194 15.2466062,0.02354 0.04835,-2.798739 -15.2849022,0.03622 z"/><g id="g3990" transform="matrix(0.52415831,0,0,0.55736898,21.53968,8.9341897)"><g id="g3873" transform="translate(4.478881,0)"><path id="path768-8" fill="none" stroke="#333" stroke-dasharray="none" stroke-miterlimit="4" stroke-width="5.125" d="M 21.325067,42.818508 C 4.9325439,40.62308 6.3961609,22.620578 6.3961609,22.620578" font-size="12"/><path id="path768" fill="none" stroke="#000" stroke-dasharray="none" stroke-miterlimit="4" stroke-opacity="1" stroke-width="3.125" d="M 21.321556,42.978688 C 4.9290323,40.78326 6.3926503,22.780758 6.3926503,22.780758" font-size="12"/></g><g id="g3869"><path id="path769-0" fill="none" stroke="#333" stroke-dasharray="none" stroke-miterlimit="4" stroke-width="5.125" d="M 29.116617,34.999726 C 44.923693,32.072489 43.313713,13.338177 43.313713,13.338177" font-size="12"/><path id="path769" fill="none" stroke="#000" stroke-dasharray="none" stroke-opacity="1" stroke-width="3.125" d="M 29.091918,35.024425 C 44.898993,32.097189 43.289014,13.362877 43.289014,13.362877" font-size="12"/></g><g id="g3877" transform="translate(77.769662,-5.7003941)"><path id="path767-6" fill="none" stroke="#333" stroke-dasharray="none" stroke-miterlimit="4" stroke-width="5.125" d="m -50.489204,12.819834 0,47.128496" font-size="12"/><path id="path767" fill="none" stroke="#000" stroke-dasharray="none" stroke-miterlimit="4" stroke-opacity="1" stroke-width="3.125" d="m -50.489204,12.939092 0,47.128495" font-size="12"/></g><g id="g3917" transform="translate(16.694011,-89.17045)"><path id="path770-9" fill="#4c4c4c" fill-opacity="1" fill-rule="evenodd" stroke="#333" stroke-dasharray="none" stroke-linecap="round" stroke-linejoin="round" stroke-miterlimit="4" stroke-width="5.125" d="m 7.1150288,95.860214 7.7571762,0 -3.805407,-4.537212 -3.9517692,4.537212 z" font-size="12"/><path id="path770" fill="#4c4c4c" fill-opacity="1" fill-rule="evenodd" stroke="#000" stroke-dasharray="none" stroke-linecap="round" stroke-linejoin="round" stroke-opacity="1" stroke-width="3.125" d="m 7.1150288,95.860213 7.7571762,0 -3.805407,-4.537212 -3.9517692,4.537212 z" font-size="12"/></g><g id="g3986" transform="translate(-21.172892,-72.88361)"><path id="path771" fill="#4c4c4c" fill-opacity="1" fill-rule="evenodd" stroke="#333" stroke-dasharray="none" stroke-miterlimit="4" stroke-width="4.455" d="m 14.759949,7.3222513 a 2.290337,2.290337 0 1 1 -4.580674,0 2.290337,2.290337 0 1 1 4.580674,0 z" font-size="12" transform="matrix(1.150273,0,0,1.150273,17.248547,82.742012)"/><path id="path771-1" fill="#4c4c4c" fill-opacity="1" fill-rule="evenodd" stroke="#000" stroke-dasharray="none" stroke-opacity="1" stroke-width="2.717" d="m 14.759949,7.3222513 a 2.290337,2.290337 0 1 1 -4.580674,0 2.290337,2.290337 0 1 1 4.580674,0 z" font-size="12" transform="matrix(1.150273,0,0,1.150273,17.255035,82.744031)"/></g><g id="g3978" transform="translate(-21.987234,-94.463673)"><rect id="rect773" width="4.976" height="4.976" x="62.578" y="101.05" fill="#4c4c4c" fill-opacity="1" fill-rule="evenodd" stroke="#333" stroke-dasharray="none" stroke-miterlimit="4" stroke-width="5.125" font-size="12" rx="1.15"/><rect id="rect773-8" width="4.976" height="4.976" x="62.635" y="101.151" fill="#4c4c4c" fill-opacity="1" fill-rule="evenodd" stroke="#000" stroke-dasharray="none" stroke-opacity="1" stroke-width="3.125" font-size="12" rx="1.15"/></g><g id="g3982" transform="translate(82.248543,-19.137037)"><path id="path771-8" fill="#4c4c4c" fill-opacity="1" fill-rule="evenodd" stroke="#333" stroke-dasharray="none" stroke-miterlimit="4" stroke-width="4.455" d="m 14.759949,7.3222513 a 2.290337,2.290337 0 1 1 -4.580674,0 2.290337,2.290337 0 1 1 4.580674,0 z" font-size="12" transform="matrix(1.150273,0,0,1.150273,-69.311544,65.014055)"/><path id="path771-1-3" fill="#4c4c4c" fill-opacity="1" fill-rule="evenodd" stroke="#000" stroke-dasharray="none" stroke-opacity="1" stroke-width="2.717" d="m 14.759949,7.3222513 a 2.290337,2.290337 0 1 1 -4.580674,0 2.290337,2.290337 0 1 1 4.580674,0 z" font-size="12" transform="matrix(1.150273,0,0,1.150273,-69.305056,65.016074)"/></g></g></svg>