<svg xmlns="http://www.w3.org/2000/svg" xmlns:svg="http://www.w3.org/2000/svg" xmlns:xlink="http://www.w3.org/1999/xlink" id="svg7951" width="48" height="48" version="1.0"><defs id="defs7953"><linearGradient id="linearGradient3465"><stop id="stop3467" offset="0" stop-color="#ccc" stop-opacity="1"/><stop id="stop3469" offset="1" stop-color="#ccc" stop-opacity="0"/></linearGradient><linearGradient id="linearGradient1865" x1="-65.023" x2="-212.71" y1="238.451" y2="383.427" gradientTransform="scale(0.8979021,1.1137071)" gradientUnits="userSpaceOnUse" xlink:href="#linearGradient1601"/><linearGradient id="linearGradient1863" x1="58.723" x2="-119.612" y1="178.05" y2="372.882" gradientTransform="scale(0.8941942,1.1183253)" gradientUnits="userSpaceOnUse" xlink:href="#linearGradient1601"/><linearGradient id="linearGradient899"><stop id="stop900" offset="0" stop-color="#fff" stop-opacity="0"/><stop id="stop901" offset="1" stop-color="#fff" stop-opacity="1"/></linearGradient><linearGradient id="linearGradient848" x1="-197.631" x2="-236.111" y1="380.682" y2="436.56" gradientTransform="scale(0.8941943,1.1183252)" gradientUnits="userSpaceOnUse" xlink:href="#linearGradient899"/><linearGradient id="linearGradient1731" x1="-219.18" x2="-156.894" y1="572.92" y2="397.458" gradientTransform="scale(0.987334,1.0128284)" gradientUnits="userSpaceOnUse" xlink:href="#linearGradient1601"/><linearGradient id="linearGradient1761" x1="52.677" x2="-83.903" y1="220.767" y2="396.49" gradientTransform="scale(0.8941942,1.1183253)" gradientUnits="userSpaceOnUse" xlink:href="#linearGradient1753"/><linearGradient id="linearGradient1738" x1="-118.477" x2="-32.234" y1="566.042" y2="396.04" gradientTransform="scale(0.987334,1.0128285)" gradientUnits="userSpaceOnUse" xlink:href="#linearGradient1601"/><linearGradient id="linearGradient1753"><stop id="stop1754" offset="0" stop-color="#000" stop-opacity=".455"/><stop id="stop1755" offset="1" stop-color="#000" stop-opacity="0"/></linearGradient><linearGradient id="linearGradient1751" x1="9.315" x2="-203.65" y1="95.409" y2="384.013" gradientTransform="scale(0.8941943,1.1183252)" gradientUnits="userSpaceOnUse" xlink:href="#linearGradient1753"/><linearGradient id="linearGradient1752" x1="-345.631" x2="-142.871" y1="669.915" y2="401.122" gradientTransform="scale(0.987334,1.0128284)" gradientUnits="userSpaceOnUse" xlink:href="#linearGradient1601"/><linearGradient id="linearGradient1607" x1="-1.718" x2="-87.625" y1="254.859" y2="398.143" gradientTransform="scale(0.9050084,1.1049621)" gradientUnits="userSpaceOnUse" xlink:href="#linearGradient1601"/><linearGradient id="linearGradient34262" x1="-118.477" x2="-32.234" y1="566.042" y2="396.04" gradientTransform="scale(0.987334,1.0128285)" gradientUnits="userSpaceOnUse" xlink:href="#linearGradient1601"/><linearGradient id="linearGradient1604" x1="-112.117" x2="-112.117" y1="414.252" y2="507.471" gradientTransform="matrix(1.406171,0,0,1.406171,472.4119,-428.379)" gradientUnits="userSpaceOnUse" xlink:href="#linearGradient1608"/><linearGradient id="linearGradient1608"><stop id="stop1609" offset="0" stop-color="#000" stop-opacity=".455"/><stop id="stop1610" offset="1" stop-color="#fff" stop-opacity=".462"/></linearGradient><linearGradient id="linearGradient1855" x1="18.753" x2="-139.843" y1="603.657" y2="417.203" gradientUnits="userSpaceOnUse" xlink:href="#linearGradient1608"/><linearGradient id="linearGradient1601"><stop id="stop1602" offset="0" stop-color="#fff" stop-opacity="1"/><stop id="stop1603" offset="1" stop-color="#fff" stop-opacity="0"/></linearGradient><linearGradient id="linearGradient1757" x1="268.704" x2="339.089" y1="703.861" y2="373.74" gradientTransform="matrix(1.0262606,0,0,0.9888859,18.421468,-92.395714)" gradientUnits="userSpaceOnUse" xlink:href="#linearGradient1601"/><linearGradient id="linearGradient2089"><stop id="stop2090" offset="0" stop-color="#000" stop-opacity=".586"/><stop id="stop34226" offset=".736" stop-color="#000" stop-opacity=".31"/><stop id="stop2092" offset="1" stop-color="#5f5f5f" stop-opacity="0"/></linearGradient><linearGradient id="linearGradient1848" x1="-34.928" x2="-86.536" y1="531.336" y2="321.577" gradientUnits="userSpaceOnUse" xlink:href="#linearGradient2089"/><linearGradient id="linearGradient1612"><stop id="stop1613" offset="0" stop-color="#868686" stop-opacity="1"/><stop id="stop1768" offset=".394" stop-color="#f3f3f3" stop-opacity="1"/><stop id="stop1769" offset=".479" stop-color="#949494" stop-opacity="1"/><stop id="stop1614" offset="1" stop-color="#d3d3d3" stop-opacity="1"/></linearGradient><linearGradient id="linearGradient1616" x1="-125.321" x2="-33.543" y1="355.218" y2="620.606" gradientUnits="userSpaceOnUse" xlink:href="#linearGradient1612"/><linearGradient id="linearGradient1851"><stop id="stop1852" offset="0" stop-color="#000" stop-opacity=".372"/><stop id="stop1854" offset=".5" stop-color="#000" stop-opacity=".11"/><stop id="stop1853" offset="1" stop-color="#adadad" stop-opacity="0"/></linearGradient><radialGradient id="radialGradient1930" cx="-289.091" cy="598.367" r="125.205" fx="-287.618" fy="543.589" gradientUnits="userSpaceOnUse" xlink:href="#linearGradient1851"/><linearGradient id="linearGradient2300" x1="268.704" x2="339.089" y1="703.861" y2="373.74" gradientTransform="matrix(1.0262606,0,0,-0.9888859,16.373105,591.12055)" gradientUnits="userSpaceOnUse" xlink:href="#linearGradient1601"/><filter id="filter3445" width="1.928" height="1.325" x="-.464" y="-.163" color-interpolation-filters="sRGB"><feGaussianBlur id="feGaussianBlur3447" stdDeviation="7.392"/></filter><linearGradient id="linearGradient3461" x1="268.704" x2="339.089" y1="703.861" y2="373.74" gradientTransform="matrix(1.0379917,0,0,-0.9888859,16.24582,594.19309)" gradientUnits="userSpaceOnUse" xlink:href="#linearGradient1601"/><linearGradient id="linearGradient3471" x1="298.942" x2="363.913" y1="249.507" y2="232.096" gradientUnits="userSpaceOnUse" xlink:href="#linearGradient3465"/><linearGradient id="linearGradient3477" x1="-34.928" x2="-86.536" y1="531.336" y2="321.577" gradientTransform="matrix(1.406171,0,0,1.406171,475.48444,-431.45154)" gradientUnits="userSpaceOnUse" xlink:href="#linearGradient2089"/><linearGradient id="linearGradient3480" x1="268.704" x2="339.089" y1="703.861" y2="373.74" gradientTransform="matrix(1.0497228,0,0,0.9888859,13.777658,-91.623888)" gradientUnits="userSpaceOnUse" xlink:href="#linearGradient1601"/><radialGradient id="radialGradient3086" cx="-289.091" cy="598.367" r="125.205" fx="-287.618" fy="543.589" gradientUnits="userSpaceOnUse" xlink:href="#linearGradient1851"/><linearGradient id="linearGradient3088" x1="-34.928" x2="-86.536" y1="531.336" y2="321.577" gradientUnits="userSpaceOnUse" xlink:href="#linearGradient2089"/><linearGradient id="linearGradient3090" x1="268.704" x2="339.089" y1="703.861" y2="373.74" gradientTransform="matrix(1.0262606,0,0,0.9888859,18.421468,-92.395714)" gradientUnits="userSpaceOnUse" xlink:href="#linearGradient1601"/><linearGradient id="linearGradient3092" x1="298.942" x2="363.913" y1="249.507" y2="232.096" gradientUnits="userSpaceOnUse" xlink:href="#linearGradient3465"/><linearGradient id="linearGradient3094" x1="-112.117" x2="-112.117" y1="414.252" y2="507.471" gradientTransform="matrix(1.406171,0,0,1.406171,472.4119,-428.379)" gradientUnits="userSpaceOnUse" xlink:href="#linearGradient1608"/><linearGradient id="linearGradient3096" x1="268.704" x2="339.089" y1="703.861" y2="373.74" gradientTransform="matrix(1.0262606,0,0,-0.9888859,16.373105,591.12055)" gradientUnits="userSpaceOnUse" xlink:href="#linearGradient1601"/><linearGradient id="linearGradient3098" x1="268.704" x2="339.089" y1="703.861" y2="373.74" gradientTransform="matrix(1.0379917,0,0,-0.9888859,16.24582,594.19309)" gradientUnits="userSpaceOnUse" xlink:href="#linearGradient1601"/><linearGradient id="linearGradient3100" x1="268.704" x2="339.089" y1="703.861" y2="373.74" gradientTransform="matrix(1.0497228,0,0,0.9888859,13.777658,-91.623888)" gradientUnits="userSpaceOnUse" xlink:href="#linearGradient1601"/><radialGradient id="radialGradient3091" cx="-289.091" cy="598.367" r="125.205" fx="-287.618" fy="543.589" gradientUnits="userSpaceOnUse" xlink:href="#linearGradient1851"/><linearGradient id="linearGradient3093" x1="-34.928" x2="-86.536" y1="531.336" y2="321.577" gradientUnits="userSpaceOnUse" xlink:href="#linearGradient2089"/><linearGradient id="linearGradient3095" x1="268.704" x2="339.089" y1="703.861" y2="373.74" gradientTransform="matrix(1.0262606,0,0,0.9888859,18.421468,-92.395714)" gradientUnits="userSpaceOnUse" xlink:href="#linearGradient1601"/><linearGradient id="linearGradient3097" x1="298.942" x2="363.913" y1="249.507" y2="232.096" gradientUnits="userSpaceOnUse" xlink:href="#linearGradient3465"/><linearGradient id="linearGradient3099" x1="-112.117" x2="-112.117" y1="414.252" y2="507.471" gradientTransform="matrix(1.406171,0,0,1.406171,472.4119,-428.379)" gradientUnits="userSpaceOnUse" xlink:href="#linearGradient1608"/><linearGradient id="linearGradient3101" x1="268.704" x2="339.089" y1="703.861" y2="373.74" gradientTransform="matrix(1.0262606,0,0,-0.9888859,16.373105,591.12055)" gradientUnits="userSpaceOnUse" xlink:href="#linearGradient1601"/><linearGradient id="linearGradient3103" x1="268.704" x2="339.089" y1="703.861" y2="373.74" gradientTransform="matrix(1.0379917,0,0,-0.9888859,16.24582,594.19309)" gradientUnits="userSpaceOnUse" xlink:href="#linearGradient1601"/><linearGradient id="linearGradient3105" x1="268.704" x2="339.089" y1="703.861" y2="373.74" gradientTransform="matrix(1.0497228,0,0,0.9888859,13.777658,-91.623888)" gradientUnits="userSpaceOnUse" xlink:href="#linearGradient1601"/><radialGradient id="radialGradient3147" cx="-289.091" cy="598.367" r="125.205" fx="-287.618" fy="543.589" gradientUnits="userSpaceOnUse" xlink:href="#linearGradient1851"/><linearGradient id="linearGradient3149" x1="-34.928" x2="-86.536" y1="531.336" y2="321.577" gradientUnits="userSpaceOnUse" xlink:href="#linearGradient2089"/><linearGradient id="linearGradient3151" x1="268.704" x2="339.089" y1="703.861" y2="373.74" gradientTransform="matrix(1.0262606,0,0,0.9888859,18.421468,-92.395714)" gradientUnits="userSpaceOnUse" xlink:href="#linearGradient1601"/><linearGradient id="linearGradient3153" x1="298.942" x2="363.913" y1="249.507" y2="232.096" gradientUnits="userSpaceOnUse" xlink:href="#linearGradient3465"/><linearGradient id="linearGradient3155" x1="-112.117" x2="-112.117" y1="414.252" y2="507.471" gradientTransform="matrix(1.406171,0,0,1.406171,472.4119,-428.379)" gradientUnits="userSpaceOnUse" xlink:href="#linearGradient1608"/><linearGradient id="linearGradient3157" x1="268.704" x2="339.089" y1="703.861" y2="373.74" gradientTransform="matrix(1.0262606,0,0,-0.9888859,16.373105,591.12055)" gradientUnits="userSpaceOnUse" xlink:href="#linearGradient1601"/><linearGradient id="linearGradient3159" x1="268.704" x2="339.089" y1="703.861" y2="373.74" gradientTransform="matrix(1.0379917,0,0,-0.9888859,16.24582,594.19309)" gradientUnits="userSpaceOnUse" xlink:href="#linearGradient1601"/><linearGradient id="linearGradient3161" x1="268.704" x2="339.089" y1="703.861" y2="373.74" gradientTransform="matrix(1.0497228,0,0,0.9888859,13.777658,-91.623888)" gradientUnits="userSpaceOnUse" xlink:href="#linearGradient1601"/><radialGradient id="radialGradient3186" cx="-289.091" cy="598.367" r="125.205" fx="-287.618" fy="543.589" gradientUnits="userSpaceOnUse" xlink:href="#linearGradient1851"/><linearGradient id="linearGradient3188" x1="-34.928" x2="-86.536" y1="531.336" y2="321.577" gradientUnits="userSpaceOnUse" xlink:href="#linearGradient2089"/><linearGradient id="linearGradient3190" x1="268.704" x2="339.089" y1="703.861" y2="373.74" gradientTransform="matrix(1.0262606,0,0,0.9888859,18.421468,-92.395714)" gradientUnits="userSpaceOnUse" xlink:href="#linearGradient1601"/><linearGradient id="linearGradient3192" x1="298.942" x2="363.913" y1="249.507" y2="232.096" gradientUnits="userSpaceOnUse" xlink:href="#linearGradient3465"/><linearGradient id="linearGradient3194" x1="-112.117" x2="-112.117" y1="414.252" y2="507.471" gradientTransform="matrix(1.406171,0,0,1.406171,472.4119,-428.379)" gradientUnits="userSpaceOnUse" xlink:href="#linearGradient1608"/><linearGradient id="linearGradient3196" x1="268.704" x2="339.089" y1="703.861" y2="373.74" gradientTransform="matrix(1.0262606,0,0,-0.9888859,16.373105,591.12055)" gradientUnits="userSpaceOnUse" xlink:href="#linearGradient1601"/><linearGradient id="linearGradient3198" x1="268.704" x2="339.089" y1="703.861" y2="373.74" gradientTransform="matrix(1.0379917,0,0,-0.9888859,16.24582,594.19309)" gradientUnits="userSpaceOnUse" xlink:href="#linearGradient1601"/><linearGradient id="linearGradient3200" x1="268.704" x2="339.089" y1="703.861" y2="373.74" gradientTransform="matrix(1.0497228,0,0,0.9888859,13.777658,-91.623888)" gradientUnits="userSpaceOnUse" xlink:href="#linearGradient1601"/><radialGradient id="radialGradient3224" cx="-289.091" cy="598.367" r="125.205" fx="-287.618" fy="543.589" gradientUnits="userSpaceOnUse" xlink:href="#linearGradient1851"/><linearGradient id="linearGradient3226" x1="-34.928" x2="-86.536" y1="531.336" y2="321.577" gradientUnits="userSpaceOnUse" xlink:href="#linearGradient2089"/><linearGradient id="linearGradient3228" x1="268.704" x2="339.089" y1="703.861" y2="373.74" gradientTransform="matrix(1.0262606,0,0,0.9888859,18.421468,-92.395714)" gradientUnits="userSpaceOnUse" xlink:href="#linearGradient1601"/><linearGradient id="linearGradient3230" x1="298.942" x2="363.913" y1="249.507" y2="232.096" gradientUnits="userSpaceOnUse" xlink:href="#linearGradient3465"/><linearGradient id="linearGradient3232" x1="-112.117" x2="-112.117" y1="414.252" y2="507.471" gradientTransform="matrix(1.406171,0,0,1.406171,472.4119,-428.379)" gradientUnits="userSpaceOnUse" xlink:href="#linearGradient1608"/><linearGradient id="linearGradient3234" x1="268.704" x2="339.089" y1="703.861" y2="373.74" gradientTransform="matrix(1.0262606,0,0,-0.9888859,16.373105,591.12055)" gradientUnits="userSpaceOnUse" xlink:href="#linearGradient1601"/><linearGradient id="linearGradient3236" x1="268.704" x2="339.089" y1="703.861" y2="373.74" gradientTransform="matrix(1.0379917,0,0,-0.9888859,16.24582,594.19309)" gradientUnits="userSpaceOnUse" xlink:href="#linearGradient1601"/><linearGradient id="linearGradient3238" x1="268.704" x2="339.089" y1="703.861" y2="373.74" gradientTransform="matrix(1.0497228,0,0,0.9888859,13.777658,-91.623888)" gradientUnits="userSpaceOnUse" xlink:href="#linearGradient1601"/><linearGradient id="linearGradient3244" x1="268.704" x2="339.089" y1="703.861" y2="373.74" gradientTransform="matrix(0.13459363,0,0,-0.12254968,17.422135,61.019934)" gradientUnits="userSpaceOnUse" xlink:href="#linearGradient1601"/><linearGradient id="linearGradient3256" x1="298.942" x2="363.913" y1="249.507" y2="232.096" gradientTransform="matrix(0.12966735,0,0,0.12392702,-14.989502,-7.7352887)" gradientUnits="userSpaceOnUse" xlink:href="#linearGradient3465"/><linearGradient id="linearGradient3258" x1="-112.117" x2="-112.117" y1="414.252" y2="507.471" gradientTransform="matrix(0.18233447,0,0,0.17426258,46.266897,-60.823022)" gradientUnits="userSpaceOnUse" xlink:href="#linearGradient1608"/><linearGradient id="linearGradient3261" x1="268.704" x2="339.089" y1="703.861" y2="373.74" gradientTransform="matrix(0.14297351,0,0,0.13128588,-14.817691,-22.706385)" gradientUnits="userSpaceOnUse" xlink:href="#linearGradient1601"/><linearGradient id="linearGradient3264" x1="-34.928" x2="-86.536" y1="531.336" y2="321.577" gradientTransform="matrix(0.18233447,0,0,0.17426258,46.266897,-60.823022)" gradientUnits="userSpaceOnUse" xlink:href="#linearGradient1612"/><radialGradient id="radialGradient3267" cx="-289.091" cy="598.367" r="125.205" fx="-287.618" fy="543.589" gradientTransform="matrix(0.17873633,0,0,0.01638043,74.963293,36.597769)" gradientUnits="userSpaceOnUse" xlink:href="#linearGradient1851"/></defs><metadata id="metadata7956"/><path id="path2036" fill="url(#radialGradient3267)" fill-opacity="1" fill-rule="evenodd" stroke="none" d="m 45.670855,46.39927 c 0,-1.132688 -10.019284,-2.050913 -22.378698,-2.050913 -12.359413,0 -22.37869815,0.918225 -22.37869815,2.050913 0,1.132688 10.01928515,2.050913 22.37869815,2.050913 12.359414,0 22.378698,-0.918225 22.378698,-2.050913 l 0,0 z"/><path id="path965" fill="#000" fill-opacity="1" fill-rule="evenodd" stroke="#bebebe" stroke-dasharray="none" stroke-linecap="butt" stroke-linejoin="miter" stroke-miterlimit="4" stroke-opacity="1" stroke-width=".927" d="m 23.965112,0.83870279 c -13.08822,0 -23.71487687,10.15077421 -23.71487687,22.65958121 0,12.508808 10.62665687,22.66503 23.71487687,22.665027 13.088221,0 23.709179,-10.156217 23.709179,-22.665027 0,-12.508809 -10.620958,-22.65958121 -23.709179,-22.65958121 z m 0,15.56382621 c 4.09812,2e-6 7.424432,3.179057 7.424432,7.095755 0,3.9167 -3.326311,7.095754 -7.424432,7.095754 -4.09812,-3e-6 -7.424432,-3.179056 -7.424432,-7.095754 0,-3.916696 3.326312,-7.095755 7.424432,-7.095755 z"/><path id="path1756" fill="url(#linearGradient3261)" fill-opacity="1" fill-rule="evenodd" stroke="none" d="m 23.981406,1.6457367 c -13.779565,0 -24.76550644,8.9231633 -24.76550644,22.0545133 0,13.131352 11.18797944,23.793033 24.96754344,23.79303 13.77957,0 24.961548,-10.661677 24.961548,-23.79303 0,-13.131353 -11.384017,-22.0545133 -25.163585,-22.0545133 z m 0.202037,14.6056123 c 4.314591,4e-6 7.816608,3.337276 7.816608,7.448901 0,4.111628 -3.502017,7.448898 -7.816608,7.448898 -4.314591,-5e-6 -7.816604,-3.337271 -7.816604,-7.448898 0,-4.111622 3.502013,-7.448901 7.816604,-7.448901 z"/><path id="path964" fill="url(#linearGradient3256)" fill-opacity="1" fill-rule="evenodd" stroke="url(#linearGradient3258)" stroke-linecap="butt" stroke-linejoin="miter" stroke-miterlimit="4" stroke-opacity="1" stroke-width=".151" d="m 23.965113,15.70371 c -4.501721,0 -8.155623,3.492145 -8.155623,7.794575 0,4.302431 3.653902,7.794572 8.155623,7.794576 4.501721,0 8.155621,-3.492142 8.155621,-7.794576 0,-4.302432 -3.6539,-7.794574 -8.155621,-7.794575 z m -0.08763,4.091702 c 2.138316,-10e-7 3.87439,1.65922 3.87439,3.702873 0,2.043655 -1.736074,3.702872 -3.87439,3.702872 -2.138317,-4e-6 -3.874389,-1.659218 -3.874389,-3.702872 0,-2.043652 1.736072,-3.702873 3.874389,-3.702873 z"/><path id="path2302" fill="#00f" fill-rule="evenodd" stroke="#000" stroke-linecap="butt" stroke-linejoin="miter" stroke-opacity="1" stroke-width=".579" d="m 276.00556,79.378344 16.98729,100.603186 6.73327,-1.13019 13.94891,-101.565764 -7.58198,-3.437248 -10.09016,-2.430189 -9.70574,3.049703 -6.81858,5.690346 -3.47301,-0.779844 z" filter="url(#filter3445)" opacity=".386" transform="matrix(0.12956748,0,0,0.13675423,-14.960058,-9.0303578)"/><path id="path3449" fill="#00f" fill-rule="evenodd" stroke="#000" stroke-linecap="butt" stroke-linejoin="miter" stroke-opacity="1" stroke-width=".579" d="m 279.0781,318.01255 16.98729,100.60318 6.73327,-1.13019 13.94891,-101.56576 -7.58198,-3.43725 -10.09016,-2.43019 -9.70574,3.04971 -6.81858,5.69034 -3.47301,-0.77984 z" filter="url(#filter3445)" opacity=".356" transform="matrix(0.12961227,0,0,-0.13092348,-14.043471,86.511582)"/><path id="path3451" fill="#f0f" fill-rule="evenodd" stroke="#000" stroke-linecap="butt" stroke-linejoin="miter" stroke-opacity="1" stroke-width=".579" d="m 276.00556,79.378344 16.98729,100.603186 6.73327,-1.13019 13.94891,-101.565764 -7.58198,-3.437248 -10.09016,-2.430189 -9.70574,3.049703 -6.81858,5.690346 -3.47301,-0.779844 z" filter="url(#filter3445)" opacity=".398" transform="matrix(0.1275817,0.02159701,-0.02495558,0.13465831,-7.9175855,-14.626874)"/><path id="path3453" fill="#f0f" fill-rule="evenodd" stroke="#000" stroke-linecap="butt" stroke-linejoin="miter" stroke-opacity="1" stroke-width=".579" d="m 276.00556,79.378344 16.98729,100.603186 6.73327,-1.13019 13.94891,-101.565764 -7.58198,-3.437248 -10.09016,-2.430189 -9.70574,3.049703 -6.81858,5.690346 -3.47301,-0.779844 z" filter="url(#filter3445)" opacity=".389" transform="matrix(0.12594068,0.02909376,0.03361815,-0.13292627,-21.481559,46.09698)"/><path id="path3455" fill="#0f0" fill-rule="evenodd" stroke="#000" stroke-linecap="butt" stroke-linejoin="miter" stroke-opacity="1" stroke-width=".579" d="m 276.00556,79.378344 16.98729,100.603186 6.73327,-1.13019 13.94891,-101.565764 -7.58198,-3.437248 -10.09016,-2.430189 -9.70574,3.049703 -6.81858,5.690346 -3.47301,-0.779844 z" filter="url(#filter3445)" opacity=".398" transform="matrix(0.11464052,0.05770336,0.06667684,-0.12099932,-25.45593,35.475792)"/><path id="path3457" fill="#0f0" fill-rule="evenodd" stroke="#000" stroke-linecap="butt" stroke-linejoin="miter" stroke-opacity="1" stroke-width=".579" d="m 276.00556,79.378344 16.98729,100.603186 6.73327,-1.13019 13.94891,-101.565764 -7.58198,-3.437248 -10.09016,-2.430189 -9.70574,3.049703 -6.81858,5.690346 -3.47301,-0.779844 z" filter="url(#filter3445)" opacity=".255" transform="matrix(0.1206028,0.04765072,-0.05219364,0.13428517,1.3127531,-21.201019)"/><text id="text3102" x="4.301" y="24.985" fill="#fff" fill-opacity="1" stroke="none" font-family="Sans" font-size="4" font-style="normal" font-weight="bold" letter-spacing="0" word-spacing="0" xml:space="preserve" style="line-height:125%;-inkscape-font-specification:Sans Bold"><tspan id="tspan3104" x="4.301" y="24.985">DVD</tspan></text><text font-style="normal" style="text-align:start;line-height:125%;-inkscape-font-specification:Sans Bold" id="text3102-9" x="35.055" y="22.142" fill="#fff" fill-opacity="1" stroke="none" font-family="Sans" font-size="2.767" font-weight="bold" letter-spacing="0" text-anchor="start" transform="scale(0.98505067,1.0151762)" word-spacing="0" xml:space="preserve"><tspan id="tspan3895" x="35.055" y="22.142"><tspan style="text-align:start" id="tspan4132" text-anchor="start">Drives</tspan></tspan></text><text font-style="normal" style="text-align:start;line-height:125%;-inkscape-font-specification:Sans Bold" id="text3102-9-2" x="33.354" y="25.662" fill="#fff" fill-opacity="1" stroke="none" font-family="Sans" font-size="2.767" font-weight="bold" letter-spacing="0" text-anchor="start" transform="scale(0.98505067,1.0151762)" word-spacing="0" xml:space="preserve"><tspan id="tspan3895-9" x="33.354" y="25.662"><tspan style="text-align:start" id="tspan3897-5" text-anchor="start">Manage</tspan>r</tspan></text></svg>