<?xml version="1.0" encoding="UTF-8" standalone="no"?>
<!-- Created with Inkscape (http://www.inkscape.org/) -->

<svg
   xmlns:dc="http://purl.org/dc/elements/1.1/"
   xmlns:cc="http://creativecommons.org/ns#"
   xmlns:rdf="http://www.w3.org/1999/02/22-rdf-syntax-ns#"
   xmlns:svg="http://www.w3.org/2000/svg"
   xmlns="http://www.w3.org/2000/svg"
   version="1.0"
   width="48"
   height="48"
   id="svg2">
  <metadata
     id="metadata16">
    <rdf:RDF>
      <cc:Work
         rdf:about="">
        <dc:format>image/svg+xml</dc:format>
        <dc:type
           rdf:resource="http://purl.org/dc/dcmitype/StillImage" />
        <dc:title></dc:title>
      </cc:Work>
    </rdf:RDF>
  </metadata>
  <defs
     id="defs4" />
  <g
     transform="matrix(0.97399126,0,0,0.94224871,0.03347291,0.07751294)"
     id="g2996">
    <rect
       width="46.020756"
       height="45.418037"
       ry="6.7028823"
       x="2.0452487"
       y="-47.524868"
       transform="matrix(0,1,-1,0,0,0)"
       id="rect7214"
       style="opacity:0.5;fill:#000000;fill-opacity:1;fill-rule:nonzero;stroke:#ffffff;stroke-width:1.40612686;stroke-linecap:butt;stroke-linejoin:round;stroke-miterlimit:4;stroke-opacity:1;stroke-dasharray:none" />
    <g
       id="g2993">
      <rect
         width="24.41"
         height="43.359398"
         ry="6.399065"
         x="22.845253"
         y="-46.167347"
         transform="matrix(0,1,-1,0,0,0)"
         id="rect7214-4"
         style="opacity:0.69140625;fill:#000000;fill-opacity:1;fill-rule:nonzero;stroke:none" />
    </g>
    <rect
       width="46.128609"
       height="44.915722"
       ry="6.6287498"
       x="2.0582035"
       y="-46.882179"
       transform="matrix(0,1,-1,0,0,0)"
       id="rect7214-1"
       style="opacity:0.890625;fill:#000000;fill-opacity:1;fill-rule:nonzero;stroke:#ffffff;stroke-width:1.39996707;stroke-linecap:butt;stroke-linejoin:round;stroke-miterlimit:4;stroke-opacity:1;stroke-dasharray:none" />
  </g>
  <g
     transform="matrix(0,-0.11124504,0.14221465,0,-0.3415164,43.516104)"
     id="layer2"
     style="display:inline">
    <rect
       width="33.971706"
       height="34.054432"
       x="226.23077"
       y="198.17175"
       id="rect1933"
       style="fill:#ffffff;fill-opacity:1;fill-rule:nonzero;stroke:none" />
    <path
       d="m 92.57172,87.795685 a 24.204533,24.204533 0 1 1 -48.409065,0 24.204533,24.204533 0 1 1 48.409065,0 z"
       transform="matrix(1.027502,0,0,1.027502,3.164391,82.27125)"
       id="path2830"
       style="fill:#ffffff;fill-opacity:1;fill-rule:nonzero;stroke:none" />
    <path
       d="m 92.57172,87.795685 a 24.204533,24.204533 0 1 1 -48.409065,0 24.204533,24.204533 0 1 1 48.409065,0 z"
       transform="matrix(0.683726,0,0,0.683726,157.7966,69.64945)"
       id="path4602"
       style="fill:#ffffff;fill-opacity:1;fill-rule:nonzero;stroke:none" />
    <path
       d="m 280.71527,156.68252 c 0,0 33.7386,15.4741 33.23125,15.85461 -0.50734,0.38051 -33.23125,15.34727 -33.23125,15.34727 l 0,-31.20188 z"
       id="path4608"
       style="fill:#ffffff;fill-opacity:1;fill-rule:evenodd;stroke:none" />
    <path
       d="m 105.26052,171.85683 c 29.11504,-2.74237 43.80379,-42.36574 60.69526,-42.36574 11.42079,0 16.41714,0.52924 30.94969,0.52924"
       id="path2766"
       style="fill:none;stroke:#ffffff;stroke-width:9.56692886;stroke-linecap:round;stroke-linejoin:round;stroke-miterlimit:4;stroke-opacity:1;stroke-dasharray:none" />
    <path
       d="m 139.78853,172.06998 c 30.07966,0 37.16402,28.45664 59.41407,42.56265 3.77011,2.15435 37.77275,0.75371 39.94619,0.75371"
       id="path3653"
       style="fill:none;stroke:#ffffff;stroke-width:9.56692886;stroke-linecap:butt;stroke-linejoin:round;stroke-miterlimit:4;stroke-opacity:1;stroke-dasharray:none" />
    <path
       d="m 74.032648,171.98191 215.131262,0"
       id="path5436"
       style="fill:none;stroke:#ffffff;stroke-width:9.56692886;stroke-linecap:butt;stroke-linejoin:miter;stroke-miterlimit:4;stroke-opacity:1;stroke-dasharray:none;display:inline" />
  </g>
</svg>
