<svg xmlns="http://www.w3.org/2000/svg" xmlns:svg="http://www.w3.org/2000/svg" xmlns:xlink="http://www.w3.org/1999/xlink" id="svg2" width="48" height="48" version="1.0"><metadata id="metadata16"/><defs id="defs4"><linearGradient id="linearGradient3763"><stop id="stop3765" offset="0" stop-color="#bebebe" stop-opacity="1"/><stop id="stop3767" offset="1" stop-color="#bebebe" stop-opacity="0"/></linearGradient><linearGradient id="linearGradient3769" x1="21.603" x2="44.604" y1="-23.884" y2="-23.884" gradientUnits="userSpaceOnUse" xlink:href="#linearGradient3763"/><filter id="filter3445" width="1.928" height="1.325" x="-.464" y="-.163" color-interpolation-filters="sRGB"><feGaussianBlur id="feGaussianBlur3447" stdDeviation="7.392"/></filter><filter id="filter4084" width="1.928" height="1.325" x="-.464" y="-.163" color-interpolation-filters="sRGB"><feGaussianBlur id="feGaussianBlur4086" stdDeviation="7.392"/></filter><filter id="filter4088" width="1.928" height="1.325" x="-.464" y="-.163" color-interpolation-filters="sRGB"><feGaussianBlur id="feGaussianBlur4090" stdDeviation="7.392"/></filter><filter id="filter4092" width="1.928" height="1.325" x="-.464" y="-.163" color-interpolation-filters="sRGB"><feGaussianBlur id="feGaussianBlur4094" stdDeviation="7.392"/></filter><filter id="filter4096" width="1.928" height="1.325" x="-.464" y="-.163" color-interpolation-filters="sRGB"><feGaussianBlur id="feGaussianBlur4098" stdDeviation="7.392"/></filter><filter id="filter4100" width="1.928" height="1.325" x="-.464" y="-.163" color-interpolation-filters="sRGB"><feGaussianBlur id="feGaussianBlur4102" stdDeviation="7.392"/></filter><linearGradient id="linearGradient3256" x1="298.942" x2="363.913" y1="249.507" y2="232.096" gradientTransform="matrix(0.12966735,0,0,0.12392702,-89.610625,-8.1012052)" gradientUnits="userSpaceOnUse" xlink:href="#linearGradient3465"/><linearGradient id="linearGradient3465"><stop id="stop3467" offset="0" stop-color="#ccc" stop-opacity="1"/><stop id="stop3469" offset="1" stop-color="#ccc" stop-opacity="0"/></linearGradient><linearGradient id="linearGradient3258" x1="-112.117" x2="-112.117" y1="414.252" y2="507.471" gradientTransform="matrix(0.18233447,0,0,0.17426258,-28.354226,-61.188939)" gradientUnits="userSpaceOnUse" xlink:href="#linearGradient1608"/><linearGradient id="linearGradient1608"><stop id="stop1609" offset="0" stop-color="#000" stop-opacity=".455"/><stop id="stop1610" offset="1" stop-color="#fff" stop-opacity=".462"/></linearGradient><linearGradient id="linearGradient3261" x1="268.704" x2="339.089" y1="703.861" y2="373.74" gradientTransform="matrix(0.14297351,0,0,0.13128588,-89.438814,-23.072302)" gradientUnits="userSpaceOnUse" xlink:href="#linearGradient1601"/><linearGradient id="linearGradient1601"><stop id="stop1602" offset="0" stop-color="#fff" stop-opacity="1"/><stop id="stop1603" offset="1" stop-color="#fff" stop-opacity="0"/></linearGradient><radialGradient id="radialGradient3267" cx="-289.091" cy="598.367" r="125.205" fx="-287.618" fy="543.589" gradientTransform="matrix(0.17873633,0,0,0.01638043,74.963293,36.597769)" gradientUnits="userSpaceOnUse" xlink:href="#linearGradient1851"/><linearGradient id="linearGradient1851"><stop id="stop1852" offset="0" stop-color="#000" stop-opacity=".372"/><stop id="stop1854" offset=".5" stop-color="#000" stop-opacity=".11"/><stop id="stop1853" offset="1" stop-color="#adadad" stop-opacity="0"/></linearGradient><radialGradient id="radialGradient4139" cx="-289.091" cy="598.367" r="125.205" fx="-287.618" fy="543.589" gradientTransform="matrix(0.17873633,0,0,0.01638043,0.34216953,36.231852)" gradientUnits="userSpaceOnUse" xlink:href="#linearGradient1851"/></defs><rect id="rect7214" width="43.363" height="44.237" x="2.005" y="-46.322" fill="#000" fill-opacity="1" fill-rule="nonzero" stroke="#fff" stroke-dasharray="none" stroke-linecap="butt" stroke-linejoin="round" stroke-miterlimit="4" stroke-opacity="1" stroke-width="1.347" opacity=".5" ry="6.529" transform="matrix(0,1,-1,0,0,0)"/><rect id="rect7214-4" width="23" height="42.232" x="21.603" y="-45" fill="url(#linearGradient3769)" fill-opacity="1" fill-rule="nonzero" stroke="none" opacity=".691" ry="6.233" transform="matrix(0,1,-1,0,0,0)"/><rect id="rect7214-1" width="43.465" height="43.748" x="1.813" y="-46.51" fill="#000" fill-opacity="1" fill-rule="nonzero" stroke="#bebebe" stroke-dasharray="none" stroke-linecap="butt" stroke-linejoin="round" stroke-miterlimit="4" stroke-opacity="1" stroke-width="1.341" opacity=".891" ry="6.456" transform="matrix(0,1,-1,0,0,0)"/><g id="layer2" display="inline" transform="matrix(0,-0.11124504,0.14221465,0,-0.3415164,43.516104)"><rect id="rect1933" width="33.972" height="34.054" x="226.231" y="198.172" fill="#fff" fill-opacity="1" fill-rule="nonzero" stroke="none"/><path id="path2830" fill="#fff" fill-opacity="1" fill-rule="nonzero" stroke="none" d="m 92.57172,87.795685 a 24.204533,24.204533 0 1 1 -48.409065,0 24.204533,24.204533 0 1 1 48.409065,0 z" transform="matrix(1.027502,0,0,1.027502,3.164391,82.27125)"/><path id="path4602" fill="#fff" fill-opacity="1" fill-rule="nonzero" stroke="none" d="m 92.57172,87.795685 a 24.204533,24.204533 0 1 1 -48.409065,0 24.204533,24.204533 0 1 1 48.409065,0 z" transform="matrix(0.683726,0,0,0.683726,157.7966,69.64945)"/><path id="path4608" fill="#fff" fill-opacity="1" fill-rule="evenodd" stroke="none" d="m 280.71527,156.68252 c 0,0 33.7386,15.4741 33.23125,15.85461 -0.50734,0.38051 -33.23125,15.34727 -33.23125,15.34727 l 0,-31.20188 z"/><path id="path2766" fill="none" stroke="#fff" stroke-dasharray="none" stroke-linecap="round" stroke-linejoin="round" stroke-miterlimit="4" stroke-opacity="1" stroke-width="9.567" d="m 105.26052,171.85683 c 29.11504,-2.74237 43.80379,-42.36574 60.69526,-42.36574 11.42079,0 16.41714,0.52924 30.94969,0.52924"/><path id="path3653" fill="none" stroke="#fff" stroke-dasharray="none" stroke-linecap="butt" stroke-linejoin="round" stroke-miterlimit="4" stroke-opacity="1" stroke-width="9.567" d="m 139.78853,172.06998 c 30.07966,0 37.16402,28.45664 59.41407,42.56265 3.77011,2.15435 37.77275,0.75371 39.94619,0.75371"/><path id="path5436" fill="none" stroke="#fff" stroke-dasharray="none" stroke-linecap="butt" stroke-linejoin="miter" stroke-miterlimit="4" stroke-opacity="1" stroke-width="9.567" d="m 74.032648,171.98191 215.131262,0" display="inline"/></g></svg>