<svg xmlns="http://www.w3.org/2000/svg" xmlns:svg="http://www.w3.org/2000/svg" xmlns:xlink="http://www.w3.org/1999/xlink" id="svg2" width="48" height="48" version="1.0"><defs id="defs4"><linearGradient id="linearGradient2690"><stop id="stop2692" offset="0" stop-color="green" stop-opacity="1"/><stop id="stop2694" offset="1" stop-color="green" stop-opacity="0"/></linearGradient><linearGradient id="linearGradient2618"><stop id="stop2620" offset="0" stop-color="#5f9" stop-opacity="1"/><stop id="stop2622" offset="1" stop-color="#5f9" stop-opacity="0"/></linearGradient><linearGradient id="linearGradient2610"><stop id="stop2612" offset="0" stop-color="#5f9" stop-opacity="1"/><stop id="stop2614" offset="1" stop-color="#5f9" stop-opacity="0"/></linearGradient><linearGradient id="linearGradient2602"><stop id="stop2604" offset="0" stop-color="#5f9" stop-opacity="1"/><stop id="stop2606" offset="1" stop-color="#5f9" stop-opacity="0"/></linearGradient><linearGradient id="linearGradient2594"><stop id="stop2596" offset="0" stop-color="#5f9" stop-opacity="1"/><stop id="stop2598" offset="1" stop-color="#5f9" stop-opacity="0"/></linearGradient><linearGradient id="linearGradient2586"><stop id="stop2588" offset="0" stop-color="#5f9" stop-opacity="1"/><stop id="stop2590" offset="1" stop-color="#5f9" stop-opacity="0"/></linearGradient><linearGradient id="linearGradient2578"><stop id="stop2580" offset="0" stop-color="#5f9" stop-opacity="1"/><stop id="stop2582" offset="1" stop-color="#5f9" stop-opacity="0"/></linearGradient><linearGradient id="linearGradient2570"><stop id="stop2572" offset="0" stop-color="#5f9" stop-opacity="1"/><stop id="stop2574" offset="1" stop-color="#5f9" stop-opacity="0"/></linearGradient><linearGradient id="linearGradient2562"><stop id="stop2564" offset="0" stop-color="#5f9" stop-opacity="1"/><stop id="stop2566" offset="1" stop-color="#5f9" stop-opacity="0"/></linearGradient><linearGradient id="linearGradient2554"><stop id="stop2556" offset="0" stop-color="#5f9" stop-opacity="1"/><stop id="stop2558" offset="1" stop-color="#5f9" stop-opacity="0"/></linearGradient><linearGradient id="linearGradient2546"><stop id="stop2548" offset="0" stop-color="#5f9" stop-opacity="1"/><stop id="stop2550" offset="1" stop-color="#5f9" stop-opacity="0"/></linearGradient><linearGradient id="linearGradient14411"><stop id="stop14413" offset="0" stop-color="#fff" stop-opacity="1"/><stop id="stop14415" offset="1" stop-color="#fff" stop-opacity="0"/></linearGradient><linearGradient id="linearGradient9335" x1="372.107" x2="397.592" y1="151.397" y2="157.548" gradientUnits="userSpaceOnUse" xlink:href="#linearGradient2554"/><linearGradient id="linearGradient9337" x1="366.395" x2="383.092" y1="157.548" y2="170.125" gradientUnits="userSpaceOnUse" xlink:href="#linearGradient2546"/><linearGradient id="linearGradient9339" x1="358.486" x2="371.668" y1="160.624" y2="175.906" gradientUnits="userSpaceOnUse" xlink:href="#linearGradient2562"/><linearGradient id="linearGradient9341" x1="344.425" x2="364.198" y1="162.821" y2="182.656" gradientUnits="userSpaceOnUse" xlink:href="#linearGradient2570"/><linearGradient id="linearGradient9343" x1="336.077" x2="353.213" y1="170.73" y2="187.259" gradientUnits="userSpaceOnUse" xlink:href="#linearGradient2578"/><linearGradient id="linearGradient9345" x1="327.728" x2="342.668" y1="172.927" y2="190.943" gradientUnits="userSpaceOnUse" xlink:href="#linearGradient2586"/><linearGradient id="linearGradient9347" x1="317.182" x2="334.758" y1="173.806" y2="193.579" gradientUnits="userSpaceOnUse" xlink:href="#linearGradient2594"/><linearGradient id="linearGradient9349" x1="313.667" x2="325.531" y1="183.034" y2="200.369" gradientUnits="userSpaceOnUse" xlink:href="#linearGradient2602"/><linearGradient id="linearGradient9351" x1="310.152" x2="322.125" y1="187.867" y2="201.906" gradientUnits="userSpaceOnUse" xlink:href="#linearGradient2610"/><linearGradient id="linearGradient9353" x1="303.561" x2="312.578" y1="191.821" y2="203.246" gradientUnits="userSpaceOnUse" xlink:href="#linearGradient2618"/><linearGradient id="linearGradient9355" x1="479.952" x2="468.682" y1="162.772" y2="139.266" gradientUnits="userSpaceOnUse" xlink:href="#linearGradient2690"/><linearGradient id="linearGradient9357" x1="240.384" x2="241.539" y1="115.899" y2="121.178" gradientUnits="userSpaceOnUse" xlink:href="#linearGradient14411"/><filter id="filter11193" width="1.606" height="1.205" x="-.303" y="-.102" color-interpolation-filters="sRGB"><feGaussianBlur id="feGaussianBlur11195" stdDeviation="18.144"/></filter><filter id="filter11189" width="1.355" height="1.211" x="-.178" y="-.106" color-interpolation-filters="sRGB"><feGaussianBlur id="feGaussianBlur11191" stdDeviation="18.144"/></filter><filter id="filter11185" width="1.264" height="1.242" x="-.132" y="-.121" color-interpolation-filters="sRGB"><feGaussianBlur id="feGaussianBlur11187" stdDeviation="18.144"/></filter><filter id="filter11181" width="1.217" height="1.309" x="-.109" y="-.155" color-interpolation-filters="sRGB"><feGaussianBlur id="feGaussianBlur11183" stdDeviation="18.144"/></filter><clipPath id="clipPath4248"><path id="path4250" fill="#666" fill-opacity="1" fill-rule="nonzero" stroke="none" stroke-width="7.2" d="M 372.84375,260.9375 C 255.3466,260.9375 160,356.2841 160,473.78125 c 0,117.49715 95.3466,212.875 212.84375,212.875 117.49715,0 212.875,-95.37785 212.875,-212.875 0,-117.49715 -95.37785,-212.84375 -212.875,-212.84375 z m 0,160 c 29.17714,0 52.875,23.66661 52.875,52.84375 0,29.17714 -23.69786,52.875 -52.875,52.875 -29.17714,0 -52.84375,-23.69786 -52.84375,-52.875 0,-29.17714 23.66661,-52.84375 52.84375,-52.84375 z" color="#000" display="inline" enable-background="accumulate" opacity=".79" overflow="visible" visibility="visible" style="marker:none"/></clipPath><clipPath id="clipPath4244"><path id="path4246" fill="#666" fill-opacity="1" fill-rule="nonzero" stroke="none" stroke-width="7.2" d="M 372.84375,260.9375 C 255.3466,260.9375 160,356.2841 160,473.78125 c 0,117.49715 95.3466,212.875 212.84375,212.875 117.49715,0 212.875,-95.37785 212.875,-212.875 0,-117.49715 -95.37785,-212.84375 -212.875,-212.84375 z m 0,160 c 29.17714,0 52.875,23.66661 52.875,52.84375 0,29.17714 -23.69786,52.875 -52.875,52.875 -29.17714,0 -52.84375,-23.69786 -52.84375,-52.875 0,-29.17714 23.66661,-52.84375 52.84375,-52.84375 z" color="#000" display="inline" enable-background="accumulate" opacity=".79" overflow="visible" visibility="visible" style="marker:none"/></clipPath><clipPath id="clipPath4240"><path id="path4242" fill="#666" fill-opacity="1" fill-rule="nonzero" stroke="none" stroke-width="7.2" d="M 372.84375,260.9375 C 255.3466,260.9375 160,356.2841 160,473.78125 c 0,117.49715 95.3466,212.875 212.84375,212.875 117.49715,0 212.875,-95.37785 212.875,-212.875 0,-117.49715 -95.37785,-212.84375 -212.875,-212.84375 z m 0,160 c 29.17714,0 52.875,23.66661 52.875,52.84375 0,29.17714 -23.69786,52.875 -52.875,52.875 -29.17714,0 -52.84375,-23.69786 -52.84375,-52.875 0,-29.17714 23.66661,-52.84375 52.84375,-52.84375 z" color="#000" display="inline" enable-background="accumulate" opacity=".79" overflow="visible" visibility="visible" style="marker:none"/></clipPath><clipPath id="clipPath4236"><path id="path4238" fill="#666" fill-opacity="1" fill-rule="nonzero" stroke="none" stroke-width="7.2" d="M 372.84375,260.9375 C 255.3466,260.9375 160,356.2841 160,473.78125 c 0,117.49715 95.3466,212.875 212.84375,212.875 117.49715,0 212.875,-95.37785 212.875,-212.875 0,-117.49715 -95.37785,-212.84375 -212.875,-212.84375 z m 0,160 c 29.17714,0 52.875,23.66661 52.875,52.84375 0,29.17714 -23.69786,52.875 -52.875,52.875 -29.17714,0 -52.84375,-23.69786 -52.84375,-52.875 0,-29.17714 23.66661,-52.84375 52.84375,-52.84375 z" color="#000" display="inline" enable-background="accumulate" opacity=".79" overflow="visible" visibility="visible" style="marker:none"/></clipPath><clipPath id="clipPath4232"><path id="path4234" fill="#666" fill-opacity="1" fill-rule="nonzero" stroke="none" stroke-width="7.2" d="M 372.84375,260.9375 C 255.3466,260.9375 160,356.2841 160,473.78125 c 0,117.49715 95.3466,212.875 212.84375,212.875 117.49715,0 212.875,-95.37785 212.875,-212.875 0,-117.49715 -95.37785,-212.84375 -212.875,-212.84375 z m 0,160 c 29.17714,0 52.875,23.66661 52.875,52.84375 0,29.17714 -23.69786,52.875 -52.875,52.875 -29.17714,0 -52.84375,-23.69786 -52.84375,-52.875 0,-29.17714 23.66661,-52.84375 52.84375,-52.84375 z" color="#000" display="inline" enable-background="accumulate" opacity=".79" overflow="visible" visibility="visible" style="marker:none"/></clipPath><linearGradient id="linearGradient5241"><stop id="stop5243" offset="0" stop-color="#7c7c7c" stop-opacity="1"/><stop id="stop5245" offset="1" stop-color="#c6c6c6" stop-opacity="1"/></linearGradient><linearGradient id="linearGradient7185"><stop id="stop7187" offset="0" stop-color="#6f6f6f" stop-opacity="1"/><stop id="stop7189" offset="1" stop-color="#f5f5f5" stop-opacity="1"/></linearGradient><linearGradient id="linearGradient3204" x1="336.077" x2="353.213" y1="170.73" y2="187.259" gradientTransform="matrix(0.4914497,0,0,0.4914497,752.08614,49.946508)" gradientUnits="userSpaceOnUse" xlink:href="#linearGradient2578"/><linearGradient id="linearGradient3280" x1="-73.263" x2="-3.597" y1="514.972" y2="521.377" gradientTransform="translate(235.86516,-28.363359)" gradientUnits="userSpaceOnUse" spreadMethod="reflect" xlink:href="#linearGradient5241"/><linearGradient id="linearGradient3282" x1="-73.263" x2="-3.597" y1="514.972" y2="521.377" gradientTransform="translate(241.35512,-29.278352)" gradientUnits="userSpaceOnUse" spreadMethod="reflect" xlink:href="#linearGradient5241"/><linearGradient id="linearGradient3284" x1="390.196" x2="213.74" y1="473.797" y2="368.657" gradientUnits="userSpaceOnUse" spreadMethod="reflect" xlink:href="#linearGradient7185"/><linearGradient id="linearGradient3077" x1="-73.263" x2="-3.597" y1="514.972" y2="521.377" gradientTransform="translate(235.86516,-28.363359)" gradientUnits="userSpaceOnUse" spreadMethod="reflect" xlink:href="#linearGradient5241"/><linearGradient id="linearGradient3079" x1="-73.263" x2="-3.597" y1="514.972" y2="521.377" gradientTransform="translate(241.35512,-29.278352)" gradientUnits="userSpaceOnUse" spreadMethod="reflect" xlink:href="#linearGradient5241"/><linearGradient id="linearGradient3081" x1="390.196" x2="213.74" y1="473.797" y2="368.657" gradientUnits="userSpaceOnUse" spreadMethod="reflect" xlink:href="#linearGradient7185"/><linearGradient id="linearGradient3090" x1="-73.263" x2="-3.597" y1="514.972" y2="521.377" gradientTransform="matrix(0.10393175,0,0,0.10854636,10.237448,-31.674579)" gradientUnits="userSpaceOnUse" spreadMethod="reflect" xlink:href="#linearGradient5241"/><linearGradient id="linearGradient3093" x1="-73.263" x2="-3.597" y1="514.972" y2="521.377" gradientTransform="matrix(0.10393175,0,0,0.10854636,9.6668668,-31.575259)" gradientUnits="userSpaceOnUse" spreadMethod="reflect" xlink:href="#linearGradient5241"/><linearGradient id="linearGradient3095" x1="390.196" x2="213.74" y1="473.797" y2="368.657" gradientUnits="userSpaceOnUse" spreadMethod="reflect" xlink:href="#linearGradient7185"/><linearGradient id="linearGradient3095-4" x1="390.196" x2="213.74" y1="473.797" y2="368.657" gradientUnits="userSpaceOnUse" spreadMethod="reflect" xlink:href="#linearGradient7185-2"/><linearGradient id="linearGradient7185-2"><stop id="stop7187-8" offset="0" stop-color="#6f6f6f" stop-opacity="1"/><stop id="stop7189-6" offset="1" stop-color="#f5f5f5" stop-opacity="1"/></linearGradient><clipPath id="clipPath4248-4"><path id="path4250-9" fill="#666" fill-opacity="1" fill-rule="nonzero" stroke="none" stroke-width="7.2" d="M 372.84375,260.9375 C 255.3466,260.9375 160,356.2841 160,473.78125 c 0,117.49715 95.3466,212.875 212.84375,212.875 117.49715,0 212.875,-95.37785 212.875,-212.875 0,-117.49715 -95.37785,-212.84375 -212.875,-212.84375 z m 0,160 c 29.17714,0 52.875,23.66661 52.875,52.84375 0,29.17714 -23.69786,52.875 -52.875,52.875 -29.17714,0 -52.84375,-23.69786 -52.84375,-52.875 0,-29.17714 23.66661,-52.84375 52.84375,-52.84375 z" color="#000" display="inline" enable-background="accumulate" opacity=".79" overflow="visible" visibility="visible" style="marker:none"/></clipPath><linearGradient id="linearGradient3909" x1="390.196" x2="213.74" y1="473.797" y2="368.657" gradientUnits="userSpaceOnUse" spreadMethod="reflect" xlink:href="#linearGradient7185"/><clipPath id="clipPath4232-3"><path id="path4234-1" fill="#666" fill-opacity="1" fill-rule="nonzero" stroke="none" stroke-width="7.2" d="M 372.84375,260.9375 C 255.3466,260.9375 160,356.2841 160,473.78125 c 0,117.49715 95.3466,212.875 212.84375,212.875 117.49715,0 212.875,-95.37785 212.875,-212.875 0,-117.49715 -95.37785,-212.84375 -212.875,-212.84375 z m 0,160 c 29.17714,0 52.875,23.66661 52.875,52.84375 0,29.17714 -23.69786,52.875 -52.875,52.875 -29.17714,0 -52.84375,-23.69786 -52.84375,-52.875 0,-29.17714 23.66661,-52.84375 52.84375,-52.84375 z" color="#000" display="inline" enable-background="accumulate" opacity=".79" overflow="visible" visibility="visible" style="marker:none"/></clipPath><filter id="filter11181-5" width="1.217" height="1.309" x="-.109" y="-.155" color-interpolation-filters="sRGB"><feGaussianBlur id="feGaussianBlur11183-7" stdDeviation="18.144"/></filter><clipPath id="clipPath4236-6"><path id="path4238-8" fill="#666" fill-opacity="1" fill-rule="nonzero" stroke="none" stroke-width="7.2" d="M 372.84375,260.9375 C 255.3466,260.9375 160,356.2841 160,473.78125 c 0,117.49715 95.3466,212.875 212.84375,212.875 117.49715,0 212.875,-95.37785 212.875,-212.875 0,-117.49715 -95.37785,-212.84375 -212.875,-212.84375 z m 0,160 c 29.17714,0 52.875,23.66661 52.875,52.84375 0,29.17714 -23.69786,52.875 -52.875,52.875 -29.17714,0 -52.84375,-23.69786 -52.84375,-52.875 0,-29.17714 23.66661,-52.84375 52.84375,-52.84375 z" color="#000" display="inline" enable-background="accumulate" opacity=".79" overflow="visible" visibility="visible" style="marker:none"/></clipPath><filter id="filter11185-2" width="1.264" height="1.242" x="-.132" y="-.121" color-interpolation-filters="sRGB"><feGaussianBlur id="feGaussianBlur11187-5" stdDeviation="18.144"/></filter><clipPath id="clipPath4240-2"><path id="path4242-7" fill="#666" fill-opacity="1" fill-rule="nonzero" stroke="none" stroke-width="7.2" d="M 372.84375,260.9375 C 255.3466,260.9375 160,356.2841 160,473.78125 c 0,117.49715 95.3466,212.875 212.84375,212.875 117.49715,0 212.875,-95.37785 212.875,-212.875 0,-117.49715 -95.37785,-212.84375 -212.875,-212.84375 z m 0,160 c 29.17714,0 52.875,23.66661 52.875,52.84375 0,29.17714 -23.69786,52.875 -52.875,52.875 -29.17714,0 -52.84375,-23.69786 -52.84375,-52.875 0,-29.17714 23.66661,-52.84375 52.84375,-52.84375 z" color="#000" display="inline" enable-background="accumulate" opacity=".79" overflow="visible" visibility="visible" style="marker:none"/></clipPath><filter id="filter11189-5" width="1.355" height="1.211" x="-.178" y="-.106" color-interpolation-filters="sRGB"><feGaussianBlur id="feGaussianBlur11191-8" stdDeviation="18.144"/></filter><clipPath id="clipPath4244-5"><path id="path4246-3" fill="#666" fill-opacity="1" fill-rule="nonzero" stroke="none" stroke-width="7.2" d="M 372.84375,260.9375 C 255.3466,260.9375 160,356.2841 160,473.78125 c 0,117.49715 95.3466,212.875 212.84375,212.875 117.49715,0 212.875,-95.37785 212.875,-212.875 0,-117.49715 -95.37785,-212.84375 -212.875,-212.84375 z m 0,160 c 29.17714,0 52.875,23.66661 52.875,52.84375 0,29.17714 -23.69786,52.875 -52.875,52.875 -29.17714,0 -52.84375,-23.69786 -52.84375,-52.875 0,-29.17714 23.66661,-52.84375 52.84375,-52.84375 z" color="#000" display="inline" enable-background="accumulate" opacity=".79" overflow="visible" visibility="visible" style="marker:none"/></clipPath><filter id="filter11193-2" width="1.606" height="1.205" x="-.303" y="-.102" color-interpolation-filters="sRGB"><feGaussianBlur id="feGaussianBlur11195-8" stdDeviation="18.144"/></filter><linearGradient id="linearGradient3090-9" x1="-73.263" x2="-3.597" y1="514.972" y2="521.377" gradientTransform="matrix(0.09977927,0,0,0.10242822,10.697755,-28.489398)" gradientUnits="userSpaceOnUse" spreadMethod="reflect" xlink:href="#linearGradient5241-7"/><linearGradient id="linearGradient5241-7"><stop id="stop5243-2" offset="0" stop-color="#7c7c7c" stop-opacity="1"/><stop id="stop5245-3" offset="1" stop-color="#c6c6c6" stop-opacity="1"/></linearGradient><linearGradient id="linearGradient3093-1" x1="-73.263" x2="-3.597" y1="514.972" y2="521.377" gradientTransform="matrix(0.10393175,0,0,0.10854636,9.6668668,-31.575259)" gradientUnits="userSpaceOnUse" spreadMethod="reflect" xlink:href="#linearGradient5241-7"/><linearGradient id="linearGradient3942"><stop id="stop3944" offset="0" stop-color="#7c7c7c" stop-opacity="1"/><stop id="stop3946" offset="1" stop-color="#c6c6c6" stop-opacity="1"/></linearGradient><linearGradient id="linearGradient3955" x1="-73.263" x2="-3.597" y1="514.972" y2="521.377" gradientTransform="matrix(0.09977927,0,0,0.10242822,10.149971,-28.395676)" gradientUnits="userSpaceOnUse" spreadMethod="reflect" xlink:href="#linearGradient5241-7"/></defs><metadata id="metadata7"/><g id="g3905" transform="matrix(0.96004616,0,0,0.94363574,28.617138,-8.1303939)"><path clip-path="url(#clipPath4248)" style="marker:none" id="path2160" fill="url(#linearGradient3909)" fill-opacity="1" fill-rule="nonzero" stroke="none" stroke-width="7.2" d="M 372.84375,260.9375 C 255.3466,260.9375 160,356.2841 160,473.78125 c 0,117.49715 95.3466,212.875 212.84375,212.875 117.49715,0 212.875,-95.37785 212.875,-212.875 0,-117.49715 -95.37785,-212.84375 -212.875,-212.84375 z m 0,160 c 29.17714,0 52.875,23.66661 52.875,52.84375 0,29.17714 -23.69786,52.875 -52.875,52.875 -29.17714,0 -52.84375,-23.69786 -52.84375,-52.875 0,-29.17714 23.66661,-52.84375 52.84375,-52.84375 z" color="#000" display="inline" enable-background="accumulate" overflow="visible" transform="matrix(0.10393175,0,0,0.10854636,-42.798508,-17.239113)" visibility="visible"/><path id="path2160-4" fill="#fff" fill-opacity="1" fill-rule="nonzero" stroke="none" stroke-width="7.2" d="M 372.84375,260.9375 C 255.3466,260.9375 160,356.2841 160,473.78125 c 0,117.49715 95.3466,212.875 212.84375,212.875 117.49715,0 212.875,-95.37785 212.875,-212.875 0,-117.49715 -95.37785,-212.84375 -212.875,-212.84375 z m 0,160 c 29.17714,0 52.875,23.66661 52.875,52.84375 0,29.17714 -23.69786,52.875 -52.875,52.875 -29.17714,0 -52.84375,-23.69786 -52.84375,-52.875 0,-29.17714 23.66661,-52.84375 52.84375,-52.84375 z" clip-path="url(#clipPath4248-4)" color="#000" display="inline" enable-background="accumulate" opacity=".445" overflow="visible" transform="matrix(0.10393175,0,0,0.10854636,-42.819723,-17.259435)" visibility="visible" style="marker:none"/></g><path id="path4252" fill="none" stroke="url(#linearGradient3955)" stroke-dasharray="none" stroke-dashoffset="0" stroke-linecap="butt" stroke-linejoin="round" stroke-miterlimit="4" stroke-opacity="1" stroke-width=".728" d="m 24.436414,2.5491371 c -11.723781,0 -21.2373954,9.7661839 -21.2373954,21.8012089 0,12.035024 9.5136144,21.804408 21.2373954,21.804408 11.723781,0 21.240514,-9.769384 21.240514,-21.804408 0,-12.035025 -9.516733,-21.8012089 -21.240514,-21.8012089 z m 0,16.3885179 c 2.911274,0 5.27583,2.424128 5.27583,5.412691 0,2.988563 -2.364556,5.415892 -5.27583,5.415892 -2.911274,0 -5.272712,-2.427329 -5.272712,-5.415892 0,-2.988563 2.361438,-5.412691 5.272712,-5.412691 z" color="#000" display="inline" enable-background="accumulate" overflow="visible" visibility="visible" style="marker:none"/><path id="path4254" fill="none" stroke="url(#linearGradient3090-9)" stroke-dasharray="none" stroke-dashoffset="0" stroke-linecap="butt" stroke-linejoin="round" stroke-miterlimit="4" stroke-opacity="1" stroke-width=".728" d="m 24.984198,2.4554161 c -11.723781,0 -21.2373953,9.7661849 -21.2373953,21.8012089 0,12.035024 9.5136143,21.804409 21.2373953,21.804409 11.72378,0 21.240513,-9.769385 21.240513,-21.804409 0,-12.035024 -9.516733,-21.8012089 -21.240513,-21.8012089 z m 0,16.3885169 c 2.911274,0 5.275829,2.424129 5.275829,5.412692 0,2.988563 -2.364555,5.415892 -5.275829,5.415892 -2.911274,0 -5.272712,-2.427329 -5.272712,-5.415892 0,-2.988563 2.361438,-5.412692 5.272712,-5.412692 z" color="#000" display="inline" enable-background="accumulate" overflow="visible" visibility="visible" style="marker:none"/><path id="rect3138" fill="red" fill-opacity="1" fill-rule="nonzero" stroke="none" stroke-width="20" d="m 328.92758,254.85514 41.51651,216.98327 87.62907,202.7967 -45.8562,14.10768 -41.5165,-216.98325 -87.62908,-202.79672 45.8562,-14.10768 z" clip-path="url(#clipPath4244-5)" color="#000" display="inline" enable-background="accumulate" filter="url(#filter11193-2)" opacity=".271" overflow="visible" transform="matrix(0.09949186,0.00776869,-0.00756778,0.10213319,-8.7996827,-27.011021)" visibility="visible" style="marker:none"/><path id="path4112" fill="#ff0" fill-opacity="1" fill-rule="nonzero" stroke="none" stroke-width="20" d="M 293.5497,264.71402 370.45249,471.8593 491.10033,656.97358 447.59484,678.88391 370.69205,471.73865 250.04421,286.62435 293.5497,264.71402 z" clip-path="url(#clipPath4240-2)" color="#000" display="inline" enable-background="accumulate" filter="url(#filter11189-5)" opacity=".271" overflow="visible" transform="matrix(0.09977313,-0.0011366,0.0011072,0.10242191,-13.011877,-23.847778)" visibility="visible" style="marker:none"/><path id="path4114" fill="#0f0" fill-opacity="1" fill-rule="nonzero" stroke="none" stroke-width="20" d="M 260.9312,279.90039 370.46408,471.87823 519.47663,634.93504 481.21334,662.96499 370.68047,471.71972 220.66791,309.39544 260.9312,279.90039 z" clip-path="url(#clipPath4236-6)" color="#000" display="inline" enable-background="accumulate" filter="url(#filter11185-2)" opacity=".271" overflow="visible" transform="matrix(0.09928183,-0.01021518,0.009951,0.10191756,-16.998911,-20.250854)" visibility="visible" style="marker:none"/><path id="path4116" fill="#00f" fill-opacity="1" fill-rule="nonzero" stroke="none" stroke-width="20" d="M 233.03743,298.24454 370.47877,471.89512 546.90688,605.46063 509.07971,644.35339 370.66578,471.70283 193.26506,339.1373 233.03743,298.24454 z" clip-path="url(#clipPath4232-3)" color="#000" display="inline" enable-background="accumulate" filter="url(#filter11181-5)" opacity=".271" overflow="visible" transform="matrix(0.09763265,-0.02113214,0.02058565,0.10022461,-21.399332,-15.412675)" visibility="visible" style="marker:none"/><path id="path2165" fill="none" stroke="#d2d2d2" stroke-dasharray="none" stroke-dashoffset="0" stroke-linecap="butt" stroke-linejoin="round" stroke-miterlimit="4" stroke-opacity="1" stroke-width="1.791" d="m 31.233505,24.305087 a 6.5672881,6.7416371 0 0 1 -13.134576,0 6.5672881,6.7416371 0 1 1 13.134576,0 z" color="#000" display="inline" enable-background="accumulate" opacity=".389" overflow="visible" visibility="visible" style="marker:none"/></svg>