<svg xmlns="http://www.w3.org/2000/svg" xmlns:svg="http://www.w3.org/2000/svg" xmlns:xlink="http://www.w3.org/1999/xlink" id="svg2" width="48" height="48" version="1.0"><defs id="defs4"><linearGradient id="linearGradient3915"><stop id="stop3917" offset="0" stop-color="#fff" stop-opacity="0"/><stop id="stop3923" offset=".234" stop-color="#787878" stop-opacity=".097"/><stop id="stop3919" offset="1" stop-color="#000" stop-opacity="1"/></linearGradient><linearGradient id="linearGradient3907"><stop id="stop3909" offset="0" stop-color="#fff" stop-opacity="1"/><stop id="stop3911" offset="1" stop-color="#fff" stop-opacity="0"/></linearGradient><linearGradient id="linearGradient3877"><stop id="stop3879" offset="0" stop-color="#fff" stop-opacity="1"/><stop id="stop3881" offset="1" stop-color="#000" stop-opacity="0"/></linearGradient><radialGradient id="radialGradient3883" cx="62.546" cy="440.547" r="209.967" fx="62.546" fy="440.547" gradientTransform="matrix(0.9578249,0.7964932,-3.1228832,3.7554305,1388.5014,-1274.8382)" gradientUnits="userSpaceOnUse" xlink:href="#linearGradient3877"/><filter id="filter3901" color-interpolation-filters="sRGB"><feGaussianBlur id="feGaussianBlur3903" stdDeviation="2.148"/></filter><linearGradient id="linearGradient3913" x1="-217.706" x2="-226.906" y1="81.872" y2="243.919" gradientUnits="userSpaceOnUse" xlink:href="#linearGradient3907"/><radialGradient id="radialGradient3921" cx="205.056" cy="287.455" r="209.967" fx="205.056" fy="287.455" gradientTransform="matrix(1.1428571,5.1509902e-8,-5.0317543e-8,1.1164021,-29.293662,-33.460371)" gradientUnits="userSpaceOnUse" xlink:href="#linearGradient3915"/><radialGradient id="radialGradient2538" cx="205.056" cy="287.455" r="209.967" fx="205.056" fy="287.455" gradientTransform="matrix(1.1428571,5.1509902e-8,-5.0317543e-8,1.1164021,-29.293657,-33.460366)" gradientUnits="userSpaceOnUse" xlink:href="#linearGradient3915"/><radialGradient id="radialGradient2540" cx="62.546" cy="440.547" r="209.967" fx="62.546" fy="440.547" gradientTransform="matrix(0.9578249,0.7964932,-3.1228832,3.7554305,1388.5014,-1274.8382)" gradientUnits="userSpaceOnUse" xlink:href="#linearGradient3877"/><linearGradient id="linearGradient2542" x1="-217.706" x2="-226.906" y1="81.872" y2="243.919" gradientTransform="translate(6.9232572e-6,-2.682953e-6)" gradientUnits="userSpaceOnUse" xlink:href="#linearGradient3907"/><radialGradient id="radialGradient3469" cx="62.546" cy="440.547" r="209.967" fx="62.546" fy="440.547" gradientTransform="matrix(0.9578249,0.7964932,-3.1228832,3.7554305,1388.5014,-1274.8382)" gradientUnits="userSpaceOnUse" xlink:href="#linearGradient3877"/><linearGradient id="linearGradient3061" x1="-217.706" x2="-226.906" y1="81.872" y2="243.919" gradientTransform="translate(6.9232568e-6,-2.6829534e-6)" gradientUnits="userSpaceOnUse" xlink:href="#linearGradient3907"/><radialGradient id="radialGradient3063" cx="205.056" cy="287.455" r="209.967" fx="205.056" fy="287.455" gradientTransform="matrix(1.1428571,5.1509902e-8,-5.0317543e-8,1.1164021,-29.293657,-33.460366)" gradientUnits="userSpaceOnUse" xlink:href="#linearGradient3915"/><radialGradient id="radialGradient3841-1" cx="205.056" cy="287.455" r="209.967" fx="205.056" fy="287.455" gradientUnits="userSpaceOnUse" xlink:href="#linearGradient3835-3"/><linearGradient id="linearGradient3835-3"><stop id="stop3837-1" offset="0" stop-color="#ff0" stop-opacity="1"/><stop id="stop3839-8" offset="1" stop-color="#ff0" stop-opacity="0"/></linearGradient><radialGradient id="radialGradient3841-8" cx="205.056" cy="287.455" r="209.967" fx="205.056" fy="287.455" gradientUnits="userSpaceOnUse" xlink:href="#linearGradient3835-39"/><linearGradient id="linearGradient3835-39"><stop id="stop3837-5" offset="0" stop-color="#ff0" stop-opacity="1"/><stop id="stop3839-2" offset="1" stop-color="#ff0" stop-opacity="0"/></linearGradient><radialGradient id="radialGradient3913" cx="205.056" cy="287.455" r="209.967" fx="205.056" fy="287.455" gradientUnits="userSpaceOnUse" xlink:href="#linearGradient3835-39"/><radialGradient id="radialGradient3469-2" cx="62.546" cy="440.547" r="209.967" fx="62.546" fy="440.547" gradientTransform="matrix(0.9578249,0.7964932,-3.1228832,3.7554305,1388.5014,-1274.8382)" gradientUnits="userSpaceOnUse" xlink:href="#linearGradient3877-6"/><linearGradient id="linearGradient3877-6"><stop id="stop3879-0" offset="0" stop-color="#fff" stop-opacity="1"/><stop id="stop3881-1" offset="1" stop-color="#000" stop-opacity="0"/></linearGradient><filter id="filter3901-6" color-interpolation-filters="sRGB"><feGaussianBlur id="feGaussianBlur3903-9" stdDeviation="2.148"/></filter><radialGradient id="radialGradient3960" cx="62.546" cy="440.547" r="209.967" fx="62.546" fy="440.547" gradientTransform="matrix(0.9578249,0.7964932,-3.1228832,3.7554305,1388.5014,-1274.8382)" gradientUnits="userSpaceOnUse" xlink:href="#linearGradient3877-6"/><radialGradient id="radialGradient4000" cx="205.056" cy="287.455" r="209.967" fx="205.056" fy="287.455" gradientUnits="userSpaceOnUse" xlink:href="#linearGradient3835-39"/><radialGradient id="radialGradient4002" cx="62.546" cy="440.547" r="209.967" fx="62.546" fy="440.547" gradientTransform="matrix(0.9578249,0.7964932,-3.1228832,3.7554305,1388.5014,-1274.8382)" gradientUnits="userSpaceOnUse" xlink:href="#linearGradient3877-6"/><radialGradient id="radialGradient4027" cx="205.056" cy="287.455" r="209.967" fx="205.056" fy="287.455" gradientTransform="matrix(1.1428571,5.1509902e-8,-5.0317543e-8,1.1164021,-29.293657,-33.460366)" gradientUnits="userSpaceOnUse" xlink:href="#linearGradient3915"/><radialGradient id="radialGradient4029" cx="205.056" cy="287.455" r="209.967" fx="205.056" fy="287.455" gradientUnits="userSpaceOnUse" xlink:href="#linearGradient3835-39"/><radialGradient id="radialGradient4031" cx="62.546" cy="440.547" r="209.967" fx="62.546" fy="440.547" gradientTransform="matrix(0.9578249,0.7964932,-3.1228832,3.7554305,1388.5014,-1274.8382)" gradientUnits="userSpaceOnUse" xlink:href="#linearGradient3877-6"/><linearGradient id="linearGradient3061-8" x1="-217.706" x2="-226.906" y1="81.872" y2="243.919" gradientTransform="translate(6.9232568e-6,-2.6829534e-6)" gradientUnits="userSpaceOnUse" xlink:href="#linearGradient3907-0"/><linearGradient id="linearGradient3907-0"><stop id="stop3909-3" offset="0" stop-color="#fff" stop-opacity="1"/><stop id="stop3911-9" offset="1" stop-color="#fff" stop-opacity="0"/></linearGradient><linearGradient id="linearGradient4048" x1="-217.706" x2="-226.906" y1="81.872" y2="243.919" gradientTransform="translate(6.9232568e-6,-2.6829534e-6)" gradientUnits="userSpaceOnUse" xlink:href="#linearGradient3907-0"/><radialGradient id="radialGradient4077" cx="205.056" cy="287.455" r="209.967" fx="205.056" fy="287.455" gradientTransform="matrix(1.1428571,5.1509902e-8,-5.0317543e-8,1.1164021,-29.293657,-33.460366)" gradientUnits="userSpaceOnUse" xlink:href="#linearGradient3915"/><radialGradient id="radialGradient4079" cx="205.056" cy="287.455" r="209.967" fx="205.056" fy="287.455" gradientUnits="userSpaceOnUse" xlink:href="#linearGradient3835-39"/><radialGradient id="radialGradient4081" cx="62.546" cy="440.547" r="209.967" fx="62.546" fy="440.547" gradientTransform="matrix(0.9578249,0.7964932,-3.1228832,3.7554305,1388.5014,-1274.8382)" gradientUnits="userSpaceOnUse" xlink:href="#linearGradient3877-6"/><radialGradient id="radialGradient4092" cx="205.056" cy="287.455" r="209.967" fx="205.056" fy="287.455" gradientUnits="userSpaceOnUse" xlink:href="#linearGradient3835-39"/><radialGradient id="radialGradient4094" cx="62.546" cy="440.547" r="209.967" fx="62.546" fy="440.547" gradientTransform="matrix(0.9578249,0.7964932,-3.1228832,3.7554305,1388.5014,-1274.8382)" gradientUnits="userSpaceOnUse" xlink:href="#linearGradient3877-6"/><radialGradient id="radialGradient4160" cx="205.056" cy="287.455" r="209.967" fx="205.056" fy="287.455" gradientTransform="matrix(1.1428571,5.1509902e-8,-5.0317543e-8,1.1164021,-29.293657,-33.460366)" gradientUnits="userSpaceOnUse" xlink:href="#linearGradient3915"/><radialGradient id="radialGradient4162" cx="205.056" cy="287.455" r="209.967" fx="205.056" fy="287.455" gradientUnits="userSpaceOnUse" xlink:href="#linearGradient3835-39"/><radialGradient id="radialGradient4164" cx="62.546" cy="440.547" r="209.967" fx="62.546" fy="440.547" gradientTransform="matrix(0.9578249,0.7964932,-3.1228832,3.7554305,1388.5014,-1274.8382)" gradientUnits="userSpaceOnUse" xlink:href="#linearGradient3877-6"/><linearGradient id="linearGradient4166" x1="-217.706" x2="-226.906" y1="81.872" y2="243.919" gradientTransform="translate(6.9232563e-6,-2.6829534e-6)" gradientUnits="userSpaceOnUse" xlink:href="#linearGradient3907-0"/><radialGradient id="radialGradient4178" cx="16.352" cy="12.225" r="19.17" gradientTransform="matrix(0,1.3300739,-2.6993585,0,92.250879,0.27237475)" gradientUnits="userSpaceOnUse" xlink:href="#radialGradient2591-4"/><radialGradient id="radialGradient2591-4" cx="16.352" cy="12.225" r="19.17" gradientTransform="matrix(0,0.96364,-2.2356,0,48.282,6.3239)" gradientUnits="userSpaceOnUse"><stop id="stop4130-5" offset="0" stop-color="#3d434a" stop-opacity="1"/><stop id="stop4132-9" offset="1" stop-color="#000" stop-opacity="1"/></radialGradient><radialGradient id="radialGradient4200" cx="16.352" cy="12.225" r="19.17" gradientTransform="matrix(0,1.3300739,-2.6993585,0,84.401411,-49.197664)" gradientUnits="userSpaceOnUse" xlink:href="#radialGradient2591-4"/><radialGradient id="radialGradient3856" cx="-29.195" cy="-24.125" r="10.5" fx="-29.195" fy="-24.125" gradientTransform="matrix(2.0200683,0,0,1.9964613,83.158872,72.059233)" gradientUnits="userSpaceOnUse" xlink:href="#radialGradient2591-4"/><radialGradient id="radialGradient3882" cx="205.056" cy="287.455" r="209.967" fx="205.056" fy="287.455" gradientTransform="matrix(1.1428571,5.1509902e-8,-5.0317543e-8,1.1164021,-29.293657,-33.460366)" gradientUnits="userSpaceOnUse" xlink:href="#linearGradient3915"/><radialGradient id="radialGradient3884" cx="205.056" cy="287.455" r="209.967" fx="205.056" fy="287.455" gradientUnits="userSpaceOnUse" xlink:href="#linearGradient3835-39"/><radialGradient id="radialGradient3886" cx="62.546" cy="440.547" r="209.967" fx="62.546" fy="440.547" gradientTransform="matrix(0.9578249,0.7964932,-3.1228832,3.7554305,1388.5014,-1274.8382)" gradientUnits="userSpaceOnUse" xlink:href="#linearGradient3877-6"/><linearGradient id="linearGradient3888" x1="-217.706" x2="-226.906" y1="81.872" y2="243.919" gradientTransform="translate(6.9232558e-6,-2.6829534e-6)" gradientUnits="userSpaceOnUse" xlink:href="#linearGradient3907-0"/><radialGradient id="radialGradient3914" cx="205.056" cy="287.455" r="209.967" fx="205.056" fy="287.455" gradientTransform="matrix(1.1428571,5.1509902e-8,-5.0317543e-8,1.1164021,-29.293657,-33.460366)" gradientUnits="userSpaceOnUse" xlink:href="#linearGradient3915"/><radialGradient id="radialGradient3916" cx="205.056" cy="287.455" r="209.967" fx="205.056" fy="287.455" gradientUnits="userSpaceOnUse" xlink:href="#linearGradient3835-39"/><radialGradient id="radialGradient3918" cx="62.546" cy="440.547" r="209.967" fx="62.546" fy="440.547" gradientTransform="matrix(0.9578249,0.7964932,-3.1228832,3.7554305,1388.5014,-1274.8382)" gradientUnits="userSpaceOnUse" xlink:href="#linearGradient3877-6"/><linearGradient id="linearGradient3920" x1="-217.706" x2="-226.906" y1="81.872" y2="243.919" gradientTransform="translate(6.9232553e-6,-2.6829534e-6)" gradientUnits="userSpaceOnUse" xlink:href="#linearGradient3907-0"/><radialGradient id="radialGradient3946" cx="205.056" cy="287.455" r="209.967" fx="205.056" fy="287.455" gradientTransform="matrix(1.1428571,5.1509902e-8,-5.0317543e-8,1.1164021,-29.293657,-33.460366)" gradientUnits="userSpaceOnUse" xlink:href="#linearGradient3915"/><radialGradient id="radialGradient3948" cx="205.056" cy="287.455" r="209.967" fx="205.056" fy="287.455" gradientUnits="userSpaceOnUse" xlink:href="#linearGradient3835-39"/><radialGradient id="radialGradient3950" cx="62.546" cy="440.547" r="209.967" fx="62.546" fy="440.547" gradientTransform="matrix(0.9578249,0.7964932,-3.1228832,3.7554305,1388.5014,-1274.8382)" gradientUnits="userSpaceOnUse" xlink:href="#linearGradient3877-6"/><linearGradient id="linearGradient3952" x1="-217.706" x2="-226.906" y1="81.872" y2="243.919" gradientTransform="translate(6.9232544e-6,-2.6829548e-6)" gradientUnits="userSpaceOnUse" xlink:href="#linearGradient3907-0"/></defs><metadata id="metadata7"/><path id="path3802" fill="#00f" fill-opacity="1" stroke="none" d="m 974.35278,-529.01779 a 0,0 0 0 0 0,0 0,0 0 0 0 0,0 z" opacity=".912"/><path id="path3804" fill="#00f" fill-opacity="1" stroke="none" d="m 974.35278,-529.01779 a 0,0 0 0 0 0,0 0,0 0 0 0 0,0 z" opacity=".912"/><path id="path3806" fill="#00f" fill-opacity="1" stroke="none" d="m 974.35278,-529.01779 a 0,0 0 0 0 0,0 0,0 0 0 0 0,0 z" opacity=".912"/><g id="g4110" transform="matrix(0.89714971,0,0,0.87283597,1.5465559,-453.80338)"><g id="g4096"><path id="path2594" fill="none" stroke="#000" stroke-linecap="butt" stroke-linejoin="miter" stroke-opacity="1" stroke-width=".115" d="m 41.731224,553.96473 0,0"/><path id="path2600" fill="none" stroke="#000" stroke-linecap="butt" stroke-linejoin="miter" stroke-opacity="1" stroke-width=".115" d="m 41.731224,553.96473 0,0"/><path id="path2838" fill="url(#radialGradient3946)" fill-opacity="1" stroke="none" d="m 415.02299,287.45493 a 209.96725,209.96725 0 1 1 -419.9345043,0 209.96725,209.96725 0 1 1 419.9345043,0 z" transform="matrix(0.11117357,0,0,0.1130039,2.397028,514.64428)"/><g id="g3991" transform="translate(-24.330784,-77.858507)"><g id="g3983"><g id="g3937" transform="translate(-41.09199,21.897705)"><g id="g3932"><path id="path3925-4" fill="#003400" fill-opacity="1" stroke="none" d="m 415.02299,287.45493 a 209.96725,209.96725 0 1 1 -419.9345043,0 209.96725,209.96725 0 1 1 419.9345043,0 z" opacity=".605" transform="matrix(0.11117357,0,0,0.1130039,67.464474,570.60905)"/><path id="path3925-4-4" fill="#0f0" fill-opacity="1" stroke="none" d="m 415.02299,287.45493 a 209.96725,209.96725 0 1 1 -419.9345043,0 209.96725,209.96725 0 1 1 419.9345043,0 z" opacity=".605" transform="matrix(0.11117357,0,0,0.1130039,67.622836,570.60904)"/><path id="path3925" fill="url(#radialGradient3948)" fill-opacity="1" stroke="none" d="m 415.02299,287.45493 a 209.96725,209.96725 0 1 1 -419.9345043,0 209.96725,209.96725 0 1 1 419.9345043,0 z" transform="matrix(0.08340543,0,0,0.08113882,72.980914,580.45429)"/></g></g><path id="path3875" fill="none" stroke="url(#radialGradient3950)" stroke-dasharray="none" stroke-linecap="square" stroke-linejoin="miter" stroke-miterlimit="4" stroke-opacity="1" stroke-width="9.716" d="m 415.02299,287.45493 a 209.96725,209.96725 0 1 1 -419.9345043,0 209.96725,209.96725 0 1 1 419.9345043,0 z" filter="url(#filter3901-6)" transform="matrix(0.10352671,0,0,0.10523114,27.868727,595.1492)"/></g></g><path id="path3905" fill="url(#linearGradient3952)" fill-opacity="1" stroke="none" d="m -132.61089,181.85735 a 93.93272,58.938182 0 1 1 -187.86544,0 93.93272,58.938182 0 1 1 187.86544,0 z" transform="matrix(0.11476751,0.09293134,-0.09485257,0.12090201,78.289167,534.17025)"/></g></g><path id="path3848" fill="url(#radialGradient3856)" fill-opacity="1" stroke="none" d="m 3.1894247,26.870891 a 21.208168,20.960492 0 1 1 0.1581915,0.938038" opacity=".2"/><path id="path2588" fill="#fff" fill-opacity="1" fill-rule="evenodd" stroke="#fff" stroke-dasharray="none" stroke-dashoffset="0" stroke-linecap="square" stroke-linejoin="miter" stroke-miterlimit="4" stroke-opacity="1" stroke-width=".718" d="m 23.842338,8.2884638 -2.010664,3.4943032 1.311301,-0.0087 0,14.942149 c -0.961332,-0.257304 -1.738282,-0.8711 -2.343427,-1.82105 -0.645437,-1.013214 -1.059991,-2.416744 -1.133647,-4.099476 0.551118,-0.264539 0.930604,-0.82353 0.930604,-1.469672 0,-0.901142 -0.738462,-1.631418 -1.649705,-1.631418 -0.911245,0 -1.652524,0.730276 -1.652524,1.631418 0,0.642598 0.378741,1.197801 0.924961,1.464095 0.07203,1.90918 0.535617,3.573451 1.359244,4.866383 0.834833,1.310512 2.080715,2.217606 3.564494,2.515453 l 0,7.340002 c -0.74704,0.286037 -1.274644,1.004031 -1.274644,1.843368 0,1.090495 0.893857,1.974442 1.99657,1.974442 1.102715,0 1.99657,-0.883947 1.99657,-1.974442 0,-0.838429 -0.528886,-1.553919 -1.27465,-1.840575 l 0,-11.503614 c 1.581019,-0.191159 2.791023,-0.857735 3.620894,-1.765284 0.885748,-0.968655 1.35668,-2.167732 1.610232,-3.313041 0.232237,-1.049053 0.281697,-2.059405 0.270716,-2.858477 l 0.645786,0 0,-2.713456 -2.741053,0 0,2.713456 0.65142,0 c 0.01076,0.724916 -0.03526,1.643856 -0.236874,2.554503 -0.217953,0.984489 -0.616287,1.94357 -1.271826,2.660475 -0.582851,0.637397 -1.383576,1.094571 -2.549295,1.268876 l 0,-10.792477 1.311309,-0.0087 z" display="inline" overflow="visible" visibility="visible" style="marker:none"/></svg>