<svg xmlns="http://www.w3.org/2000/svg" xmlns:svg="http://www.w3.org/2000/svg" id="svg7384" width="16" height="16" version="1.1"><metadata id="metadata90"/><title id="title9167">Gnome Symbolic Icon Theme</title><path id="rect9466" fill="#bebebe" d="M 12.202877,0.33673998 9.677472,2.8138701 13.44868,6.5462164 15.974084,4.0690863 12.202877,0.33673998 z M 12.199977,1.5780678 12.828512,2.2001256 12.19716,2.819408 11.568626,2.1973504 12.199977,1.5780678 z m 1.885626,1.8661731 0.628534,0.6220578 -0.631351,0.6192825 -0.628535,-0.6220578 0.631352,-0.6192825 z"/><path id="path3757" fill="#bebebe" fill-opacity="1" stroke="none" d="m 4.0677969,9.016949 -6.2275534,1.425987 -6.227553,1.425989 1.8788353,-6.1062133 1.8788344,-6.10621331 4.34871801,4.68022571 z" transform="matrix(0.92263865,-0.01922547,0.02330644,0.89457583,7.5443512,4.9462375)"/><rect id="rect3761" width="6.579" height="4.993" x="8.183" y="-4.399" fill="#bebebe" fill-opacity="1" stroke="none" transform="matrix(0.71426268,0.69987772,-0.71640693,0.69768268,0,0)"/></svg>